Panamera-Light.ufo
<glyph name="exclam" format="2">
  <advance width="310.0"/>
  <unicode hex="0021"/>
  <note>
exclam
</note>
  <outline>
    <contour>
      <point x="123.31" y="731.0" type="line"/>
      <point x="123.31" y="608.0" type="line"/>
      <point x="142.12" y="214.0" type="line"/>
      <point x="167.86" y="214.0" type="line"/>
      <point x="186.67" y="608.0" type="line"/>
      <point x="186.67" y="731.0" type="line"/>
    </contour>
    <contour>
      <point x="188.99" y="0.0" type="line"/>
      <point x="188.99" y="68.0" type="line"/>
      <point x="120.99" y="68.0" type="line"/>
      <point x="120.99" y="0.0" type="line"/>
    </contour>
  </outline>
</glyph>
<glyph name="quotedbl" format="2">
  <advance width="644.0"/>
  <unicode hex="0022"/>
  <note>
quotedbl
</note>
  <outline>
    <contour>
      <point x="239.0" y="502.0" type="line"/>
      <point x="248.0" y="726.0" type="line"/>
      <point x="182.0" y="726.0" type="line"/>
      <point x="191.0" y="502.0" type="line"/>
    </contour>
    <contour>
      <point x="453.0" y="502.0" type="line"/>
      <point x="462.0" y="726.0" type="line"/>
      <point x="396.0" y="726.0" type="line"/>
      <point x="405.0" y="502.0" type="line"/>
    </contour>
  </outline>
</glyph>
<glyph name="numbersign" format="2">
  <advance width="823"/>
  <unicode hex="0023"/>
  <outline>
    <contour>
      <point x="730" y="227" type="line"/>
      <point x="30.99" y="227" type="line"/>
      <point x="30.99" y="190" type="line"/>
      <point x="729.99" y="190" type="line"/>
    </contour>
    <contour>
      <point x="98.99" y="504" type="line"/>
      <point x="809.99" y="504" type="line"/>
      <point x="809.99" y="540" type="line"/>
      <point x="98.99" y="540" type="line"/>
    </contour>
    <contour>
      <point x="350.99" y="756" type="line"/>
      <point x="96.99" y="-6" type="line"/>
      <point x="137.99" y="-6" type="line"/>
      <point x="392.99" y="756" type="line"/>
    </contour>
    <contour>
      <point x="484.99" y="-6" type="line"/>
      <point x="739.99" y="756" type="line"/>
      <point x="698.99" y="756" type="line"/>
      <point x="443.99" y="-6" type="line"/>
    </contour>
  </outline>
</glyph>
<glyph name="dollar" format="2">
  <advance width="572.0"/>
  <unicode hex="0024"/>
  <note>
dollar
</note>
  <outline>
    <contour>
      <point x="549.0" y="189.99" type="curve" smooth="yes"/>
      <point x="549.0" y="292.78"/>
      <point x="456.66" y="332.77"/>
      <point x="370.51" y="360.69" type="curve"/>
      <point x="370.51" y="672.59" type="line"/>
      <point x="412.94" y="658.83"/>
      <point x="443.65" y="631.7"/>
      <point x="456.99" y="593.0" type="curve"/>
      <point x="498.99" y="604.0" type="line"/>
      <point x="478.5" y="654.5"/>
      <point x="431.23" y="686.78"/>
      <point x="370.51" y="700.47" type="curve"/>
      <point x="370.51" y="804.0" type="line"/>
      <point x="335.76" y="804.0" type="line"/>
      <point x="335.76" y="706.12" type="line"/>
      <point x="323.84" y="707.37"/>
      <point x="311.56" y="708.0"/>
      <point x="299.0" y="708.0" type="curve" smooth="yes"/>
      <point x="288.16" y="708.0"/>
      <point x="277.76" y="707.59"/>
      <point x="267.79" y="706.79" type="curve"/>
      <point x="267.79" y="803.99" type="line"/>
      <point x="236.48" y="803.99" type="line"/>
      <point x="236.48" y="702.82" type="line"/>
      <point x="135.23" y="684.77"/>
      <point x="87.0" y="621.48"/>
      <point x="87.0" y="543.99" type="curve" smooth="yes"/>
      <point x="87.0" y="464.63"/>
      <point x="135.79" y="418.04"/>
      <point x="236.48" y="378.11" type="curve"/>
      <point x="236.48" y="26.07" type="line"/>
      <point x="145.07" y="43.87"/>
      <point x="94.34" y="99.24"/>
      <point x="69.0" y="171.99" type="curve"/>
      <point x="30.0" y="151.99" type="line"/>
      <point x="66.0" y="72.45"/>
      <point x="129.35" y="14.64"/>
      <point x="236.48" y="-2.07" type="curve"/>
      <point x="236.48" y="-101.01" type="line"/>
      <point x="267.79" y="-101.01" type="line"/>
      <point x="267.79" y="-5.67" type="line"/>
      <point x="279.4" y="-6.55"/>
      <point x="291.46" y="-7.01"/>
      <point x="304.0" y="-7.01" type="curve" smooth="yes"/>
      <point x="314.99" y="-7.01"/>
      <point x="325.58" y="-6.64"/>
      <point x="335.76" y="-5.92" type="curve"/>
      <point x="335.76" y="-101.01" type="line"/>
      <point x="370.51" y="-101.01" type="line"/>
      <point x="370.51" y="-1.91" type="line"/>
      <point x="495.02" y="18.53"/>
      <point x="549.0" y="97.98"/>
    </contour>
    <contour>
      <point x="299.01" y="683.0" type="curve" smooth="yes"/>
      <point x="311.81" y="682.99"/>
      <point x="324.09" y="682.15"/>
      <point x="335.76" y="680.5" type="curve"/>
      <point x="335.76" y="371.59" type="line"/>
      <point x="324.38" y="375.11"/>
      <point x="313.38" y="378.54"/>
      <point x="303.0" y="382.0" type="curve" smooth="yes"/>
      <point x="290.4" y="386.2"/>
      <point x="278.68" y="390.35"/>
      <point x="267.8" y="394.49" type="curve"/>
      <point x="267.8" y="681.44" type="line"/>
      <point x="277.63" y="682.47"/>
      <point x="288.03" y="683.0"/>
    </contour>
    <contour>
      <point x="131.01" y="544.0" type="curve" smooth="yes"/>
      <point x="131.01" y="607.16"/>
      <point x="163.61" y="658.18"/>
      <point x="236.49" y="676.1" type="curve"/>
      <point x="236.49" y="407.33" type="line"/>
      <point x="149.9" y="445.95"/>
      <point x="131.01" y="484.85"/>
    </contour>
    <contour>
      <point x="304.02" y="20.01" type="curve" smooth="yes"/>
      <point x="291.37" y="20.0"/>
      <point x="279.3" y="20.56"/>
      <point x="267.8" y="21.63" type="curve"/>
      <point x="267.8" y="366.49" type="line"/>
      <point x="275.92" y="363.64"/>
      <point x="284.33" y="360.82"/>
      <point x="293.01" y="358.01" type="curve" smooth="yes"/>
      <point x="307.22" y="353.37"/>
      <point x="321.58" y="348.87"/>
      <point x="335.77" y="344.25" type="curve"/>
      <point x="335.77" y="21.45" type="line"/>
      <point x="325.67" y="20.5"/>
      <point x="315.09" y="20.01"/>
    </contour>
    <contour>
      <point x="370.53" y="26.92" type="curve"/>
      <point x="370.53" y="332.41" type="line"/>
      <point x="442.87" y="306.15"/>
      <point x="503.02" y="270.98"/>
      <point x="503.02" y="190.01" type="curve" smooth="yes"/>
      <point x="503.02" y="112.04"/>
      <point x="461.25" y="47.54"/>
    </contour>
  </outline>
</glyph>
<glyph name="percent" format="2">
  <advance width="753"/>
  <unicode hex="0025"/>
  <outline>
    <contour>
      <point x="104" y="-42" type="line"/>
      <point x="147" y="-42" type="line"/>
      <point x="632" y="727" type="line"/>
      <point x="589" y="727" type="line"/>
    </contour>
    <contour>
      <point x="167" y="336" type="curve" smooth="yes"/>
      <point x="260" y="336"/>
      <point x="318" y="413"/>
      <point x="318" y="531" type="curve" smooth="yes"/>
      <point x="318" y="650"/>
      <point x="259" y="727"/>
      <point x="167" y="727" type="curve" smooth="yes"/>
      <point x="74" y="727"/>
      <point x="18" y="650"/>
      <point x="18" y="531" type="curve" smooth="yes"/>
      <point x="18" y="412"/>
      <point x="74" y="336"/>
    </contour>
    <contour>
      <point x="167" y="360" type="curve" smooth="yes"/>
      <point x="88" y="360"/>
      <point x="43" y="423"/>
      <point x="43" y="531" type="curve" smooth="yes"/>
      <point x="43" y="641"/>
      <point x="89" y="703"/>
      <point x="167" y="703" type="curve" smooth="yes"/>
      <point x="247" y="703"/>
      <point x="293" y="641"/>
      <point x="293" y="531" type="curve" smooth="yes"/>
      <point x="293" y="426"/>
      <point x="245" y="360"/>
    </contour>
    <contour>
      <point x="583" y="-17" type="curve" smooth="yes"/>
      <point x="676" y="-17"/>
      <point x="733" y="61"/>
      <point x="733" y="180" type="curve" smooth="yes"/>
      <point x="733" y="298"/>
      <point x="676" y="376"/>
      <point x="583" y="376" type="curve" smooth="yes"/>
      <point x="491" y="376"/>
      <point x="434" y="298"/>
      <point x="434" y="180" type="curve" smooth="yes"/>
      <point x="434" y="61"/>
      <point x="491" y="-17"/>
    </contour>
    <contour>
      <point x="583" y="8" type="curve" smooth="yes"/>
      <point x="503" y="8"/>
      <point x="459" y="70"/>
      <point x="459" y="180" type="curve" smooth="yes"/>
      <point x="459" y="288"/>
      <point x="503" y="352"/>
      <point x="583" y="352" type="curve" smooth="yes"/>
      <point x="663" y="352"/>
      <point x="708" y="288"/>
      <point x="708" y="180" type="curve" smooth="yes"/>
      <point x="708" y="70"/>
      <point x="662" y="8"/>
    </contour>
  </outline>
</glyph>
<glyph name="ampersand" format="2">
  <advance width="888"/>
  <unicode hex="0026"/>
  <outline>
    <contour>
      <point x="704" y="439" type="curve"/>
      <point x="649" y="439" type="line"/>
      <point x="642" y="198"/>
      <point x="560" y="14"/>
      <point x="322" y="14" type="curve" smooth="yes"/>
      <point x="175" y="14"/>
      <point x="65" y="76"/>
      <point x="65" y="217" type="curve" smooth="yes"/>
      <point x="65" y="494"/>
      <point x="572" y="389"/>
      <point x="572" y="640" type="curve" smooth="yes"/>
      <point x="572" y="722"/>
      <point x="498" y="791"/>
      <point x="385" y="791" type="curve" smooth="yes"/>
      <point x="274" y="791"/>
      <point x="179" y="732"/>
      <point x="179" y="624" type="curve" smooth="yes"/>
      <point x="179" y="454"/>
      <point x="544" y="-14"/>
      <point x="736" y="-14" type="curve" smooth="yes"/>
      <point x="814" y="-14"/>
      <point x="878" y="27"/>
      <point x="878" y="112" type="curve" smooth="yes"/>
      <point x="878" y="166"/>
      <point x="862" y="217"/>
      <point x="821" y="255" type="curve"/>
      <point x="785" y="224" type="line"/>
      <point x="826" y="196"/>
      <point x="850" y="158"/>
      <point x="850" y="112" type="curve" smooth="yes"/>
      <point x="850" y="57"/>
      <point x="818" y="14"/>
      <point x="736" y="14" type="curve" smooth="yes"/>
      <point x="582" y="14"/>
      <point x="224" y="466"/>
      <point x="224" y="624" type="curve" smooth="yes"/>
      <point x="224" y="726"/>
      <point x="300" y="763"/>
      <point x="385" y="763" type="curve" smooth="yes"/>
      <point x="475" y="763"/>
      <point x="527" y="709"/>
      <point x="527" y="640" type="curve" smooth="yes"/>
      <point x="527" y="417"/>
      <point x="20" y="507"/>
      <point x="20" y="217" type="curve" smooth="yes"/>
      <point x="20" y="72"/>
      <point x="143" y="-14"/>
      <point x="322" y="-14" type="curve" smooth="yes"/>
      <point x="567" y="-14"/>
      <point x="694" y="194"/>
    </contour>
  </outline>
</glyph>
<glyph name="quotesingle" format="2">
  <advance width="430.0"/>
  <unicode hex="0027"/>
  <note>
quotesingle
</note>
  <outline>
    <contour>
      <point x="239.0" y="502.0" type="line"/>
      <point x="248.0" y="726.0" type="line"/>
      <point x="182.0" y="726.0" type="line"/>
      <point x="191.0" y="502.0" type="line"/>
    </contour>
  </outline>
</glyph>
<glyph name="parenleft" format="2">
  <advance width="373.0"/>
  <unicode hex="0028"/>
  <note>
parenleft
</note>
  <outline>
    <contour>
      <point x="288.0" y="781.0" type="curve"/>
      <point x="264.0" y="781.0" type="line"/>
      <point x="195.0" y="687.0"/>
      <point x="108.0" y="536.0"/>
      <point x="105.0" y="312.0" type="curve" smooth="yes"/>
      <point x="108.0" y="98.0"/>
      <point x="197.0" y="-57.0"/>
      <point x="265.0" y="-159.0" type="curve"/>
      <point x="290.0" y="-159.0" type="line"/>
      <point x="229.0" y="-51.0"/>
      <point x="168.0" y="105.0"/>
      <point x="165.0" y="309.0" type="curve"/>
      <point x="168.0" y="519.0"/>
      <point x="227.0" y="677.0"/>
    </contour>
  </outline>
</glyph>
<glyph name="parenright" format="2">
  <advance width="373.0"/>
  <unicode hex="0029"/>
  <note>
parenright
</note>
  <outline>
    <contour>
      <point x="109.0" y="781.0" type="curve"/>
      <point x="85.0" y="781.0" type="line"/>
      <point x="146.0" y="677.0"/>
      <point x="205.0" y="519.0"/>
      <point x="208.0" y="309.0" type="curve" smooth="yes"/>
      <point x="205.0" y="105.0"/>
      <point x="144.0" y="-51.0"/>
      <point x="83.0" y="-159.0" type="curve"/>
      <point x="108.0" y="-159.0" type="line"/>
      <point x="176.0" y="-57.0"/>
      <point x="265.0" y="98.0"/>
      <point x="268.0" y="312.0" type="curve"/>
      <point x="265.0" y="536.0"/>
      <point x="178.0" y="687.0"/>
    </contour>
  </outline>
</glyph>
<glyph name="asterisk" format="2">
  <advance width="600.0"/>
  <unicode hex="002A"/>
  <note>
asterisk
</note>
  <outline>
    <contour>
      <point x="335.18" y="526.93" type="line"/>
      <point x="406.0" y="504.0" type="line"/>
      <point x="416.0" y="537.0" type="line"/>
      <point x="346.86" y="559.38" type="line"/>
      <point x="417.0" y="582.0" type="line"/>
      <point x="406.0" y="617.0" type="line"/>
      <point x="335.68" y="594.32" type="line"/>
      <point x="379.0" y="654.0" type="line"/>
      <point x="350.0" y="674.0" type="line"/>
      <point x="308.0" y="616.14" type="line"/>
      <point x="308.0" y="689.0" type="line"/>
      <point x="270.0" y="689.0" type="line"/>
      <point x="270.0" y="615.54" type="line"/>
      <point x="227.0" y="674.0" type="line"/>
      <point x="198.0" y="654.0" type="line"/>
      <point x="242.82" y="593.07" type="line"/>
      <point x="172.0" y="616.0" type="line"/>
      <point x="162.0" y="583.0" type="line"/>
      <point x="231.13" y="560.61" type="line"/>
      <point x="161.0" y="538.0" type="line"/>
      <point x="172.0" y="503.0" type="line"/>
      <point x="242.32" y="525.67" type="line"/>
      <point x="199.0" y="466.0" type="line"/>
      <point x="228.0" y="446.0" type="line"/>
      <point x="270.0" y="503.85" type="line"/>
      <point x="270.0" y="431.0" type="line"/>
      <point x="308.0" y="431.0" type="line"/>
      <point x="308.0" y="504.45" type="line"/>
      <point x="351.0" y="446.0" type="line"/>
      <point x="380.0" y="466.0" type="line"/>
    </contour>
  </outline>
</glyph>
<glyph name="plus" format="2">
  <advance width="600.0"/>
  <unicode hex="002B"/>
  <note>
plus
</note>
  <outline>
    <contour>
      <point x="283.0" y="12.0" type="line"/>
      <point x="317.0" y="12.0" type="line"/>
      <point x="317.0" y="226.0" type="line"/>
      <point x="533.0" y="226.0" type="line"/>
      <point x="533.0" y="260.0" type="line"/>
      <point x="317.0" y="260.0" type="line"/>
      <point x="317.0" y="475.0" type="line"/>
      <point x="283.0" y="475.0" type="line"/>
      <point x="283.0" y="260.0" type="line"/>
      <point x="66.0" y="260.0" type="line"/>
      <point x="66.0" y="226.0" type="line"/>
      <point x="283.0" y="226.0" type="line"/>
    </contour>
  </outline>
</glyph>
<glyph name="comma" format="2">
  <advance width="360.0"/>
  <unicode hex="002C"/>
  <note>
comma
</note>
  <outline>
    <contour>
      <point x="169.0" y="-9.0" type="curve" smooth="yes"/>
      <point x="169.0" y="68.0" type="line"/>
      <point x="101.0" y="68.0" type="line"/>
      <point x="101.0" y="0.0" type="line"/>
      <point x="149.0" y="0.0" type="line"/>
      <point x="149.0" y="-9.0" type="line" smooth="yes"/>
      <point x="149.0" y="-33.0"/>
      <point x="148.0" y="-66.0"/>
      <point x="109.0" y="-100.0" type="curve"/>
      <point x="109.0" y="-131.0" type="line"/>
      <point x="155.0" y="-94.0"/>
      <point x="169.0" y="-46.0"/>
    </contour>
  </outline>
</glyph>
<glyph name="hyphen" format="2">
  <advance width="517"/>
  <unicode hex="002D"/>
  <outline>
    <contour>
      <point x="64" y="243" type="line"/>
      <point x="453" y="243" type="line"/>
      <point x="453" y="277" type="line"/>
      <point x="64" y="277" type="line"/>
    </contour>
  </outline>
</glyph>
<glyph name="period" format="2">
  <advance width="296"/>
  <unicode hex="002E"/>
  <outline>
    <contour>
      <point x="101" y="0" type="line"/>
      <point x="169" y="0" type="line"/>
      <point x="169" y="68" type="line"/>
      <point x="101" y="68" type="line"/>
    </contour>
  </outline>
</glyph>
<glyph name="slash" format="2">
  <advance width="413.0"/>
  <unicode hex="002F"/>
  <note>
slash
</note>
  <outline>
    <contour>
      <point x="62.0" y="-127.0" type="line"/>
      <point x="97.0" y="-127.0" type="line"/>
      <point x="351.0" y="732.0" type="line"/>
      <point x="316.0" y="732.0" type="line"/>
    </contour>
  </outline>
</glyph>
<glyph name="zero" format="2">
  <advance width="652.0"/>
  <unicode hex="0030"/>
  <note>
zero
</note>
  <outline>
    <contour>
      <point x="325.0" y="-13.0" type="curve" smooth="yes"/>
      <point x="512.0" y="-13.0"/>
      <point x="616.0" y="129.0"/>
      <point x="616.0" y="348.0" type="curve" smooth="yes"/>
      <point x="616.0" y="567.0"/>
      <point x="512.0" y="709.0"/>
      <point x="325.0" y="709.0" type="curve" smooth="yes"/>
      <point x="139.0" y="709.0"/>
      <point x="36.0" y="567.0"/>
      <point x="36.0" y="348.0" type="curve" smooth="yes"/>
      <point x="36.0" y="129.0"/>
      <point x="139.0" y="-13.0"/>
    </contour>
    <contour>
      <point x="325.0" y="14.0" type="curve" smooth="yes"/>
      <point x="173.0" y="14.0"/>
      <point x="81.0" y="141.0"/>
      <point x="81.0" y="348.0" type="curve" smooth="yes"/>
      <point x="81.0" y="555.0"/>
      <point x="173.0" y="682.0"/>
      <point x="325.0" y="682.0" type="curve" smooth="yes"/>
      <point x="476.0" y="682.0"/>
      <point x="571.0" y="555.0"/>
      <point x="571.0" y="348.0" type="curve" smooth="yes"/>
      <point x="571.0" y="141.0"/>
      <point x="476.0" y="14.0"/>
    </contour>
  </outline>
</glyph>
<glyph name="one" format="2">
  <advance width="377.0"/>
  <unicode hex="0031"/>
  <note>
one
</note>
  <outline>
    <contour>
      <point x="240.0" y="620.0" type="line"/>
      <point x="240.0" y="0.0" type="line"/>
      <point x="282.0" y="0.0" type="line"/>
      <point x="282.0" y="700.0" type="line"/>
      <point x="234.0" y="700.0" type="line"/>
      <point x="215.0" y="645.0"/>
      <point x="153.0" y="637.0"/>
      <point x="75.0" y="639.0" type="curve"/>
      <point x="75.0" y="620.0" type="line"/>
    </contour>
  </outline>
</glyph>
<glyph name="two" format="2">
  <advance width="537"/>
  <unicode hex="0032"/>
  <outline>
    <contour>
      <point x="43" y="0" type="line"/>
      <point x="494" y="0" type="line"/>
      <point x="494" y="40" type="line"/>
      <point x="94" y="40" type="line"/>
      <point x="243" y="243"/>
      <point x="483.01" y="316.42"/>
      <point x="483.01" y="525.5" type="curve" smooth="yes"/>
      <point x="483.01" y="647.02"/>
      <point x="407.03" y="713"/>
      <point x="268" y="713" type="curve" smooth="yes"/>
      <point x="173" y="713"/>
      <point x="83" y="668"/>
      <point x="60" y="556" type="curve"/>
      <point x="107" y="561" type="line"/>
      <point x="121" y="634"/>
      <point x="186" y="685"/>
      <point x="268" y="685" type="curve" smooth="yes"/>
      <point x="369" y="685"/>
      <point x="441" y="633"/>
      <point x="441.04" y="519.24" type="curve" smooth="yes"/>
      <point x="441" y="331"/>
      <point x="190" y="246"/>
      <point x="43" y="34" type="curve"/>
    </contour>
  </outline>
</glyph>
<glyph name="three" format="2">
  <advance width="537"/>
  <unicode hex="0033"/>
  <outline>
    <contour>
      <point x="264" y="-10" type="curve" smooth="yes"/>
      <point x="386" y="-10"/>
      <point x="495" y="58"/>
      <point x="495" y="192" type="curve" smooth="yes"/>
      <point x="495" y="377"/>
      <point x="351" y="431"/>
      <point x="223" y="407" type="curve"/>
      <point x="228" y="399" type="line"/>
      <point x="481" y="671" type="line"/>
      <point x="481" y="700" type="line"/>
      <point x="71" y="700" type="line"/>
      <point x="71" y="671" type="line"/>
      <point x="436" y="671" type="line"/>
      <point x="199" y="411" type="line"/>
      <point x="216" y="384" type="line"/>
      <point x="232" y="388"/>
      <point x="257" y="389"/>
      <point x="275" y="389" type="curve" smooth="yes"/>
      <point x="377" y="389"/>
      <point x="454" y="319"/>
      <point x="454" y="202" type="curve" smooth="yes"/>
      <point x="454" y="82"/>
      <point x="364" y="18"/>
      <point x="264" y="18" type="curve" smooth="yes"/>
      <point x="164" y="18"/>
      <point x="90" y="59"/>
      <point x="76" y="163" type="curve"/>
      <point x="34" y="163" type="line"/>
      <point x="51" y="45"/>
      <point x="142" y="-10"/>
    </contour>
  </outline>
</glyph>
<glyph name="four" format="2">
  <advance width="577"/>
  <unicode hex="0034"/>
  <outline>
    <contour>
      <point x="380" y="0" type="line"/>
      <point x="422" y="0" type="line"/>
      <point x="422" y="242.24" type="line"/>
      <point x="547" y="242" type="line"/>
      <point x="547" y="273" type="line"/>
      <point x="422" y="273" type="line"/>
      <point x="422" y="700" type="line"/>
      <point x="383" y="700" type="line"/>
      <point x="34" y="268" type="line"/>
      <point x="34" y="243" type="line"/>
      <point x="380" y="242.32" type="line"/>
    </contour>
    <contour>
      <point x="80" y="273" type="line"/>
      <point x="380" y="651.5" type="line"/>
      <point x="380" y="273" type="line"/>
    </contour>
  </outline>
</glyph>
<glyph name="five" format="2">
  <advance width="600.0"/>
  <unicode hex="0035"/>
  <note>
five
</note>
  <outline>
    <contour>
      <point x="308.0" y="425.0" type="curve" smooth="yes"/>
      <point x="241.86" y="425.0"/>
      <point x="196.96" y="407.3"/>
      <point x="160.0" y="381.25" type="curve"/>
      <point x="160.0" y="670.0" type="line"/>
      <point x="499.0" y="670.0" type="line"/>
      <point x="499.0" y="700.0" type="line"/>
      <point x="118.0" y="700.0" type="line"/>
      <point x="118.0" y="346.0" type="line"/>
      <point x="160.0" y="346.0" type="line"/>
      <point x="191.0" y="373.0"/>
      <point x="225.0" y="402.0"/>
      <point x="308.0" y="402.0" type="curve" smooth="yes"/>
      <point x="406.0" y="402.0"/>
      <point x="499.0" y="341.0"/>
      <point x="499.0" y="207.0" type="curve" smooth="yes"/>
      <point x="499.0" y="88.0"/>
      <point x="404.0" y="13.0"/>
      <point x="304.0" y="13.0" type="curve" smooth="yes"/>
      <point x="215.0" y="13.0"/>
      <point x="134.0" y="67.0"/>
      <point x="117.0" y="163.0" type="curve"/>
      <point x="76.0" y="163.0" type="line"/>
      <point x="95.0" y="53.0"/>
      <point x="194.0" y="-10.0"/>
      <point x="304.0" y="-10.0" type="curve" smooth="yes"/>
      <point x="425.0" y="-10.0"/>
      <point x="540.0" y="73.0"/>
      <point x="540.0" y="207.0" type="curve" smooth="yes"/>
      <point x="540.0" y="351.0"/>
      <point x="431.0" y="425.0"/>
    </contour>
  </outline>
</glyph>
<glyph name="six" format="2">
  <advance width="547.0"/>
  <unicode hex="0036"/>
  <note>
six
</note>
  <outline>
    <contour>
      <point x="271.99" y="415.0" type="curve" smooth="yes"/>
      <point x="232.38" y="415.0"/>
      <point x="194.14" y="406.77"/>
      <point x="160.55" y="391.08" type="curve"/>
      <point x="351.99" y="700.0" type="line"/>
      <point x="311.99" y="700.0" type="line"/>
      <point x="79.23" y="325.38" type="line" smooth="yes"/>
      <point x="57.35" y="290.17"/>
      <point x="40.99" y="251.47"/>
      <point x="40.99" y="203.0" type="curve" smooth="yes"/>
      <point x="40.99" y="69.0"/>
      <point x="150.99" y="-10.0"/>
      <point x="272.99" y="-10.0" type="curve" smooth="yes"/>
      <point x="394.99" y="-10.0"/>
      <point x="503.99" y="68.0"/>
      <point x="503.99" y="202.0" type="curve" smooth="yes"/>
      <point x="503.99" y="336.0"/>
      <point x="393.99" y="415.0"/>
    </contour>
    <contour>
      <point x="271.99" y="14.0" type="curve" smooth="yes"/>
      <point x="171.99" y="14.0"/>
      <point x="82.99" y="82.0"/>
      <point x="82.99" y="202.0" type="curve" smooth="yes"/>
      <point x="82.99" y="322.0"/>
      <point x="172.99" y="391.0"/>
      <point x="272.99" y="391.0" type="curve" smooth="yes"/>
      <point x="372.99" y="391.0"/>
      <point x="461.99" y="323.0"/>
      <point x="461.99" y="203.0" type="curve" smooth="yes"/>
      <point x="461.99" y="83.0"/>
      <point x="371.99" y="14.0"/>
    </contour>
  </outline>
</glyph>
<glyph name="seven" format="2">
  <advance width="504.0"/>
  <unicode hex="0037"/>
  <note>
seven
</note>
  <outline>
    <contour>
      <point x="398.43" y="670.0" type="line"/>
      <point x="73.0" y="0.0" type="line"/>
      <point x="119.0" y="0.0" type="line"/>
      <point x="448.0" y="700.0" type="line"/>
      <point x="61.0" y="700.0" type="line"/>
      <point x="61.0" y="670.0" type="line"/>
    </contour>
  </outline>
</glyph>
<glyph name="eight" format="2">
  <advance width="527.0"/>
  <unicode hex="0038"/>
  <note>
eight
</note>
  <outline>
    <contour>
      <point x="334.16" y="396.02" type="curve"/>
      <point x="398.4" y="416.88"/>
      <point x="451.0" y="467.02"/>
      <point x="451.0" y="544.0" type="curve" smooth="yes"/>
      <point x="451.0" y="648.0"/>
      <point x="354.0" y="705.0"/>
      <point x="263.0" y="705.0" type="curve" smooth="yes"/>
      <point x="172.0" y="705.0"/>
      <point x="76.0" y="649.0"/>
      <point x="76.0" y="545.0" type="curve" smooth="yes"/>
      <point x="76.0" y="468.27"/>
      <point x="128.79" y="417.67"/>
      <point x="193.02" y="396.41" type="curve"/>
      <point x="102.22" y="373.36"/>
      <point x="32.0" y="304.93"/>
      <point x="32.0" y="202.99" type="curve" smooth="yes"/>
      <point x="32.0" y="74.99"/>
      <point x="142.0" y="-0.01"/>
      <point x="264.0" y="-0.01" type="curve" smooth="yes"/>
      <point x="387.0" y="-0.01"/>
      <point x="495.0" y="73.99"/>
      <point x="495.0" y="201.99" type="curve" smooth="yes"/>
      <point x="495.0" y="303.52"/>
      <point x="424.7" y="372.46"/>
    </contour>
    <contour>
      <point x="119.0" y="543.99" type="curve" smooth="yes"/>
      <point x="119.0" y="643.99"/>
      <point x="201.0" y="684.99"/>
      <point x="264.0" y="684.99" type="curve" smooth="yes"/>
      <point x="327.0" y="684.99"/>
      <point x="408.0" y="645.99"/>
      <point x="408.0" y="544.99" type="curve" smooth="yes"/>
      <point x="408.0" y="461.99"/>
      <point x="342.0" y="404.99"/>
      <point x="263.0" y="404.99" type="curve" smooth="yes"/>
      <point x="184.0" y="404.99"/>
      <point x="119.0" y="461.99"/>
    </contour>
    <contour>
      <point x="263.0" y="19.99" type="curve" smooth="yes"/>
      <point x="164.0" y="19.99"/>
      <point x="74.0" y="84.99"/>
      <point x="74.0" y="201.99" type="curve" smooth="yes"/>
      <point x="74.0" y="317.99"/>
      <point x="164.0" y="384.99"/>
      <point x="264.0" y="384.99" type="curve" smooth="yes"/>
      <point x="364.0" y="384.99"/>
      <point x="453.0" y="318.99"/>
      <point x="453.0" y="202.99" type="curve" smooth="yes"/>
      <point x="453.0" y="85.99"/>
      <point x="362.0" y="19.99"/>
    </contour>
  </outline>
</glyph>
<glyph name="nine" format="2">
  <advance width="543"/>
  <unicode hex="0039"/>
  <outline>
    <contour>
      <point x="181" y="0" type="line"/>
      <point x="227" y="0.25" type="line"/>
      <point x="335.38" y="177.94"/>
      <point x="503" y="401.08"/>
      <point x="503" y="509" type="curve" smooth="yes"/>
      <point x="503" y="636"/>
      <point x="393" y="712"/>
      <point x="271" y="712" type="curve" smooth="yes"/>
      <point x="149" y="712"/>
      <point x="40" y="637"/>
      <point x="40" y="510" type="curve" smooth="yes"/>
      <point x="40" y="382"/>
      <point x="150" y="307"/>
      <point x="272" y="307" type="curve" smooth="yes"/>
      <point x="332.21" y="307"/>
      <point x="378" y="328"/>
      <point x="401" y="345" type="curve"/>
    </contour>
    <contour>
      <point x="269" y="335" type="curve" smooth="yes"/>
      <point x="171" y="335"/>
      <point x="82" y="392.87"/>
      <point x="82" y="509" type="curve" smooth="yes"/>
      <point x="82" y="625"/>
      <point x="172" y="684"/>
      <point x="272" y="684" type="curve" smooth="yes"/>
      <point x="372" y="684"/>
      <point x="461" y="626"/>
      <point x="461" y="510" type="curve" smooth="yes"/>
      <point x="461" y="392.12"/>
      <point x="369" y="335"/>
    </contour>
  </outline>
</glyph>
<glyph name="colon" format="2">
  <advance width="270"/>
  <unicode hex="003A"/>
  <outline>
    <contour>
      <point x="100.8" y="-1" type="line"/>
      <point x="169.35" y="-1" type="line"/>
      <point x="169.35" y="67.54" type="line"/>
      <point x="100.8" y="67.54" type="line"/>
    </contour>
    <contour>
      <point x="101" y="398" type="line"/>
      <point x="169" y="398" type="line"/>
      <point x="169" y="466" type="line"/>
      <point x="101" y="466" type="line"/>
    </contour>
  </outline>
</glyph>
<glyph name="semicolon" format="2">
  <advance width="385.0"/>
  <unicode hex="003B"/>
  <note>
semicolon
</note>
  <outline>
    <contour>
      <point x="126.0" y="386.0" type="line"/>
      <point x="194.0" y="386.0" type="line"/>
      <point x="194.0" y="454.0" type="line"/>
      <point x="126.0" y="454.0" type="line"/>
    </contour>
    <contour>
      <point x="174.0" y="-7.0" type="curve" smooth="yes"/>
      <point x="174.0" y="70.0" type="line"/>
      <point x="106.0" y="70.0" type="line"/>
      <point x="106.0" y="2.0" type="line"/>
      <point x="154.0" y="2.0" type="line"/>
      <point x="154.0" y="-7.0" type="line" smooth="yes"/>
      <point x="154.0" y="-31.0"/>
      <point x="153.0" y="-64.0"/>
      <point x="114.0" y="-98.0" type="curve"/>
      <point x="114.0" y="-129.0" type="line"/>
      <point x="160.0" y="-92.0"/>
      <point x="174.0" y="-44.0"/>
    </contour>
  </outline>
</glyph>
<glyph name="less" format="2">
  <advance width="600.0"/>
  <unicode hex="003C"/>
  <note>
less
</note>
  <outline>
    <contour>
      <point x="542.0" y="28.0" type="line"/>
      <point x="542.0" y="76.0" type="line"/>
      <point x="123.98" y="287.0" type="line"/>
      <point x="542.0" y="498.0" type="line"/>
      <point x="542.0" y="546.0" type="line"/>
      <point x="45.84" y="288.0" type="line"/>
      <point x="41.0" y="288.0" type="line"/>
      <point x="43.42" y="286.74" type="line"/>
      <point x="42.0" y="286.0" type="line"/>
      <point x="44.85" y="286.0" type="line"/>
    </contour>
  </outline>
</glyph>
<glyph name="equal" format="2">
  <advance width="600.0"/>
  <unicode hex="003D"/>
  <note>
equal
</note>
  <outline>
    <contour>
      <point x="48.0" y="387.0" type="line"/>
      <point x="48.0" y="354.0" type="line"/>
      <point x="549.0" y="354.0" type="line"/>
      <point x="549.0" y="387.0" type="line"/>
    </contour>
    <contour>
      <point x="48.0" y="176.0" type="line"/>
      <point x="48.0" y="143.0" type="line"/>
      <point x="549.0" y="143.0" type="line"/>
      <point x="549.0" y="176.0" type="line"/>
    </contour>
  </outline>
</glyph>
<glyph name="greater" format="2">
  <advance width="600"/>
  <unicode hex="003E"/>
  <outline>
    <contour>
      <point x="60" y="28" type="line"/>
      <point x="558.57" y="286.74" type="line"/>
      <point x="60" y="546" type="line"/>
      <point x="60" y="498" type="line"/>
      <point x="478.02" y="287" type="line"/>
      <point x="60" y="76" type="line"/>
    </contour>
  </outline>
</glyph>
<glyph name="question" format="2">
  <advance width="449"/>
  <unicode hex="003F"/>
  <outline>
    <contour>
      <point x="258" y="176" type="curve" smooth="yes"/>
      <point x="320" y="176"/>
      <point x="369" y="206"/>
      <point x="392" y="247" type="curve"/>
      <point x="354" y="261" type="line"/>
      <point x="330" y="229"/>
      <point x="308" y="204"/>
      <point x="258" y="204" type="curve" smooth="yes"/>
      <point x="207" y="204"/>
      <point x="172" y="231"/>
      <point x="172" y="287" type="curve" smooth="yes"/>
      <point x="172" y="421"/>
      <point x="429" y="427"/>
      <point x="429" y="590" type="curve" smooth="yes"/>
      <point x="429" y="659"/>
      <point x="376" y="719"/>
      <point x="258" y="719" type="curve" smooth="yes"/>
      <point x="173" y="719"/>
      <point x="100" y="667"/>
      <point x="60" y="595" type="curve"/>
      <point x="99" y="578" type="line"/>
      <point x="139" y="648"/>
      <point x="179" y="691"/>
      <point x="258" y="691" type="curve" smooth="yes"/>
      <point x="328" y="691"/>
      <point x="389" y="662"/>
      <point x="389" y="588" type="curve" smooth="yes"/>
      <point x="389" y="447"/>
      <point x="132" y="438"/>
      <point x="132" y="287" type="curve" smooth="yes"/>
      <point x="132" y="214"/>
      <point x="186" y="176"/>
    </contour>
    <component base="period" xOffset="106"/>
  </outline>
</glyph>
<glyph name="at" format="2">
  <advance width="968.0"/>
  <unicode hex="0040"/>
  <note>
at
</note>
  <outline>
    <contour>
      <point x="483.99" y="708.99" type="curve" smooth="yes"/>
      <point x="203.0" y="709.0"/>
      <point x="19.0" y="497.0"/>
      <point x="19.0" y="233.0" type="curve" smooth="yes"/>
      <point x="19.0" y="-28.0"/>
      <point x="204.0" y="-238.0"/>
      <point x="484.0" y="-238.0" type="curve" smooth="yes"/>
      <point x="593.0" y="-238.0"/>
      <point x="685.0" y="-214.0"/>
      <point x="758.0" y="-165.0" type="curve"/>
      <point x="725.0" y="-134.0" type="line"/>
      <point x="659.0" y="-178.0"/>
      <point x="574.0" y="-197.0"/>
      <point x="484.0" y="-197.0" type="curve" smooth="yes"/>
      <point x="238.0" y="-197.0"/>
      <point x="67.0" y="-13.0"/>
      <point x="67.0" y="233.0" type="curve" smooth="yes"/>
      <point x="67.0" y="481.0"/>
      <point x="239.0" y="669.0"/>
      <point x="484.0" y="669.0" type="curve" smooth="yes"/>
      <point x="730.0" y="669.0"/>
      <point x="901.0" y="481.0"/>
      <point x="901.0" y="233.0" type="curve" smooth="yes"/>
      <point x="901.0" y="81.0"/>
      <point x="843.0" y="33.0"/>
      <point x="781.0" y="33.0" type="curve" smooth="yes"/>
      <point x="720.0" y="33.0"/>
      <point x="685.0" y="75.0"/>
      <point x="685.0" y="123.0" type="curve" smooth="yes"/>
      <point x="685.0" y="312.0" type="line" smooth="yes"/>
      <point x="685.0" y="396.0"/>
      <point x="668.0" y="501.0"/>
      <point x="492.0" y="501.0" type="curve" smooth="yes"/>
      <point x="393.0" y="501.0"/>
      <point x="314.0" y="448.0"/>
      <point x="303.0" y="388.0" type="curve"/>
      <point x="363.0" y="387.0" type="line"/>
      <point x="375.0" y="430.0"/>
      <point x="411.0" y="479.0"/>
      <point x="492.0" y="479.0" type="curve" smooth="yes"/>
      <point x="602.47" y="479.0"/>
      <point x="633.5" y="411.12"/>
      <point x="640.95" y="344.09" type="curve"/>
      <point x="629.86" y="293.94"/>
      <point x="551.09" y="280.32"/>
      <point x="462.99" y="271.0" type="curve" smooth="yes"/>
      <point x="305.99" y="252.0"/>
      <point x="258.99" y="184.0"/>
      <point x="258.99" y="119.0" type="curve" smooth="yes"/>
      <point x="258.99" y="38.0"/>
      <point x="334.99" y="-16.0"/>
      <point x="452.99" y="-16.0" type="curve" smooth="yes"/>
      <point x="547.69" y="-16.0"/>
      <point x="614.26" y="40.24"/>
      <point x="644.02" y="106.64" type="curve"/>
      <point x="651.24" y="46.72"/>
      <point x="696.34" y="-0.01"/>
      <point x="773.99" y="-0.01" type="curve" smooth="yes"/>
      <point x="890.99" y="-0.01"/>
      <point x="948.99" y="92.99"/>
      <point x="948.99" y="232.99" type="curve" smooth="yes"/>
      <point x="948.99" y="496.99"/>
      <point x="764.99" y="708.99"/>
    </contour>
    <contour>
      <point x="452.98" y="2.99" type="curve" smooth="yes"/>
      <point x="338.99" y="2.99"/>
      <point x="307.99" y="73.99"/>
      <point x="307.99" y="122.99" type="curve" smooth="yes"/>
      <point x="307.99" y="199.99"/>
      <point x="378.99" y="244.99"/>
      <point x="459.99" y="251.99" type="curve" smooth="yes"/>
      <point x="544.25" y="261.43"/>
      <point x="609.43" y="277.69"/>
      <point x="642.96" y="310.56" type="curve"/>
      <point x="642.97" y="310.04"/>
      <point x="642.98" y="309.51"/>
      <point x="642.99" y="308.99" type="curve" smooth="yes"/>
      <point x="642.99" y="144.14" type="line"/>
      <point x="620.37" y="47.37"/>
      <point x="525.58" y="2.99"/>
    </contour>
  </outline>
</glyph>
<glyph name="A" format="2">
  <advance width="678"/>
  <unicode hex="0041"/>
  <anchor x="329" y="0" name="bottom"/>
  <anchor x="591" y="0" name="ogonek"/>
  <anchor x="329" y="700" name="top"/>
  <outline>
    <contour>
      <point x="20" y="0" type="line"/>
      <point x="67" y="0" type="line"/>
      <point x="172" y="261" type="line"/>
      <point x="130" y="219" type="line"/>
      <point x="528" y="219" type="line"/>
      <point x="486" y="261" type="line"/>
      <point x="591" y="0" type="line"/>
      <point x="638" y="0" type="line"/>
      <point x="354" y="700" type="line"/>
      <point x="304" y="700" type="line"/>
    </contour>
    <contour>
      <point x="149" y="204" type="line"/>
      <point x="339" y="674" type="line"/>
      <point x="319" y="674" type="line"/>
      <point x="509" y="204" type="line"/>
      <point x="517" y="249" type="line"/>
      <point x="141" y="249" type="line"/>
    </contour>
  </outline>
</glyph>
<glyph name="B" format="2">
  <advance width="599"/>
  <unicode hex="0042"/>
  <outline>
    <contour>
      <point x="55.99" y="-0.01" type="line"/>
      <point x="292.99" y="-0.01" type="line" smooth="yes"/>
      <point x="446.99" y="-0.01"/>
      <point x="551.99" y="65.99"/>
      <point x="551.99" y="207.99" type="curve" smooth="yes"/>
      <point x="551.99" y="341.98"/>
      <point x="464.32" y="408.09"/>
      <point x="310.04" y="411.82" type="curve"/>
      <point x="377.31" y="428.76"/>
      <point x="423.99" y="469.91"/>
      <point x="423.99" y="552.99" type="curve" smooth="yes"/>
      <point x="423.99" y="664.99"/>
      <point x="338.99" y="699.99"/>
      <point x="229.99" y="699.99" type="curve" smooth="yes"/>
      <point x="55.99" y="699.99" type="line"/>
    </contour>
    <contour>
      <point x="98.99" y="30.99" type="line"/>
      <point x="98.99" y="390.99" type="line"/>
      <point x="287.99" y="390.99" type="line" smooth="yes"/>
      <point x="411.99" y="390.99"/>
      <point x="507.99" y="334.99"/>
      <point x="507.99" y="207.99" type="curve" smooth="yes"/>
      <point x="507.99" y="84.99"/>
      <point x="415.99" y="30.99"/>
      <point x="282.99" y="30.99" type="curve" smooth="yes"/>
    </contour>
    <contour>
      <point x="98.99" y="411.99" type="line"/>
      <point x="98.99" y="668.99" type="line"/>
      <point x="229.99" y="668.99" type="line" smooth="yes"/>
      <point x="325.99" y="668.99"/>
      <point x="381.99" y="617.99"/>
      <point x="381.99" y="541.99" type="curve" smooth="yes"/>
      <point x="381.99" y="466.99"/>
      <point x="327.99" y="411.99"/>
      <point x="225.99" y="411.99" type="curve" smooth="yes"/>
    </contour>
  </outline>
</glyph>
<glyph name="C" format="2">
  <advance width="693"/>
  <unicode hex="0043"/>
  <anchor x="383" y="0" name="bottom"/>
  <anchor x="383" y="700" name="top"/>
  <outline>
    <contour>
      <point x="383" y="-5" type="curve" smooth="yes"/>
      <point x="497" y="-5"/>
      <point x="587" y="36"/>
      <point x="648" y="107" type="curve"/>
      <point x="606" y="127" type="line"/>
      <point x="552" y="64"/>
      <point x="468" y="26"/>
      <point x="383" y="26" type="curve" smooth="yes"/>
      <point x="210" y="26"/>
      <point x="88" y="164"/>
      <point x="88" y="348" type="curve" smooth="yes"/>
      <point x="88" y="533"/>
      <point x="211" y="674"/>
      <point x="383" y="674" type="curve" smooth="yes"/>
      <point x="470" y="674"/>
      <point x="556" y="634"/>
      <point x="610" y="567" type="curve"/>
      <point x="651" y="588" type="line"/>
      <point x="590" y="662"/>
      <point x="498" y="705"/>
      <point x="383" y="705" type="curve" smooth="yes"/>
      <point x="172" y="705"/>
      <point x="34" y="546"/>
      <point x="34" y="348" type="curve" smooth="yes"/>
      <point x="34" y="152"/>
      <point x="173" y="-5"/>
    </contour>
  </outline>
</glyph>
<glyph name="D" format="2">
  <advance width="636"/>
  <unicode hex="0044"/>
  <anchor x="313" y="0" name="bottom"/>
  <anchor x="313" y="700" name="top"/>
  <outline>
    <contour>
      <point x="56" y="0" type="line"/>
      <point x="235" y="0" type="line" smooth="yes"/>
      <point x="444" y="0"/>
      <point x="601" y="104"/>
      <point x="601" y="351" type="curve" smooth="yes"/>
      <point x="601" y="602"/>
      <point x="423" y="700"/>
      <point x="217" y="700" type="curve" smooth="yes"/>
      <point x="56" y="700" type="line"/>
    </contour>
    <contour>
      <point x="98" y="41" type="line"/>
      <point x="98" y="658.06" type="line"/>
      <point x="217" y="659" type="line" smooth="yes"/>
      <point x="401" y="660"/>
      <point x="553" y="585"/>
      <point x="553" y="351" type="curve" smooth="yes"/>
      <point x="553" y="125"/>
      <point x="425" y="41"/>
      <point x="235" y="41" type="curve" smooth="yes"/>
    </contour>
  </outline>
</glyph>
<glyph name="E" format="2">
  <advance width="633"/>
  <unicode hex="0045"/>
  <anchor x="333" y="0" name="bottom"/>
  <anchor x="572" y="0" name="ogonek"/>
  <anchor x="333" y="700" name="top"/>
  <outline>
    <contour>
      <point x="59" y="0" type="line"/>
      <point x="586" y="0" type="line"/>
      <point x="586" y="30" type="line"/>
      <point x="101" y="30" type="line"/>
      <point x="101" y="338" type="line"/>
      <point x="564" y="338" type="line"/>
      <point x="564" y="370" type="line"/>
      <point x="101" y="370" type="line"/>
      <point x="101" y="669" type="line"/>
      <point x="575" y="669" type="line"/>
      <point x="575" y="700" type="line"/>
      <point x="59" y="700" type="line"/>
    </contour>
  </outline>
</glyph>
<glyph name="F" format="2">
  <advance width="610.0"/>
  <unicode hex="0046"/>
  <note>
F
</note>
  <outline>
    <contour>
      <point x="564.0" y="338.0" type="line"/>
      <point x="564.0" y="370.0" type="line"/>
      <point x="101.0" y="370.0" type="line"/>
      <point x="101.0" y="669.0" type="line"/>
      <point x="575.0" y="669.0" type="line"/>
      <point x="575.0" y="700.0" type="line"/>
      <point x="59.0" y="700.0" type="line"/>
      <point x="59.0" y="0.0" type="line"/>
      <point x="101.0" y="0.0" type="line"/>
      <point x="101.0" y="338.0" type="line"/>
    </contour>
  </outline>
</glyph>
<glyph name="G" format="2">
  <advance width="737.0"/>
  <unicode hex="0047"/>
  <note>
G
</note>
  <outline>
    <contour>
      <point x="661.0" y="247.9" type="curve"/>
      <point x="661.0" y="0.0" type="line"/>
      <point x="692.0" y="0.0" type="line"/>
      <point x="692.0" y="370.0" type="line"/>
      <point x="407.0" y="370.0" type="line"/>
      <point x="407.0" y="339.0" type="line"/>
      <point x="650.0" y="339.0" type="line"/>
      <point x="650.0" y="296.0" type="line" smooth="yes"/>
      <point x="650.0" y="190.0"/>
      <point x="578.0" y="26.0"/>
      <point x="383.0" y="26.0" type="curve" smooth="yes"/>
      <point x="212.0" y="26.0"/>
      <point x="86.0" y="166.0"/>
      <point x="86.0" y="348.0" type="curve" smooth="yes"/>
      <point x="86.0" y="534.0"/>
      <point x="213.0" y="674.0"/>
      <point x="384.0" y="674.0" type="curve" smooth="yes"/>
      <point x="472.0" y="674.0"/>
      <point x="554.0" y="634.0"/>
      <point x="608.0" y="567.0" type="curve"/>
      <point x="649.0" y="588.0" type="line"/>
      <point x="588.0" y="662.0"/>
      <point x="499.0" y="705.0"/>
      <point x="384.0" y="705.0" type="curve" smooth="yes"/>
      <point x="173.0" y="705.0"/>
      <point x="32.0" y="546.0"/>
      <point x="32.0" y="348.0" type="curve" smooth="yes"/>
      <point x="32.0" y="148.51"/>
      <point x="175.12" y="-5.03"/>
      <point x="383.33" y="-5.03" type="curve" smooth="yes"/>
      <point x="549.52" y="-5.03"/>
      <point x="641.14" y="97.66"/>
    </contour>
  </outline>
</glyph>
<glyph name="H" format="2">
  <advance width="701.0"/>
  <unicode hex="0048"/>
  <note>
H
</note>
  <outline>
    <contour>
      <point x="603.0" y="348.0" type="line"/>
      <point x="603.0" y="0.0" type="line"/>
      <point x="645.0" y="0.0" type="line"/>
      <point x="645.0" y="700.0" type="line"/>
      <point x="603.0" y="700.0" type="line"/>
      <point x="603.0" y="390.0" type="line"/>
      <point x="98.0" y="390.0" type="line"/>
      <point x="98.0" y="700.0" type="line"/>
      <point x="56.0" y="700.0" type="line"/>
      <point x="56.0" y="0.0" type="line"/>
      <point x="98.0" y="0.0" type="line"/>
      <point x="98.0" y="348.0" type="line"/>
    </contour>
  </outline>
</glyph>
<glyph name="I" format="2">
  <advance width="208"/>
  <unicode hex="0049"/>
  <anchor x="103" y="0" name="bottom"/>
  <anchor x="83" y="0" name="ogonek"/>
  <anchor x="103" y="700" name="top"/>
  <outline>
    <contour>
      <point x="83" y="0" type="line"/>
      <point x="125" y="0" type="line"/>
      <point x="125" y="700" type="line"/>
      <point x="83" y="700" type="line"/>
    </contour>
  </outline>
</glyph>
<glyph name="J" format="2">
  <advance width="551.0"/>
  <unicode hex="004A"/>
  <note>
J
</note>
  <outline>
    <contour>
      <point x="488.0" y="195.0" type="curve"/>
      <point x="487.0" y="700.0" type="line"/>
      <point x="444.0" y="700.0" type="line"/>
      <point x="444.0" y="195.0" type="line" smooth="yes"/>
      <point x="444.0" y="75.0"/>
      <point x="348.0" y="15.0"/>
      <point x="250.0" y="15.0" type="curve" smooth="yes"/>
      <point x="157.0" y="15.0"/>
      <point x="110.0" y="56.0"/>
      <point x="85.0" y="99.0" type="curve"/>
      <point x="50.0" y="76.0" type="line"/>
      <point x="84.0" y="24.0"/>
      <point x="146.0" y="-12.0"/>
      <point x="250.0" y="-12.0" type="curve" smooth="yes"/>
      <point x="376.0" y="-12.0"/>
      <point x="488.0" y="59.0"/>
    </contour>
  </outline>
</glyph>
<glyph name="K" format="2">
  <advance width="587"/>
  <unicode hex="004B"/>
  <anchor x="279" y="0" name="bottom"/>
  <anchor x="279" y="700" name="top"/>
  <outline>
    <contour>
      <point x="56" y="0" type="line"/>
      <point x="99" y="0" type="line"/>
      <point x="99" y="259.48" type="line"/>
      <point x="235.26" y="408.8" type="line"/>
      <point x="502" y="0" type="line"/>
      <point x="552" y="0" type="line"/>
      <point x="265" y="441.38" type="line"/>
      <point x="501" y="700" type="line"/>
      <point x="455" y="700" type="line"/>
      <point x="99" y="310.62" type="line"/>
      <point x="99" y="700" type="line"/>
      <point x="56" y="700" type="line"/>
    </contour>
  </outline>
</glyph>
<glyph name="L" format="2">
  <advance width="577.0"/>
  <unicode hex="004C"/>
  <note>
L
</note>
  <outline>
    <contour>
      <point x="56.0" y="700.0" type="line"/>
      <point x="56.0" y="0.0" type="line"/>
      <point x="535.0" y="0.0" type="line"/>
      <point x="535.0" y="30.0" type="line"/>
      <point x="98.0" y="30.0" type="line"/>
      <point x="98.0" y="700.0" type="line"/>
    </contour>
  </outline>
</glyph>
<glyph name="M" format="2">
  <advance width="793"/>
  <unicode hex="004D"/>
  <anchor x="397" y="0" name="bottom"/>
  <anchor x="397" y="700" name="top"/>
  <outline>
    <contour>
      <point x="56" y="0" type="line"/>
      <point x="98" y="0" type="line"/>
      <point x="98" y="616.91" type="line"/>
      <point x="371" y="0" type="line"/>
      <point x="423" y="0" type="line"/>
      <point x="695" y="616.65" type="line"/>
      <point x="695" y="0" type="line"/>
      <point x="737" y="0" type="line"/>
      <point x="737" y="700" type="line"/>
      <point x="680" y="700" type="line"/>
      <point x="396.94" y="41.72" type="line"/>
      <point x="112" y="700" type="line"/>
      <point x="56" y="700" type="line"/>
    </contour>
  </outline>
</glyph>
<glyph name="N" format="2">
  <advance width="599.0"/>
  <unicode hex="004E"/>
  <note>
N
</note>
  <outline>
    <contour>
      <point x="99.0" y="624.4" type="line"/>
      <point x="498.0" y="0.0" type="line"/>
      <point x="543.0" y="0.0" type="line"/>
      <point x="543.0" y="700.0" type="line"/>
      <point x="500.0" y="700.0" type="line"/>
      <point x="500.0" y="69.84" type="line"/>
      <point x="100.0" y="700.0" type="line"/>
      <point x="99.0" y="699.68" type="line"/>
      <point x="99.0" y="700.0" type="line"/>
      <point x="56.0" y="700.0" type="line"/>
      <point x="56.0" y="0.0" type="line"/>
      <point x="99.0" y="0.0" type="line"/>
    </contour>
  </outline>
</glyph>
<glyph name="O" format="2">
  <advance width="758"/>
  <unicode hex="004F"/>
  <anchor x="414" y="0" name="bottom"/>
  <anchor x="380" y="0" name="ogonek"/>
  <anchor x="414" y="700" name="top"/>
  <outline>
    <contour>
      <point x="379" y="-5" type="curve" smooth="yes"/>
      <point x="590" y="-5"/>
      <point x="728" y="151"/>
      <point x="728" y="348" type="curve" smooth="yes"/>
      <point x="728" y="546"/>
      <point x="590" y="705"/>
      <point x="379" y="705" type="curve" smooth="yes"/>
      <point x="168" y="705"/>
      <point x="30" y="546"/>
      <point x="30" y="348" type="curve" smooth="yes"/>
      <point x="30" y="152"/>
      <point x="169" y="-5"/>
    </contour>
    <contour>
      <point x="379" y="26" type="curve" smooth="yes"/>
      <point x="195" y="26"/>
      <point x="73" y="164"/>
      <point x="73" y="348" type="curve" smooth="yes"/>
      <point x="73" y="533"/>
      <point x="196" y="674"/>
      <point x="379" y="674" type="curve" smooth="yes"/>
      <point x="563" y="674"/>
      <point x="685" y="533"/>
      <point x="685" y="348" type="curve" smooth="yes"/>
      <point x="685" y="164"/>
      <point x="563" y="26"/>
    </contour>
  </outline>
</glyph>
<glyph name="P" format="2">
  <advance width="491.0"/>
  <unicode hex="0050"/>
  <note>
P
</note>
  <outline>
    <contour>
      <point x="243.0" y="700.0" type="curve" smooth="yes"/>
      <point x="56.0" y="700.0" type="line"/>
      <point x="56.0" y="0.0" type="line"/>
      <point x="98.0" y="0.0" type="line"/>
      <point x="98.0" y="340.0" type="line"/>
      <point x="237.0" y="340.0" type="line" smooth="yes"/>
      <point x="347.0" y="340.0"/>
      <point x="445.0" y="383.0"/>
      <point x="445.0" y="520.0" type="curve" smooth="yes"/>
      <point x="445.0" y="655.0"/>
      <point x="341.0" y="700.0"/>
    </contour>
    <contour>
      <point x="237.0" y="368.0" type="curve" smooth="yes"/>
      <point x="98.0" y="368.0" type="line"/>
      <point x="98.0" y="669.0" type="line"/>
      <point x="240.0" y="669.0" type="line" smooth="yes"/>
      <point x="333.0" y="669.0"/>
      <point x="403.0" y="621.0"/>
      <point x="403.0" y="520.0" type="curve" smooth="yes"/>
      <point x="403.0" y="420.0"/>
      <point x="336.0" y="368.0"/>
    </contour>
  </outline>
</glyph>
<glyph name="Q" format="2">
  <advance width="772"/>
  <unicode hex="0051"/>
  <outline>
    <contour>
      <point x="369" y="-5" type="curve" smooth="yes"/>
      <point x="455.31" y="-5"/>
      <point x="529.89" y="24.05"/>
      <point x="586.79" y="72.92" type="curve"/>
      <point x="665" y="0" type="line"/>
      <point x="714" y="0" type="line"/>
      <point x="610.32" y="95.31" type="line"/>
      <point x="670.91" y="159.1"/>
      <point x="706" y="248.3"/>
      <point x="706" y="348" type="curve" smooth="yes"/>
      <point x="706" y="546"/>
      <point x="568" y="705"/>
      <point x="369" y="705" type="curve" smooth="yes"/>
      <point x="169" y="705"/>
      <point x="31" y="546"/>
      <point x="31" y="348" type="curve" smooth="yes"/>
      <point x="31" y="152"/>
      <point x="170" y="-5"/>
    </contour>
    <contour>
      <point x="369" y="26" type="curve" smooth="yes"/>
      <point x="196" y="26"/>
      <point x="73" y="164"/>
      <point x="73" y="348" type="curve" smooth="yes"/>
      <point x="73" y="533"/>
      <point x="197" y="674"/>
      <point x="369" y="674" type="curve" smooth="yes"/>
      <point x="542" y="674"/>
      <point x="664" y="533"/>
      <point x="664" y="348" type="curve" smooth="yes"/>
      <point x="664" y="257.24"/>
      <point x="634.08" y="177.67"/>
      <point x="583.1" y="120.33" type="curve"/>
      <point x="429" y="262" type="line"/>
      <point x="384" y="262" type="line"/>
      <point x="560.4" y="97.52" type="line"/>
      <point x="510.11" y="52.41"/>
      <point x="444.24" y="26"/>
    </contour>
  </outline>
</glyph>
<glyph name="R" format="2">
  <advance width="570"/>
  <unicode hex="0052"/>
  <anchor x="278" y="0" name="bottom"/>
  <anchor x="248" y="700" name="top"/>
  <outline>
    <contour>
      <point x="56" y="0" type="line"/>
      <point x="99" y="0" type="line"/>
      <point x="99" y="389.07" type="line"/>
      <point x="233" y="390" type="line" smooth="yes"/>
      <point x="240" y="390"/>
      <point x="245.98" y="390.12"/>
      <point x="252.35" y="390.37" type="curve"/>
      <point x="510" y="0" type="line"/>
      <point x="560" y="0" type="line"/>
      <point x="300.64" y="395.34" type="line"/>
      <point x="378.69" y="409.17"/>
      <point x="435" y="452.31"/>
      <point x="435" y="553" type="curve" smooth="yes"/>
      <point x="435" y="665"/>
      <point x="350" y="700"/>
      <point x="241" y="700" type="curve" smooth="yes"/>
      <point x="56" y="700" type="line"/>
    </contour>
    <contour>
      <point x="98.99" y="412" type="line"/>
      <point x="98.99" y="669" type="line"/>
      <point x="240.99" y="669" type="line"/>
      <point x="336.99" y="669"/>
      <point x="392.99" y="620"/>
      <point x="392.99" y="542" type="curve" smooth="yes"/>
      <point x="392.99" y="465"/>
      <point x="338.99" y="412"/>
      <point x="236.99" y="412" type="curve" smooth="yes"/>
    </contour>
  </outline>
</glyph>
<glyph name="T" format="2">
  <advance width="667"/>
  <unicode hex="0054"/>
  <anchor x="333" y="0" name="bottom"/>
  <anchor x="334" y="700" name="top"/>
  <outline>
    <contour>
      <point x="313" y="0" type="line"/>
      <point x="355" y="0" type="line"/>
      <point x="355" y="670" type="line"/>
      <point x="647" y="670" type="line"/>
      <point x="647" y="700" type="line"/>
      <point x="20" y="700" type="line"/>
      <point x="20" y="670" type="line"/>
      <point x="313" y="670" type="line"/>
    </contour>
  </outline>
</glyph>
<glyph name="U" format="2">
  <advance width="622.0"/>
  <unicode hex="0055"/>
  <note>
U
</note>
  <outline>
    <contour>
      <point x="562.0" y="212.0" type="curve"/>
      <point x="561.0" y="700.0" type="line"/>
      <point x="519.0" y="700.0" type="line"/>
      <point x="519.0" y="212.0" type="line" smooth="yes"/>
      <point x="519.0" y="75.0"/>
      <point x="428.0" y="15.0"/>
      <point x="311.0" y="15.0" type="curve" smooth="yes"/>
      <point x="194.0" y="15.0"/>
      <point x="103.0" y="75.0"/>
      <point x="103.0" y="212.0" type="curve" smooth="yes"/>
      <point x="103.0" y="700.0" type="line"/>
      <point x="61.0" y="700.0" type="line"/>
      <point x="60.0" y="212.0" type="line" smooth="yes"/>
      <point x="60.0" y="58.0"/>
      <point x="162.0" y="-12.0"/>
      <point x="311.0" y="-12.0" type="curve" smooth="yes"/>
      <point x="460.0" y="-12.0"/>
      <point x="562.0" y="58.0"/>
    </contour>
  </outline>
</glyph>
<glyph name="V" format="2">
  <advance width="629.0"/>
  <unicode hex="0056"/>
  <note>
V
</note>
  <outline>
    <contour>
      <point x="44.0" y="700.0" type="line"/>
      <point x="283.0" y="0.0" type="line"/>
      <point x="345.0" y="0.0" type="line"/>
      <point x="585.0" y="700.0" type="line"/>
      <point x="547.0" y="700.0" type="line"/>
      <point x="314.01" y="20.46" type="line"/>
      <point x="82.0" y="700.0" type="line"/>
    </contour>
  </outline>
</glyph>
<glyph name="W" format="2">
  <advance width="924"/>
  <unicode hex="0057"/>
  <anchor x="457" y="0" name="bottom"/>
  <anchor x="462" y="700" name="top"/>
  <outline>
    <contour>
      <point x="239" y="0" type="line"/>
      <point x="281" y="0" type="line"/>
      <point x="481" y="700" type="line"/>
      <point x="443" y="700" type="line"/>
      <point x="257" y="47" type="line"/>
      <point x="263" y="47" type="line"/>
      <point x="78" y="700" type="line"/>
      <point x="40" y="700" type="line"/>
    </contour>
    <contour>
      <point x="685" y="0" type="line"/>
      <point x="884" y="700" type="line"/>
      <point x="846" y="700" type="line"/>
      <point x="661" y="47" type="line"/>
      <point x="667" y="47" type="line"/>
      <point x="481" y="700" type="line"/>
      <point x="443" y="700" type="line"/>
      <point x="643" y="0" type="line"/>
    </contour>
  </outline>
</glyph>
<glyph name="X" format="2">
  <advance width="753.0"/>
  <unicode hex="0058"/>
  <note>
X
</note>
  <outline>
    <contour>
      <point x="57.0" y="0.0" type="line"/>
      <point x="111.0" y="0.0" type="line"/>
      <point x="381.12" y="341.36" type="line"/>
      <point x="643.0" y="0.0" type="line"/>
      <point x="696.0" y="0.0" type="line"/>
      <point x="411.12" y="369.97" type="line"/>
      <point x="671.0" y="700.0" type="line"/>
      <point x="617.0" y="700.0" type="line"/>
      <point x="384.15" y="404.99" type="line"/>
      <point x="157.0" y="700.0" type="line"/>
      <point x="106.0" y="700.0" type="line"/>
      <point x="354.02" y="376.69" type="line"/>
    </contour>
  </outline>
</glyph>
<glyph name="Y" format="2">
  <advance width="573"/>
  <unicode hex="0059"/>
  <anchor x="287" y="0" name="bottom"/>
  <anchor x="287" y="700" name="top"/>
  <outline>
    <contour>
      <point x="265" y="0" type="line"/>
      <point x="307" y="0" type="line"/>
      <point x="307" y="309.73" type="line"/>
      <point x="563" y="700" type="line"/>
      <point x="517" y="700" type="line"/>
      <point x="286" y="337" type="line"/>
      <point x="56" y="700" type="line"/>
      <point x="10" y="700" type="line"/>
      <point x="265" y="309.82" type="line"/>
    </contour>
  </outline>
</glyph>
<glyph name="Z" format="2">
  <advance width="567"/>
  <unicode hex="005A"/>
  <anchor x="284" y="0" name="bottom"/>
  <anchor x="284" y="700" name="top"/>
  <outline>
    <contour>
      <point x="10" y="0" type="line"/>
      <point x="532" y="0" type="line"/>
      <point x="532" y="30" type="line"/>
      <point x="55" y="30" type="line"/>
      <point x="557" y="670" type="line"/>
      <point x="557" y="700" type="line"/>
      <point x="46" y="700" type="line"/>
      <point x="46" y="670" type="line"/>
      <point x="512" y="670" type="line"/>
      <point x="10" y="30" type="line"/>
    </contour>
  </outline>
</glyph>
<glyph name="bracketleft" format="2">
  <advance width="500"/>
  <unicode hex="005B"/>
  <outline>
    <contour>
      <point x="172" y="-165" type="line"/>
      <point x="378" y="-165" type="line"/>
      <point x="378" y="-120" type="line"/>
      <point x="222" y="-120" type="line"/>
      <point x="222" y="783" type="line"/>
      <point x="378" y="783" type="line"/>
      <point x="378" y="828" type="line"/>
      <point x="172" y="828" type="line"/>
    </contour>
  </outline>
</glyph>
<glyph name="backslash" format="2">
  <advance width="600.0"/>
  <unicode hex="005C"/>
  <note>
backslash
</note>
  <outline>
    <contour>
      <point x="149.0" y="732.0" type="line"/>
      <point x="403.0" y="-127.0" type="line"/>
      <point x="438.0" y="-127.0" type="line"/>
      <point x="184.0" y="732.0" type="line"/>
    </contour>
  </outline>
</glyph>
<glyph name="bracketright" format="2">
  <advance width="500"/>
  <unicode hex="005D"/>
  <outline>
    <contour>
      <point x="172" y="-165" type="line"/>
      <point x="378" y="-165" type="line"/>
      <point x="378" y="828" type="line"/>
      <point x="172" y="828" type="line"/>
      <point x="172" y="783" type="line"/>
      <point x="328" y="783" type="line"/>
      <point x="328" y="-120" type="line"/>
      <point x="172" y="-120" type="line"/>
    </contour>
  </outline>
</glyph>
<glyph name="asciicircum" format="2">
  <advance width="600"/>
  <unicode hex="005E"/>
  <outline>
    <contour>
      <point x="121" y="254" type="line"/>
      <point x="142" y="254" type="line"/>
      <point x="304" y="540.91" type="line"/>
      <point x="466" y="254" type="line"/>
      <point x="487" y="254" type="line"/>
      <point x="304" y="592" type="line"/>
    </contour>
  </outline>
</glyph>
<glyph name="underscore" format="2">
  <advance width="600.0"/>
  <unicode hex="005F"/>
  <note>
underscore
</note>
  <outline>
    <contour>
      <point x="579.0" y="-144.0" type="line"/>
      <point x="579.0" y="-100.0" type="line"/>
      <point x="15.0" y="-100.0" type="line"/>
      <point x="15.0" y="-144.0" type="line"/>
    </contour>
  </outline>
</glyph>
<glyph name="grave" format="2">
  <advance width="600.0"/>
  <unicode hex="0060"/>
  <note>
grave
</note>
  <outline>
    <contour>
      <point x="325.0" y="597.0" type="line"/>
      <point x="342.0" y="602.0" type="line"/>
      <point x="222.0" y="715.0" type="line"/>
      <point x="199.0" y="676.0" type="line"/>
    </contour>
  </outline>
</glyph>
<glyph name="a" format="2">
  <advance width="517"/>
  <unicode hex="0061"/>
  <anchor x="260" y="0" name="bottom"/>
  <anchor x="423" y="0" name="ogonek"/>
  <anchor x="260" y="500" name="top"/>
  <outline>
    <contour>
      <point x="224" y="-14" type="curve" smooth="yes"/>
      <point x="322.77" y="-14"/>
      <point x="395.53" y="48.9"/>
      <point x="422.99" y="128.14" type="curve"/>
      <point x="422.99" y="0" type="line"/>
      <point x="466.99" y="0" type="line"/>
      <point x="466.99" y="310" type="line" smooth="yes"/>
      <point x="466.99" y="399"/>
      <point x="448.99" y="511"/>
      <point x="265" y="511" type="curve" smooth="yes"/>
      <point x="171" y="511"/>
      <point x="93" y="465"/>
      <point x="72" y="410" type="curve" smooth="yes"/>
      <point x="70" y="404"/>
      <point x="68" y="399"/>
      <point x="67" y="393" type="curve"/>
      <point x="131" y="392" type="line"/>
      <point x="132" y="396"/>
      <point x="133" y="400"/>
      <point x="135" y="404" type="curve" smooth="yes"/>
      <point x="150" y="446"/>
      <point x="197" y="483"/>
      <point x="275" y="483" type="curve" smooth="yes"/>
      <point x="371" y="483"/>
      <point x="418" y="432"/>
      <point x="418" y="367" type="curve" smooth="yes"/>
      <point x="418" y="300"/>
      <point x="337" y="275"/>
      <point x="245" y="265" type="curve" smooth="yes"/>
      <point x="76" y="246"/>
      <point x="30" y="198"/>
      <point x="30" y="123" type="curve" smooth="yes"/>
      <point x="30" y="42"/>
      <point x="105" y="-14"/>
    </contour>
    <contour>
      <point x="224" y="12" type="curve" smooth="yes"/>
      <point x="109" y="12"/>
      <point x="79.99" y="78"/>
      <point x="79.99" y="129" type="curve" smooth="yes"/>
      <point x="79.99" y="194"/>
      <point x="127" y="223"/>
      <point x="242" y="238" type="curve" smooth="yes"/>
      <point x="335" y="250"/>
      <point x="391" y="271"/>
      <point x="423" y="310" type="curve"/>
      <point x="423" y="209" type="line" smooth="yes"/>
      <point x="423" y="117"/>
      <point x="351" y="12"/>
    </contour>
  </outline>
</glyph>
<glyph name="b" format="2">
  <advance width="583"/>
  <unicode hex="0062"/>
  <outline>
    <contour>
      <point x="51" y="0" type="line"/>
      <point x="95" y="0" type="line"/>
      <point x="95" y="118" type="line"/>
      <point x="79" y="252" type="line"/>
      <point x="95" y="398" type="line"/>
      <point x="95" y="700" type="line"/>
      <point x="50" y="700" type="line"/>
    </contour>
    <contour>
      <point x="304" y="-12" type="curve" smooth="yes"/>
      <point x="456" y="-12"/>
      <point x="553" y="100"/>
      <point x="553" y="252" type="curve" smooth="yes"/>
      <point x="553" y="403"/>
      <point x="456" y="513"/>
      <point x="304" y="513" type="curve" smooth="yes"/>
      <point x="149" y="513"/>
      <point x="78" y="370"/>
      <point x="78" y="252" type="curve" smooth="yes"/>
      <point x="78" y="135"/>
      <point x="144" y="-12"/>
    </contour>
    <contour>
      <point x="304" y="18" type="curve" smooth="yes"/>
      <point x="183" y="18"/>
      <point x="83" y="107"/>
      <point x="83" y="252" type="curve" smooth="yes"/>
      <point x="83" y="394"/>
      <point x="184" y="484"/>
      <point x="305" y="484" type="curve" smooth="yes"/>
      <point x="428" y="484"/>
      <point x="508" y="379"/>
      <point x="508" y="252" type="curve" smooth="yes"/>
      <point x="508" y="123"/>
      <point x="426" y="18"/>
    </contour>
  </outline>
</glyph>
<glyph name="c" format="2">
  <advance width="559"/>
  <unicode hex="0063"/>
  <anchor x="302" y="0" name="bottom"/>
  <anchor x="308" y="500" name="top"/>
  <outline>
    <contour>
      <point x="300" y="-14" type="curve" smooth="yes"/>
      <point x="413" y="-14"/>
      <point x="490" y="31"/>
      <point x="529" y="112" type="curve"/>
      <point x="489" y="128" type="line"/>
      <point x="459" y="68"/>
      <point x="405" y="14"/>
      <point x="300" y="14" type="curve" smooth="yes"/>
      <point x="187" y="14"/>
      <point x="83" y="91"/>
      <point x="83" y="244" type="curve" smooth="yes"/>
      <point x="83" y="392"/>
      <point x="167" y="485"/>
      <point x="308" y="485" type="curve" smooth="yes"/>
      <point x="392" y="485"/>
      <point x="448" y="450"/>
      <point x="486" y="387" type="curve"/>
      <point x="524" y="408" type="line"/>
      <point x="487" y="471"/>
      <point x="414" y="513"/>
      <point x="308" y="513" type="curve" smooth="yes"/>
      <point x="146" y="513"/>
      <point x="30" y="420"/>
      <point x="30" y="244" type="curve" smooth="yes"/>
      <point x="30" y="72"/>
      <point x="155" y="-14"/>
    </contour>
  </outline>
</glyph>
<glyph name="d" format="2">
  <advance width="586.0"/>
  <unicode hex="0064"/>
  <note>
d
</note>
  <outline>
    <contour>
      <point x="491.0" y="118.0" type="line"/>
      <point x="491.0" y="0.0" type="line"/>
      <point x="535.0" y="0.0" type="line"/>
      <point x="536.0" y="732.0" type="line"/>
      <point x="491.0" y="732.0" type="line"/>
      <point x="491.0" y="398.0" type="line"/>
      <point x="497.22" y="324.29" type="line"/>
      <point x="473.9" y="420.59"/>
      <point x="403.54" y="513.0"/>
      <point x="279.0" y="513.0" type="curve" smooth="yes"/>
      <point x="127.0" y="513.0"/>
      <point x="30.0" y="403.0"/>
      <point x="30.0" y="252.0" type="curve" smooth="yes"/>
      <point x="30.0" y="100.0"/>
      <point x="127.0" y="-12.0"/>
      <point x="279.0" y="-12.0" type="curve" smooth="yes"/>
      <point x="403.64" y="-12.0"/>
      <point x="474.02" y="81.2"/>
      <point x="497.28" y="178.86" type="curve"/>
    </contour>
    <contour>
      <point x="279.0" y="18.0" type="curve" smooth="yes"/>
      <point x="157.0" y="18.0"/>
      <point x="75.0" y="123.0"/>
      <point x="75.0" y="252.0" type="curve" smooth="yes"/>
      <point x="75.0" y="379.0"/>
      <point x="156.0" y="484.0"/>
      <point x="279.0" y="484.0" type="curve" smooth="yes"/>
      <point x="400.0" y="484.0"/>
      <point x="501.0" y="394.0"/>
      <point x="501.0" y="252.0" type="curve" smooth="yes"/>
      <point x="501.0" y="107.0"/>
      <point x="400.0" y="18.0"/>
    </contour>
  </outline>
</glyph>
<glyph name="e" format="2">
  <advance width="567.0"/>
  <unicode hex="0065"/>
  <note>
e
</note>
  <outline>
    <contour>
      <point x="300.0" y="4.0" type="curve" smooth="yes"/>
      <point x="188.14" y="4.0"/>
      <point x="85.11" y="89.24"/>
      <point x="83.03" y="251.0" type="curve"/>
      <point x="524.0" y="251.0" type="line"/>
      <point x="525.83" y="265.39"/>
      <point x="526.73" y="279.35"/>
      <point x="526.73" y="292.83" type="curve" smooth="yes"/>
      <point x="526.73" y="426.37"/>
      <point x="438.33" y="513.0"/>
      <point x="293.0" y="513.0" type="curve" smooth="yes"/>
      <point x="150.0" y="513.0"/>
      <point x="30.0" y="420.0"/>
      <point x="30.0" y="256.0" type="curve" smooth="yes"/>
      <point x="30.0" y="72.0"/>
      <point x="156.0" y="-14.0"/>
      <point x="300.0" y="-14.0" type="curve" smooth="yes"/>
      <point x="403.0" y="-14.0"/>
      <point x="477.0" y="19.0"/>
      <point x="525.0" y="78.0" type="curve"/>
      <point x="484.0" y="97.0" type="line"/>
      <point x="450.0" y="48.0"/>
      <point x="402.0" y="4.0"/>
    </contour>
    <contour>
      <point x="293.0" y="498.0" type="curve" smooth="yes"/>
      <point x="419.06" y="498.0"/>
      <point x="478.87" y="411.92"/>
      <point x="478.87" y="327.49" type="curve" smooth="yes"/>
      <point x="478.87" y="308.77"/>
      <point x="475.93" y="290.14"/>
      <point x="470.12" y="272.54" type="curve"/>
      <point x="83.4" y="272.54" type="line"/>
      <point x="89.68" y="399.63"/>
      <point x="168.36" y="498.0"/>
    </contour>
  </outline>
</glyph>
<glyph name="f" format="2">
  <advance width="367"/>
  <unicode hex="0066"/>
  <outline>
    <contour>
      <point x="114" y="1" type="line"/>
      <point x="158" y="1" type="line"/>
      <point x="158" y="466" type="line"/>
      <point x="346" y="466" type="line"/>
      <point x="346" y="501" type="line"/>
      <point x="228" y="501" type="line"/>
      <point x="123" y="523"/>
      <point x="94" y="575"/>
      <point x="94" y="621" type="curve" smooth="yes"/>
      <point x="94" y="690"/>
      <point x="151" y="728"/>
      <point x="214" y="728" type="curve" smooth="yes"/>
      <point x="271" y="728"/>
      <point x="311" y="695"/>
      <point x="331" y="663" type="curve"/>
      <point x="375" y="691" type="line"/>
      <point x="345" y="719"/>
      <point x="282" y="746"/>
      <point x="214" y="746" type="curve" smooth="yes"/>
      <point x="98" y="746"/>
      <point x="58" y="674"/>
      <point x="58" y="625" type="curve" smooth="yes"/>
      <point x="58" y="570"/>
      <point x="94" y="514"/>
      <point x="176" y="501" type="curve"/>
      <point x="9" y="501" type="line"/>
      <point x="9" y="466" type="line"/>
      <point x="115" y="466" type="line"/>
    </contour>
  </outline>
</glyph>
<glyph name="g" format="2">
  <advance width="586.0"/>
  <unicode hex="0067"/>
  <note>
g
</note>
  <outline>
    <contour>
      <point x="535.99" y="-1.0" type="curve"/>
      <point x="535.0" y="500.0" type="line"/>
      <point x="491.0" y="500.0" type="line"/>
      <point x="491.0" y="382.0" type="line"/>
      <point x="497.28" y="321.14" type="line"/>
      <point x="474.02" y="418.8"/>
      <point x="403.64" y="512.0"/>
      <point x="279.0" y="512.0" type="curve" smooth="yes"/>
      <point x="127.0" y="512.0"/>
      <point x="30.0" y="400.0"/>
      <point x="30.0" y="248.0" type="curve" smooth="yes"/>
      <point x="30.0" y="97.0"/>
      <point x="127.0" y="-14.0"/>
      <point x="279.0" y="-14.0" type="curve" smooth="yes"/>
      <point x="403.42" y="-14.0"/>
      <point x="473.77" y="78.24"/>
      <point x="497.15" y="174.95" type="curve"/>
      <point x="490.99" y="102.0" type="line"/>
      <point x="490.99" y="-1.0" type="line" smooth="yes"/>
      <point x="490.99" y="-153.0"/>
      <point x="398.99" y="-230.0"/>
      <point x="284.99" y="-230.0" type="curve" smooth="yes"/>
      <point x="176.99" y="-230.0"/>
      <point x="128.99" y="-177.0"/>
      <point x="103.99" y="-128.0" type="curve"/>
      <point x="59.99" y="-138.0" type="line"/>
      <point x="90.99" y="-207.0"/>
      <point x="156.99" y="-259.0"/>
      <point x="284.99" y="-259.0" type="curve" smooth="yes"/>
      <point x="427.99" y="-259.0"/>
      <point x="535.99" y="-175.0"/>
    </contour>
    <contour>
      <point x="278.99" y="16.0" type="curve" smooth="yes"/>
      <point x="155.99" y="16.0"/>
      <point x="74.99" y="121.0"/>
      <point x="74.99" y="248.0" type="curve" smooth="yes"/>
      <point x="74.99" y="377.0"/>
      <point x="156.99" y="481.0"/>
      <point x="278.99" y="481.0" type="curve" smooth="yes"/>
      <point x="399.99" y="481.0"/>
      <point x="500.99" y="393.0"/>
      <point x="500.99" y="248.0" type="curve" smooth="yes"/>
      <point x="500.99" y="105.0"/>
      <point x="399.99" y="16.0"/>
    </contour>
  </outline>
</glyph>
<glyph name="h" format="2">
  <advance width="572.0"/>
  <unicode hex="0068"/>
  <note>
h
</note>
  <outline>
    <contour>
      <point x="320.0" y="506.29" type="curve" smooth="yes"/>
      <point x="224.49" y="506.29"/>
      <point x="124.31" y="435.46"/>
      <point x="94.0" y="342.52" type="curve"/>
      <point x="94.0" y="700.0" type="line"/>
      <point x="50.0" y="700.0" type="line"/>
      <point x="50.0" y="0.0" type="line"/>
      <point x="94.0" y="0.0" type="line"/>
      <point x="94.0" y="277.0" type="line"/>
      <point x="111.0" y="420.0"/>
      <point x="218.0" y="481.29"/>
      <point x="307.0" y="481.29" type="curve" smooth="yes"/>
      <point x="432.0" y="481.29"/>
      <point x="477.0" y="398.0"/>
      <point x="477.0" y="304.0" type="curve" smooth="yes"/>
      <point x="477.0" y="1.0" type="line"/>
      <point x="521.0" y="1.0" type="line"/>
      <point x="521.0" y="304.0" type="line" smooth="yes"/>
      <point x="521.0" y="409.0"/>
      <point x="482.0" y="506.29"/>
    </contour>
  </outline>
</glyph>
<glyph name="k" format="2">
  <advance width="516.0"/>
  <unicode hex="006B"/>
  <note>
k
</note>
  <outline>
    <contour>
      <point x="50.0" y="0.0" type="line"/>
      <point x="94.0" y="0.0" type="line"/>
      <point x="94.0" y="180.21" type="line"/>
      <point x="225.05" y="315.83" type="line"/>
      <point x="434.0" y="0.0" type="line"/>
      <point x="486.0" y="0.0" type="line"/>
      <point x="256.43" y="348.31" type="line"/>
      <point x="403.0" y="500.0" type="line"/>
      <point x="358.0" y="500.0" type="line"/>
      <point x="94.0" y="219.09" type="line"/>
      <point x="94.0" y="700.0" type="line"/>
      <point x="50.0" y="700.0" type="line"/>
    </contour>
  </outline>
</glyph>
<glyph name="l" format="2">
  <advance width="204"/>
  <unicode hex="006C"/>
  <anchor x="102" y="0" name="bottom"/>
  <anchor x="102" y="700" name="top"/>
  <outline>
    <contour>
      <point x="80" y="0" type="line"/>
      <point x="124" y="0" type="line"/>
      <point x="124" y="700" type="line"/>
      <point x="80" y="700" type="line"/>
    </contour>
  </outline>
</glyph>
<glyph name="m" format="2">
  <advance width="976.0"/>
  <unicode hex="006D"/>
  <note>
m
</note>
  <outline>
    <contour>
      <point x="738.0" y="510.0" type="curve" smooth="yes"/>
      <point x="630.62" y="510.0"/>
      <point x="538.02" y="432.58"/>
      <point x="512.74" y="335.02" type="curve"/>
      <point x="504.89" y="428.04"/>
      <point x="458.23" y="510.0"/>
      <point x="315.0" y="510.0" type="curve" smooth="yes"/>
      <point x="219.77" y="510.0"/>
      <point x="127.55" y="444.67"/>
      <point x="94.0" y="357.63" type="curve"/>
      <point x="94.0" y="500.0" type="line"/>
      <point x="50.0" y="500.0" type="line"/>
      <point x="50.0" y="0.0" type="line"/>
      <point x="94.0" y="0.0" type="line"/>
      <point x="94.0" y="284.62" type="line"/>
      <point x="113.76" y="422.17"/>
      <point x="216.56" y="481.0"/>
      <point x="302.0" y="481.0" type="curve" smooth="yes"/>
      <point x="427.0" y="481.0"/>
      <point x="470.0" y="397.0"/>
      <point x="470.0" y="304.0" type="curve" smooth="yes"/>
      <point x="470.0" y="0.0" type="line"/>
      <point x="514.0" y="0.0" type="line"/>
      <point x="514.0" y="284.61" type="line"/>
      <point x="533.83" y="422.17"/>
      <point x="638.6" y="481.0"/>
      <point x="726.0" y="481.0" type="curve" smooth="yes"/>
      <point x="851.0" y="481.0"/>
      <point x="895.0" y="398.0"/>
      <point x="895.0" y="304.0" type="curve" smooth="yes"/>
      <point x="895.0" y="0.0" type="line"/>
      <point x="939.0" y="0.0" type="line"/>
      <point x="939.0" y="304.0" type="line" smooth="yes"/>
      <point x="939.0" y="409.0"/>
      <point x="900.0" y="510.0"/>
    </contour>
  </outline>
</glyph>
<glyph name="n" format="2">
  <advance width="571"/>
  <unicode hex="006E"/>
  <anchor x="290" y="0" name="bottom"/>
  <anchor x="280" y="500" name="top"/>
  <outline>
    <contour>
      <point x="320" y="507" type="curve" smooth="yes"/>
      <point x="224" y="507"/>
      <point x="124" y="456"/>
      <point x="94" y="343" type="curve"/>
      <point x="94" y="500" type="line"/>
      <point x="50" y="500" type="line"/>
      <point x="50" y="0" type="line"/>
      <point x="94" y="0" type="line"/>
      <point x="94" y="233" type="line" smooth="yes"/>
      <point x="94" y="422"/>
      <point x="223" y="472"/>
      <point x="312" y="472" type="curve" smooth="yes"/>
      <point x="437" y="472"/>
      <point x="477" y="398"/>
      <point x="477" y="304" type="curve" smooth="yes"/>
      <point x="477" y="0" type="line"/>
      <point x="521" y="0" type="line"/>
      <point x="521" y="304" type="line" smooth="yes"/>
      <point x="521" y="409"/>
      <point x="482" y="507"/>
    </contour>
  </outline>
</glyph>
<glyph name="o" format="2">
  <advance width="577"/>
  <unicode hex="006F"/>
  <anchor x="289" y="0" name="bottom"/>
  <anchor x="319" y="0" name="ogonek"/>
  <anchor x="289" y="500" name="top"/>
  <outline>
    <contour>
      <point x="289" y="-14" type="curve" smooth="yes"/>
      <point x="443" y="-14"/>
      <point x="547" y="98"/>
      <point x="547" y="247" type="curve" smooth="yes"/>
      <point x="547" y="397"/>
      <point x="442" y="512"/>
      <point x="289" y="512" type="curve" smooth="yes"/>
      <point x="135" y="512"/>
      <point x="30" y="397"/>
      <point x="30" y="247" type="curve" smooth="yes"/>
      <point x="30" y="98"/>
      <point x="134" y="-14"/>
    </contour>
    <contour>
      <point x="288" y="14" type="curve" smooth="yes"/>
      <point x="160" y="14"/>
      <point x="80" y="113"/>
      <point x="80" y="247" type="curve" smooth="yes"/>
      <point x="80" y="382"/>
      <point x="160" y="484"/>
      <point x="288" y="484" type="curve" smooth="yes"/>
      <point x="416" y="484"/>
      <point x="496" y="382"/>
      <point x="496" y="247" type="curve" smooth="yes"/>
      <point x="496" y="113"/>
      <point x="416" y="14"/>
    </contour>
  </outline>
</glyph>
<glyph name="p" format="2">
  <advance width="587.0"/>
  <unicode hex="0070"/>
  <note>
p
</note>
  <outline>
    <contour>
      <point x="308.0" y="512.01" type="curve" smooth="yes"/>
      <point x="179.85" y="512.0"/>
      <point x="109.06" y="413.48"/>
      <point x="87.87" y="312.89" type="curve"/>
      <point x="95.0" y="382.0" type="line"/>
      <point x="95.0" y="500.0" type="line"/>
      <point x="51.0" y="500.0" type="line"/>
      <point x="50.0" y="-200.0" type="line"/>
      <point x="95.0" y="-200.0" type="line"/>
      <point x="95.0" y="102.0" type="line"/>
      <point x="88.2" y="182.56" type="line"/>
      <point x="109.79" y="83.85"/>
      <point x="180.51" y="-12.99"/>
      <point x="308.0" y="-12.99" type="curve" smooth="yes"/>
      <point x="460.0" y="-12.99"/>
      <point x="557.0" y="97.01"/>
      <point x="557.0" y="248.01" type="curve" smooth="yes"/>
      <point x="557.0" y="400.01"/>
      <point x="460.0" y="512.01"/>
    </contour>
    <contour>
      <point x="308.0" y="16.01" type="curve" smooth="yes"/>
      <point x="187.0" y="16.01"/>
      <point x="86.0" y="106.01"/>
      <point x="86.0" y="248.01" type="curve" smooth="yes"/>
      <point x="86.0" y="393.01"/>
      <point x="187.0" y="482.01"/>
      <point x="308.0" y="482.01" type="curve" smooth="yes"/>
      <point x="430.0" y="482.01"/>
      <point x="512.0" y="377.01"/>
      <point x="512.0" y="248.01" type="curve" smooth="yes"/>
      <point x="512.0" y="121.01"/>
      <point x="431.0" y="16.01"/>
    </contour>
  </outline>
</glyph>
<glyph name="q" format="2">
  <advance width="583"/>
  <unicode hex="0071"/>
  <outline>
    <contour>
      <point x="532" y="500" type="line"/>
      <point x="488" y="500" type="line"/>
      <point x="488" y="382" type="line"/>
      <point x="504" y="248" type="line"/>
      <point x="488" y="102" type="line"/>
      <point x="488" y="-200" type="line"/>
      <point x="533" y="-200" type="line"/>
    </contour>
    <contour>
      <point x="279" y="512" type="curve" smooth="yes"/>
      <point x="127" y="512"/>
      <point x="30" y="400"/>
      <point x="30" y="248" type="curve" smooth="yes"/>
      <point x="30" y="97"/>
      <point x="127" y="-13"/>
      <point x="279" y="-13" type="curve" smooth="yes"/>
      <point x="434" y="-13"/>
      <point x="505" y="130"/>
      <point x="505" y="248" type="curve" smooth="yes"/>
      <point x="505" y="365"/>
      <point x="439" y="512"/>
    </contour>
    <contour>
      <point x="279" y="482" type="curve" smooth="yes"/>
      <point x="400" y="482"/>
      <point x="500" y="393"/>
      <point x="500" y="248" type="curve" smooth="yes"/>
      <point x="500" y="106"/>
      <point x="399" y="16"/>
      <point x="278" y="16" type="curve" smooth="yes"/>
      <point x="155" y="16"/>
      <point x="75" y="121"/>
      <point x="75" y="248" type="curve" smooth="yes"/>
      <point x="75" y="377"/>
      <point x="157" y="482"/>
    </contour>
  </outline>
</glyph>
<glyph name="r" format="2">
  <advance width="460.0"/>
  <unicode hex="0072"/>
  <note>
r
</note>
  <outline>
    <contour>
      <point x="300.19" y="506.29" type="curve" smooth="yes"/>
      <point x="208.18" y="506.29"/>
      <point x="116.91" y="429.25"/>
      <point x="94.0" y="331.26" type="curve"/>
      <point x="94.0" y="500.0" type="line"/>
      <point x="50.0" y="500.0" type="line"/>
      <point x="50.0" y="0.0" type="line"/>
      <point x="94.0" y="0.0" type="line"/>
      <point x="94.0" y="270.75" type="line"/>
      <point x="108.22" y="412.43"/>
      <point x="197.42" y="477.29"/>
      <point x="286.11" y="477.29" type="curve" smooth="yes"/>
      <point x="356.5" y="477.29"/>
      <point x="391.15" y="439.29"/>
      <point x="404.14" y="387.29" type="curve"/>
      <point x="453.95" y="387.29" type="line"/>
      <point x="445.29" y="455.29"/>
      <point x="409.55" y="506.29"/>
    </contour>
  </outline>
</glyph>
<glyph name="s" format="2">
  <advance width="453"/>
  <unicode hex="0073"/>
  <anchor x="243" y="0" name="bottom"/>
  <anchor x="228" y="500" name="top"/>
  <outline>
    <contour>
      <point x="227" y="513" type="curve" smooth="yes"/>
      <point x="128" y="513"/>
      <point x="55" y="458"/>
      <point x="55" y="385" type="curve" smooth="yes"/>
      <point x="55" y="200"/>
      <point x="383" y="306"/>
      <point x="383" y="125" type="curve" smooth="yes"/>
      <point x="383" y="80"/>
      <point x="347" y="14"/>
      <point x="239" y="14" type="curve" smooth="yes"/>
      <point x="158" y="14"/>
      <point x="90" y="52"/>
      <point x="60" y="128" type="curve"/>
      <point x="20" y="112" type="line"/>
      <point x="52" y="35"/>
      <point x="121" y="-14"/>
      <point x="239" y="-14" type="curve" smooth="yes"/>
      <point x="381" y="-14"/>
      <point x="433" y="55"/>
      <point x="433" y="121" type="curve" smooth="yes"/>
      <point x="433" y="331"/>
      <point x="105" y="226"/>
      <point x="105" y="385" type="curve" smooth="yes"/>
      <point x="105" y="446"/>
      <point x="148" y="485"/>
      <point x="227" y="485" type="curve" smooth="yes"/>
      <point x="304" y="485"/>
      <point x="362" y="442"/>
      <point x="390" y="372" type="curve"/>
      <point x="428" y="393" type="line"/>
      <point x="399" y="470"/>
      <point x="326" y="513"/>
    </contour>
  </outline>
</glyph>
<glyph name="t" format="2">
  <advance width="459"/>
  <unicode hex="0074"/>
  <anchor x="264" y="0" name="bottom"/>
  <anchor x="143" y="700" name="top"/>
  <outline>
    <contour>
      <point x="262" y="-12" type="curve" smooth="yes"/>
      <point x="328" y="-12"/>
      <point x="379" y="16"/>
      <point x="409" y="59" type="curve"/>
      <point x="374" y="76" type="line"/>
      <point x="353" y="35"/>
      <point x="308" y="16"/>
      <point x="262" y="16" type="curve" smooth="yes"/>
      <point x="192" y="16"/>
      <point x="165" y="59"/>
      <point x="165" y="144" type="curve" smooth="yes"/>
      <point x="165" y="467" type="line"/>
      <point x="342" y="467" type="line"/>
      <point x="342" y="502" type="line"/>
      <point x="165" y="502" type="line"/>
      <point x="165" y="700" type="line"/>
      <point x="121" y="700" type="line"/>
      <point x="121" y="502" type="line"/>
      <point x="16" y="502" type="line"/>
      <point x="16" y="467" type="line"/>
      <point x="121" y="467" type="line"/>
      <point x="121" y="141" type="line" smooth="yes"/>
      <point x="121" y="42"/>
      <point x="161" y="-12"/>
    </contour>
  </outline>
</glyph>
<glyph name="u" format="2">
  <advance width="570.0"/>
  <unicode hex="0075"/>
  <note>
u
</note>
  <outline>
    <contour>
      <point x="476.0" y="145.72" type="curve"/>
      <point x="476.0" y="1.0" type="line"/>
      <point x="520.0" y="1.0" type="line"/>
      <point x="520.0" y="500.0" type="line"/>
      <point x="476.0" y="500.0" type="line"/>
      <point x="476.0" y="224.0" type="line"/>
      <point x="461.0" y="55.0"/>
      <point x="350.0" y="18.0"/>
      <point x="264.0" y="18.0" type="curve" smooth="yes"/>
      <point x="139.0" y="18.0"/>
      <point x="94.0" y="103.0"/>
      <point x="94.0" y="197.0" type="curve" smooth="yes"/>
      <point x="94.0" y="500.0" type="line"/>
      <point x="50.0" y="500.0" type="line"/>
      <point x="50.0" y="197.0" type="line" smooth="yes"/>
      <point x="50.0" y="92.0"/>
      <point x="89.0" y="-7.0"/>
      <point x="251.0" y="-7.0" type="curve" smooth="yes"/>
      <point x="351.58" y="-7.0"/>
      <point x="449.52" y="44.97"/>
    </contour>
  </outline>
</glyph>
<glyph name="v" format="2">
  <advance width="500"/>
  <unicode hex="0076"/>
  <outline>
    <contour>
      <point x="222" y="0" type="line"/>
      <point x="258" y="0" type="line"/>
      <point x="469" y="500" type="line"/>
      <point x="429" y="500" type="line"/>
      <point x="233" y="35" type="line"/>
      <point x="247" y="35" type="line"/>
      <point x="51" y="500" type="line"/>
      <point x="11" y="500" type="line"/>
    </contour>
  </outline>
</glyph>
<glyph name="w" format="2">
  <advance width="646.0"/>
  <unicode hex="0077"/>
  <note>
w
</note>
  <outline>
    <contour>
      <point x="323.0" y="472.0" type="line"/>
      <point x="450.0" y="0.0" type="line"/>
      <point x="493.0" y="0.0" type="line"/>
      <point x="636.0" y="500.0" type="line"/>
      <point x="596.0" y="500.0" type="line"/>
      <point x="471.0" y="30.07" type="line"/>
      <point x="346.0" y="500.0" type="line"/>
      <point x="300.0" y="500.0" type="line"/>
      <point x="175.0" y="30.07" type="line"/>
      <point x="50.0" y="500.0" type="line"/>
      <point x="10.0" y="500.0" type="line"/>
      <point x="153.0" y="0.0" type="line"/>
      <point x="196.0" y="0.0" type="line"/>
    </contour>
  </outline>
</glyph>
<glyph name="x" format="2">
  <advance width="558.0"/>
  <unicode hex="0078"/>
  <note>
x
</note>
  <outline>
    <contour>
      <point x="275.98" y="213.98" type="line"/>
      <point x="466.0" y="0.0" type="line"/>
      <point x="522.0" y="0.0" type="line"/>
      <point x="306.78" y="241.27" type="line"/>
      <point x="538.0" y="500.0" type="line"/>
      <point x="481.0" y="500.0" type="line"/>
      <point x="276.24" y="275.51" type="line"/>
      <point x="76.0" y="500.0" type="line"/>
      <point x="22.0" y="500.0" type="line"/>
      <point x="245.64" y="248.15" type="line"/>
      <point x="20.0" y="0.0" type="line"/>
      <point x="77.0" y="0.0" type="line"/>
    </contour>
  </outline>
</glyph>
<glyph name="y" format="2">
  <advance width="532.0"/>
  <unicode hex="0079"/>
  <note>
y
</note>
  <outline>
    <contour>
      <point x="270.55" y="55.89" type="line"/>
      <point x="166.0" y="-200.0" type="line"/>
      <point x="210.0" y="-200.0" type="line"/>
      <point x="495.0" y="500.0" type="line"/>
      <point x="452.0" y="500.0" type="line"/>
      <point x="291.89" y="108.13" type="line"/>
      <point x="100.0" y="500.0" type="line"/>
      <point x="47.0" y="500.0" type="line"/>
    </contour>
  </outline>
</glyph>
<glyph name="z" format="2">
  <advance width="500"/>
  <unicode hex="007A"/>
  <anchor x="250" y="0" name="bottom"/>
  <anchor x="250" y="500" name="top"/>
  <outline>
    <contour>
      <point x="10" y="0" type="line"/>
      <point x="473" y="0" type="line"/>
      <point x="473" y="35" type="line"/>
      <point x="71" y="35" type="line"/>
      <point x="490" y="465" type="line"/>
      <point x="490" y="500" type="line"/>
      <point x="50" y="500" type="line"/>
      <point x="50" y="465" type="line"/>
      <point x="427" y="465" type="line"/>
      <point x="10" y="35" type="line"/>
    </contour>
  </outline>
</glyph>
<glyph name="braceleft" format="2">
  <advance width="425"/>
  <unicode hex="007B"/>
  <outline>
    <contour>
      <point x="317" y="789" type="line"/>
      <point x="310" y="795"/>
      <point x="293" y="800"/>
      <point x="280" y="800" type="curve" smooth="yes"/>
      <point x="207" y="800"/>
      <point x="167" y="744"/>
      <point x="167" y="657" type="curve" smooth="yes"/>
      <point x="167" y="562"/>
      <point x="243" y="499"/>
      <point x="243" y="413" type="curve" smooth="yes"/>
      <point x="243" y="362"/>
      <point x="188" y="335"/>
      <point x="137" y="334" type="curve"/>
      <point x="128" y="334" type="line"/>
      <point x="128" y="303" type="line"/>
      <point x="137" y="303" type="line"/>
      <point x="185" y="318" type="line"/>
      <point x="248" y="333"/>
      <point x="278" y="369"/>
      <point x="278" y="418" type="curve" smooth="yes"/>
      <point x="278" y="513"/>
      <point x="211" y="565"/>
      <point x="211" y="657" type="curve" smooth="yes"/>
      <point x="211" y="727"/>
      <point x="235" y="765"/>
      <point x="284" y="765" type="curve" smooth="yes"/>
      <point x="293" y="765"/>
      <point x="307" y="762"/>
      <point x="317" y="754" type="curve"/>
    </contour>
    <contour>
      <point x="317" y="-152" type="curve"/>
      <point x="317" y="-117" type="line"/>
      <point x="307" y="-125"/>
      <point x="293" y="-128"/>
      <point x="284" y="-128" type="curve" smooth="yes"/>
      <point x="235" y="-128"/>
      <point x="211" y="-90"/>
      <point x="211" y="-20" type="curve" smooth="yes"/>
      <point x="211" y="72"/>
      <point x="278" y="124"/>
      <point x="278" y="219" type="curve" smooth="yes"/>
      <point x="278" y="268"/>
      <point x="248" y="304"/>
      <point x="185" y="319" type="curve"/>
      <point x="137" y="334" type="line"/>
      <point x="128" y="334" type="line"/>
      <point x="128" y="303" type="line"/>
      <point x="137" y="303" type="line"/>
      <point x="188" y="302"/>
      <point x="243" y="275"/>
      <point x="243" y="224" type="curve" smooth="yes"/>
      <point x="243" y="138"/>
      <point x="167" y="75"/>
      <point x="167" y="-20" type="curve" smooth="yes"/>
      <point x="167" y="-107"/>
      <point x="207" y="-163"/>
      <point x="280" y="-163" type="curve" smooth="yes"/>
      <point x="293" y="-163"/>
      <point x="310" y="-158"/>
    </contour>
  </outline>
</glyph>
<glyph name="bar" format="2">
  <advance width="314.0"/>
  <unicode hex="007C"/>
  <note>
bar
</note>
  <outline>
    <contour>
      <point x="182.0" y="-165.0" type="line"/>
      <point x="182.0" y="828.0" type="line"/>
      <point x="133.0" y="828.0" type="line"/>
      <point x="133.0" y="-165.0" type="line"/>
    </contour>
  </outline>
</glyph>
<glyph name="braceright" format="2">
  <advance width="512.0"/>
  <unicode hex="007D"/>
  <note>
braceright
</note>
  <outline>
    <contour>
      <point x="192.0" y="800.0" type="curve"/>
      <point x="192.0" y="775.0" type="line"/>
      <point x="239.0" y="766.0"/>
      <point x="258.0" y="735.0"/>
      <point x="258.0" y="656.0" type="curve" smooth="yes"/>
      <point x="258.0" y="563.38"/>
      <point x="211.07" y="479.43"/>
      <point x="211.07" y="417.03" type="curve" smooth="yes"/>
      <point x="211.07" y="405.99"/>
      <point x="212.54" y="395.62"/>
      <point x="216.0" y="386.0" type="curve" smooth="yes"/>
      <point x="230.69" y="347.81"/>
      <point x="263.19" y="328.5"/>
      <point x="304.37" y="318.95" type="curve"/>
      <point x="263.5" y="309.37"/>
      <point x="230.64" y="290.06"/>
      <point x="216.0" y="252.0" type="curve" smooth="yes"/>
      <point x="212.31" y="241.54"/>
      <point x="210.75" y="230.44"/>
      <point x="210.75" y="218.75" type="curve" smooth="yes"/>
      <point x="210.75" y="154.44"/>
      <point x="258.01" y="72.24"/>
      <point x="258.01" y="-19.99" type="curve" smooth="yes"/>
      <point x="258.01" y="-89.98"/>
      <point x="243.96" y="-138.48"/>
      <point x="204.61" y="-138.48" type="curve" smooth="yes"/>
      <point x="200.67" y="-138.48"/>
      <point x="196.47" y="-137.99"/>
      <point x="192.0" y="-136.99" type="curve"/>
      <point x="192.0" y="-161.99" type="line"/>
      <point x="198.01" y="-162.89"/>
      <point x="203.77" y="-163.33"/>
      <point x="209.28" y="-163.33" type="curve" smooth="yes"/>
      <point x="271.61" y="-163.33"/>
      <point x="302.0" y="-107.28"/>
      <point x="302.0" y="-20.0" type="curve" smooth="yes"/>
      <point x="302.0" y="75.41"/>
      <point x="245.81" y="167.7"/>
      <point x="245.81" y="224.46" type="curve" smooth="yes"/>
      <point x="245.81" y="231.95"/>
      <point x="246.79" y="238.82"/>
      <point x="249.0" y="245.0" type="curve" smooth="yes"/>
      <point x="265.0" y="286.0"/>
      <point x="313.0" y="302.0"/>
      <point x="352.0" y="303.0" type="curve"/>
      <point x="352.0" y="334.0" type="line"/>
      <point x="312.0" y="337.0"/>
      <point x="267.0" y="349.0"/>
      <point x="250.0" y="394.0" type="curve" smooth="yes"/>
      <point x="247.95" y="399.47"/>
      <point x="247.04" y="405.65"/>
      <point x="247.04" y="412.48" type="curve" smooth="yes"/>
      <point x="247.04" y="465.57"/>
      <point x="302.0" y="557.65"/>
      <point x="302.0" y="656.0" type="curve" smooth="yes"/>
      <point x="302.0" y="752.0"/>
      <point x="266.0" y="791.0"/>
    </contour>
  </outline>
</glyph>
<glyph name="asciitilde" format="2">
  <advance width="600.0"/>
  <unicode hex="007E"/>
  <note>
asciitilde
</note>
  <outline>
    <contour>
      <point x="542.0" y="364.99" type="curve"/>
      <point x="501.0" y="365.0" type="line"/>
      <point x="504.41" y="355.98"/>
      <point x="506.13" y="346.19"/>
      <point x="506.13" y="336.31" type="curve" smooth="yes"/>
      <point x="506.13" y="296.91"/>
      <point x="478.77" y="256.0"/>
      <point x="422.0" y="256.0" type="curve" smooth="yes"/>
      <point x="369.0" y="256.0"/>
      <point x="307.0" y="316.0"/>
      <point x="274.0" y="340.0" type="curve" smooth="yes"/>
      <point x="235.0" y="367.0"/>
      <point x="208.0" y="384.0"/>
      <point x="163.0" y="384.0" type="curve" smooth="yes"/>
      <point x="87.6" y="384.0"/>
      <point x="53.53" y="329.09"/>
      <point x="53.53" y="285.17" type="curve" smooth="yes"/>
      <point x="53.53" y="273.18"/>
      <point x="56.07" y="262.0"/>
      <point x="61.0" y="252.99" type="curve"/>
      <point x="102.0" y="252.99" type="line"/>
      <point x="97.08" y="264.08"/>
      <point x="94.52" y="276.5"/>
      <point x="94.52" y="288.92" type="curve" smooth="yes"/>
      <point x="94.52" y="326.94"/>
      <point x="118.49" y="365.0"/>
      <point x="172.01" y="365.0" type="curve" smooth="yes"/>
      <point x="225.01" y="365.0"/>
      <point x="283.01" y="308.0"/>
      <point x="321.01" y="282.0" type="curve" smooth="yes"/>
      <point x="357.01" y="256.0"/>
      <point x="390.01" y="237.0"/>
      <point x="431.01" y="237.0" type="curve" smooth="yes"/>
      <point x="509.11" y="237.0"/>
      <point x="548.16" y="293.92"/>
      <point x="548.16" y="337.76" type="curve" smooth="yes"/>
      <point x="548.16" y="347.8"/>
      <point x="546.11" y="357.16"/>
    </contour>
  </outline>
</glyph>
<glyph name="cent" format="2">
  <advance width="549"/>
  <unicode hex="00A2"/>
  <outline>
    <contour>
      <point x="267" y="4" type="line"/>
      <point x="307" y="4" type="line"/>
      <point x="307" y="83.06" type="line"/>
      <point x="416.18" y="84.89"/>
      <point x="490.81" y="129.68"/>
      <point x="529" y="209" type="curve"/>
      <point x="489" y="225" type="line"/>
      <point x="459.67" y="166.35"/>
      <point x="407.41" y="100.05"/>
      <point x="307" y="97.1" type="curve"/>
      <point x="307" y="592" type="line"/>
      <point x="401.7" y="592"/>
      <point x="448" y="547"/>
      <point x="486" y="484" type="curve"/>
      <point x="524" y="505" type="line"/>
      <point x="487" y="568"/>
      <point x="414" y="610"/>
      <point x="308" y="610" type="curve"/>
      <point x="307" y="699" type="line"/>
      <point x="267" y="699" type="line"/>
      <point x="267" y="607.91" type="line"/>
      <point x="126.78" y="593.27"/>
      <point x="30" y="501.76"/>
      <point x="30" y="341" type="curve" smooth="yes"/>
      <point x="30" y="182.21"/>
      <point x="136.54" y="96.71"/>
      <point x="267" y="84.52" type="curve"/>
    </contour>
    <contour>
      <point x="267" y="99.62" type="line"/>
      <point x="167.54" y="115.51"/>
      <point x="83" y="203.05"/>
      <point x="83" y="341" type="curve" smooth="yes"/>
      <point x="83" y="474.04"/>
      <point x="150.87" y="570.71"/>
      <point x="267" y="588.9" type="curve"/>
    </contour>
  </outline>
</glyph>
<glyph name="sterling" format="2">
  <advance width="581.0"/>
  <unicode hex="00A3"/>
  <note>
sterling
</note>
  <outline>
    <contour>
      <point x="86.0" y="41.0" type="curve"/>
      <point x="86.0" y="-1.0" type="line"/>
      <point x="538.0" y="-1.0" type="line"/>
      <point x="538.0" y="41.0" type="line"/>
      <point x="123.79" y="41.0" type="line"/>
      <point x="203.71" y="71.79"/>
      <point x="235.0" y="153.24"/>
      <point x="235.0" y="224.0" type="curve" smooth="yes"/>
      <point x="235.0" y="354.0" type="line"/>
      <point x="359.0" y="354.0" type="line"/>
      <point x="359.0" y="388.0" type="line"/>
      <point x="235.0" y="388.0" type="line"/>
      <point x="235.0" y="544.0" type="line" smooth="yes"/>
      <point x="235.0" y="608.0"/>
      <point x="260.0" y="704.0"/>
      <point x="369.0" y="704.0" type="curve" smooth="yes"/>
      <point x="418.0" y="704.0"/>
      <point x="457.0" y="678.0"/>
      <point x="482.0" y="650.0" type="curve"/>
      <point x="512.0" y="671.0" type="line"/>
      <point x="484.0" y="699.0"/>
      <point x="442.0" y="724.0"/>
      <point x="369.0" y="724.0" type="curve" smooth="yes"/>
      <point x="217.0" y="724.0"/>
      <point x="193.0" y="606.0"/>
      <point x="193.0" y="544.0" type="curve" smooth="yes"/>
      <point x="193.0" y="388.0" type="line"/>
      <point x="103.0" y="388.0" type="line"/>
      <point x="103.0" y="354.0" type="line"/>
      <point x="193.0" y="354.0" type="line"/>
      <point x="193.0" y="224.0" type="line" smooth="yes"/>
      <point x="193.0" y="127.0"/>
      <point x="157.0" y="58.0"/>
    </contour>
  </outline>
</glyph>
<glyph name="currency" format="2">
  <advance width="600.0"/>
  <unicode hex="00A4"/>
  <note>
currency
</note>
  <outline>
    <contour>
      <point x="448.76" y="178.14" type="curve"/>
      <point x="505.24" y="121.95" type="line"/>
      <point x="544.14" y="161.93" type="line"/>
      <point x="488.76" y="217.03" type="line"/>
      <point x="517.39" y="253.11"/>
      <point x="534.23" y="298.15"/>
      <point x="534.23" y="346.5" type="curve" smooth="yes"/>
      <point x="534.23" y="397.48"/>
      <point x="515.51" y="444.77"/>
      <point x="483.99" y="481.78" type="curve"/>
      <point x="544.06" y="538.27" type="line"/>
      <point x="505.26" y="578.3" type="line"/>
      <point x="442.56" y="519.34" type="line"/>
      <point x="406.46" y="544.5"/>
      <point x="361.97" y="559.43"/>
      <point x="313.31" y="559.43" type="curve" smooth="yes"/>
      <point x="262.76" y="559.43"/>
      <point x="216.71" y="543.32"/>
      <point x="179.89" y="516.37" type="curve"/>
      <point x="116.31" y="578.24" type="line"/>
      <point x="77.41" y="538.26" type="line"/>
      <point x="139.41" y="477.92" type="line"/>
      <point x="109.84" y="441.51"/>
      <point x="92.39" y="395.73"/>
      <point x="92.39" y="346.51" type="curve" smooth="yes"/>
      <point x="92.39" y="300.8"/>
      <point x="107.46" y="256.43"/>
      <point x="134.57" y="220.13" type="curve"/>
      <point x="77.53" y="161.9" type="line"/>
      <point x="116.27" y="121.83" type="line"/>
      <point x="173.48" y="180.24" type="line"/>
      <point x="210.16" y="151.43"/>
      <point x="257.8" y="133.58"/>
      <point x="313.31" y="133.58" type="curve" smooth="yes"/>
      <point x="364.79" y="133.58"/>
      <point x="411.61" y="150.29"/>
    </contour>
    <contour>
      <point x="313.31" y="160.26" type="curve" smooth="yes"/>
      <point x="208.22" y="160.27"/>
      <point x="135.83" y="243.96"/>
      <point x="135.83" y="346.5" type="curve" smooth="yes"/>
      <point x="135.83" y="451.54"/>
      <point x="217.01" y="532.73"/>
      <point x="313.31" y="532.73" type="curve" smooth="yes"/>
      <point x="409.61" y="532.73"/>
      <point x="490.8" y="451.54"/>
      <point x="490.8" y="346.5" type="curve" smooth="yes"/>
      <point x="490.8" y="241.45"/>
      <point x="409.61" y="160.26"/>
    </contour>
  </outline>
</glyph>
<glyph name="yen" format="2">
  <advance width="573"/>
  <unicode hex="00A5"/>
  <outline>
    <contour>
      <point x="265" y="-0.01" type="line"/>
      <point x="307" y="-0.01" type="line"/>
      <point x="307" y="148.38" type="line"/>
      <point x="472.85" y="148.38" type="line"/>
      <point x="472.85" y="173.17" type="line"/>
      <point x="307" y="173.17" type="line"/>
      <point x="307" y="306.85" type="line"/>
      <point x="472.85" y="306.85" type="line"/>
      <point x="472.85" y="331.63" type="line"/>
      <point x="316" y="332" type="line"/>
      <point x="558" y="700" type="line"/>
      <point x="512" y="700" type="line"/>
      <point x="286" y="337" type="line"/>
      <point x="61" y="700" type="line"/>
      <point x="15" y="700" type="line"/>
      <point x="256" y="332" type="line"/>
      <point x="96.6" y="331.63" type="line"/>
      <point x="96.6" y="306.85" type="line"/>
      <point x="265" y="306.85" type="line"/>
      <point x="265" y="173.17" type="line"/>
      <point x="96.6" y="173.17" type="line"/>
      <point x="96.6" y="148.38" type="line"/>
      <point x="265" y="148.38" type="line"/>
    </contour>
  </outline>
</glyph>
<glyph name="brokenbar" format="2">
  <advance width="314"/>
  <unicode hex="00A6"/>
  <outline>
    <contour>
      <point x="133" y="420.67" type="line"/>
      <point x="182" y="420.67" type="line"/>
      <point x="182" y="819.85" type="line"/>
      <point x="133" y="819.85" type="line"/>
    </contour>
    <contour>
      <point x="133" y="-152.33" type="line"/>
      <point x="182" y="-152.33" type="line"/>
      <point x="182" y="246.85" type="line"/>
      <point x="133" y="246.85" type="line"/>
    </contour>
  </outline>
</glyph>
<glyph name="section" format="2">
  <advance width="572.0"/>
  <unicode hex="00A7"/>
  <note>
section
</note>
  <outline>
    <contour>
      <point x="516.25" y="85.77" type="curve"/>
      <point x="536.08" y="115.95"/>
      <point x="546.0" y="153.07"/>
      <point x="546.0" y="192.0" type="curve" smooth="yes"/>
      <point x="546.0" y="319.0"/>
      <point x="398.0" y="358.0"/>
      <point x="303.0" y="387.0" type="curve" smooth="yes"/>
      <point x="186.0" y="422.0"/>
      <point x="129.0" y="474.0"/>
      <point x="129.0" y="546.0" type="curve" smooth="yes"/>
      <point x="129.0" y="625.0"/>
      <point x="200.0" y="685.0"/>
      <point x="296.0" y="685.0" type="curve" smooth="yes"/>
      <point x="375.0" y="685.0"/>
      <point x="434.0" y="653.0"/>
      <point x="455.0" y="595.0" type="curve"/>
      <point x="497.0" y="606.0" type="line"/>
      <point x="469.0" y="675.0"/>
      <point x="390.0" y="710.0"/>
      <point x="296.0" y="710.0" type="curve" smooth="yes"/>
      <point x="173.0" y="710.0"/>
      <point x="84.0" y="638.0"/>
      <point x="84.0" y="546.0" type="curve" smooth="yes"/>
      <point x="84.0" y="507.78"/>
      <point x="98.99" y="473.68"/>
      <point x="128.87" y="444.02" type="curve"/>
      <point x="103.42" y="416.7"/>
      <point x="89.99" y="383.33"/>
      <point x="89.99" y="346.0" type="curve" smooth="yes"/>
      <point x="89.99" y="265.0"/>
      <point x="157.99" y="201.0"/>
      <point x="294.99" y="160.0" type="curve" smooth="yes"/>
      <point x="386.99" y="132.0"/>
      <point x="505.99" y="101.0"/>
      <point x="505.99" y="-8.0" type="curve" smooth="yes"/>
      <point x="505.99" y="-103.0"/>
      <point x="443.99" y="-178.0"/>
      <point x="306.99" y="-178.0" type="curve" smooth="yes"/>
      <point x="171.99" y="-178.0"/>
      <point x="102.99" y="-115.0"/>
      <point x="71.99" y="-26.0" type="curve"/>
      <point x="32.99" y="-45.0" type="line"/>
      <point x="75.99" y="-141.0"/>
      <point x="157.99" y="-205.0"/>
      <point x="306.99" y="-205.0" type="curve" smooth="yes"/>
      <point x="478.99" y="-205.0"/>
      <point x="551.99" y="-115.0"/>
      <point x="551.99" y="-8.0" type="curve" smooth="yes"/>
      <point x="551.99" y="30.69"/>
      <point x="538.17" y="61.21"/>
    </contour>
    <contour>
      <point x="308.0" y="187.01" type="curve" smooth="yes"/>
      <point x="191.0" y="222.0"/>
      <point x="134.0" y="274.0"/>
      <point x="134.0" y="346.0" type="curve" smooth="yes"/>
      <point x="134.0" y="374.49"/>
      <point x="142.19" y="399.25"/>
      <point x="157.3" y="420.28" type="curve"/>
      <point x="190.38" y="396.73"/>
      <point x="234.64" y="376.57"/>
      <point x="289.99" y="360.0" type="curve" smooth="yes"/>
      <point x="380.99" y="331.0"/>
      <point x="500.99" y="301.0"/>
      <point x="500.99" y="192.0" type="curve" smooth="yes"/>
      <point x="500.99" y="166.5"/>
      <point x="495.64" y="138.33"/>
      <point x="484.1" y="114.22" type="curve"/>
      <point x="432.56" y="151.05"/>
      <point x="361.66" y="170.62"/>
    </contour>
  </outline>
</glyph>
<glyph name="dieresis" format="2">
  <advance width="556.0"/>
  <unicode hex="00A8"/>
  <note>
dieresis
</note>
  <outline>
    <contour>
      <point x="175.0" y="615.0" type="line"/>
      <point x="175.0" y="657.0" type="line"/>
      <point x="133.0" y="657.0" type="line"/>
      <point x="133.0" y="615.0" type="line"/>
    </contour>
    <contour>
      <point x="423.0" y="615.0" type="line"/>
      <point x="423.0" y="657.0" type="line"/>
      <point x="381.0" y="657.0" type="line"/>
      <point x="381.0" y="615.0" type="line"/>
    </contour>
  </outline>
</glyph>
<glyph name="copyright" format="2">
  <advance width="808.0"/>
  <unicode hex="00A9"/>
  <note>
copyright
</note>
  <outline>
    <contour>
      <point x="404.0" y="-9.0" type="curve" smooth="yes"/>
      <point x="638.0" y="-9.0"/>
      <point x="791.0" y="164.0"/>
      <point x="791.0" y="383.0" type="curve" smooth="yes"/>
      <point x="791.0" y="603.0"/>
      <point x="638.0" y="779.0"/>
      <point x="404.0" y="779.0" type="curve" smooth="yes"/>
      <point x="170.0" y="779.0"/>
      <point x="17.0" y="603.0"/>
      <point x="17.0" y="383.0" type="curve" smooth="yes"/>
      <point x="17.0" y="164.0"/>
      <point x="171.0" y="-9.0"/>
    </contour>
    <contour>
      <point x="404.0" y="8.56" type="curve" smooth="yes"/>
      <point x="194.5" y="8.56"/>
      <point x="55.16" y="169.33"/>
      <point x="55.16" y="383.04" type="curve" smooth="yes"/>
      <point x="55.16" y="598.7"/>
      <point x="195.47" y="761.43"/>
      <point x="404.0" y="761.43" type="curve" smooth="yes"/>
      <point x="614.46" y="761.43"/>
      <point x="752.84" y="598.7"/>
      <point x="752.84" y="383.04" type="curve" smooth="yes"/>
      <point x="752.84" y="169.33"/>
      <point x="613.5" y="8.56"/>
    </contour>
    <contour>
      <point x="555.99" y="493.63" type="curve"/>
      <point x="584.53" y="509.4" type="line"/>
      <point x="556.74" y="556.72"/>
      <point x="501.92" y="588.26"/>
      <point x="422.31" y="588.26" type="curve" smooth="yes"/>
      <point x="300.65" y="588.26"/>
      <point x="213.54" y="518.41"/>
      <point x="213.54" y="386.24" type="curve" smooth="yes"/>
      <point x="213.54" y="257.07"/>
      <point x="307.41" y="192.48"/>
      <point x="416.31" y="192.48" type="curve" smooth="yes"/>
      <point x="501.17" y="192.48"/>
      <point x="559.0" y="226.28"/>
      <point x="588.29" y="287.11" type="curve"/>
      <point x="558.25" y="299.12" type="line"/>
      <point x="535.72" y="254.06"/>
      <point x="495.16" y="202.99"/>
      <point x="416.31" y="202.99" type="curve" smooth="yes"/>
      <point x="331.44" y="202.99"/>
      <point x="253.34" y="271.33"/>
      <point x="253.34" y="386.24" type="curve" smooth="yes"/>
      <point x="253.34" y="497.39"/>
      <point x="316.42" y="574.74"/>
      <point x="422.31" y="574.74" type="curve" smooth="yes"/>
      <point x="492.69" y="574.74"/>
      <point x="527.45" y="540.95"/>
    </contour>
  </outline>
</glyph>
<glyph name="ordfeminine" format="2">
  <advance width="373.0"/>
  <unicode hex="00AA"/>
  <note>
ordfeminine
</note>
  <outline>
    <contour>
      <point x="188.84" y="733.59" type="curve" smooth="yes"/>
      <point x="117.78" y="733.59"/>
      <point x="59.82" y="695.64"/>
      <point x="52.23" y="652.17" type="curve"/>
      <point x="96.39" y="651.48" type="line"/>
      <point x="104.67" y="682.53"/>
      <point x="130.2" y="721.17"/>
      <point x="188.85" y="721.17" type="curve" smooth="yes"/>
      <point x="256.87" y="721.17"/>
      <point x="287.23" y="688.15"/>
      <point x="292.7" y="642.86" type="curve" smooth="yes"/>
      <point x="299.04" y="590.45"/>
      <point x="241.93" y="572.04"/>
      <point x="175.05" y="563.85" type="curve" smooth="yes"/>
      <point x="65.34" y="550.74"/>
      <point x="26.7" y="517.62"/>
      <point x="26.7" y="465.87" type="curve" smooth="yes"/>
      <point x="26.7" y="409.98"/>
      <point x="78.45" y="371.34"/>
      <point x="160.56" y="371.34" type="curve" smooth="yes"/>
      <point x="228.71" y="371.34"/>
      <point x="278.91" y="414.74"/>
      <point x="297.86" y="469.42" type="curve"/>
      <point x="297.86" y="381.0" type="line"/>
      <point x="328.22" y="381.0" type="line"/>
      <point x="328.22" y="594.9" type="line" smooth="yes"/>
      <point x="328.22" y="656.31"/>
      <point x="315.8" y="733.59"/>
    </contour>
    <contour>
      <point x="160.55" y="382.38" type="curve" smooth="yes"/>
      <point x="81.2" y="382.38"/>
      <point x="61.19" y="434.82"/>
      <point x="61.19" y="470.01" type="curve" smooth="yes"/>
      <point x="61.19" y="514.86"/>
      <point x="93.62" y="541.77"/>
      <point x="172.97" y="552.12" type="curve" smooth="yes"/>
      <point x="230.13" y="559.44"/>
      <point x="275.87" y="574.72"/>
      <point x="297.71" y="601.63" type="curve"/>
      <point x="297.86" y="518.31" type="line" smooth="yes"/>
      <point x="297.86" y="454.83"/>
      <point x="248.18" y="382.38"/>
    </contour>
  </outline>
</glyph>
<glyph name="guillemotleft" format="2">
  <advance width="527.0"/>
  <unicode hex="00AB"/>
  <note>
guillemotleft
</note>
  <outline>
    <contour>
      <point x="56.75" y="266.0" type="line"/>
      <point x="219.0" y="81.0" type="line"/>
      <point x="229.0" y="88.0" type="line"/>
      <point x="127.56" y="267.0" type="line"/>
      <point x="229.0" y="446.0" type="line"/>
      <point x="219.0" y="452.0" type="line"/>
      <point x="56.76" y="268.0" type="line"/>
      <point x="55.0" y="268.0" type="line"/>
      <point x="55.88" y="266.99" type="line"/>
      <point x="55.0" y="266.0" type="line"/>
    </contour>
    <contour>
      <point x="280.95" y="265.8" type="line"/>
      <point x="428.43" y="97.63" type="line"/>
      <point x="437.52" y="103.99" type="line"/>
      <point x="345.32" y="266.7" type="line"/>
      <point x="437.52" y="429.41" type="line"/>
      <point x="428.43" y="434.87" type="line"/>
      <point x="280.96" y="267.61" type="line"/>
      <point x="279.35" y="267.61" type="line"/>
      <point x="280.15" y="266.7" type="line"/>
      <point x="279.35" y="265.8" type="line"/>
    </contour>
  </outline>
</glyph>
<glyph name="logicalnot" format="2">
  <advance width="667.0"/>
  <unicode hex="00AC"/>
  <note>
logicalnot
</note>
  <outline>
    <contour>
      <point x="43.0" y="305.0" type="line"/>
      <point x="592.0" y="305.0" type="line"/>
      <point x="592.0" y="74.0" type="line"/>
      <point x="642.0" y="74.0" type="line"/>
      <point x="642.0" y="338.0" type="line"/>
      <point x="43.0" y="338.0" type="line"/>
    </contour>
  </outline>
</glyph>
<glyph name="softhyphen" format="2">
  <advance width="600"/>
  <unicode hex="00AD"/>
  <outline>
    <contour>
      <point x="106" y="243" type="line"/>
      <point x="495" y="243" type="line"/>
      <point x="495" y="277" type="line"/>
      <point x="106" y="277" type="line"/>
    </contour>
  </outline>
</glyph>
<glyph name="registered" format="2">
  <advance width="808"/>
  <unicode hex="00AE"/>
  <outline>
    <contour>
      <point x="404" y="-9" type="curve" smooth="yes"/>
      <point x="638" y="-9"/>
      <point x="791" y="164"/>
      <point x="791" y="383" type="curve" smooth="yes"/>
      <point x="791" y="603"/>
      <point x="638" y="779"/>
      <point x="404" y="779" type="curve" smooth="yes"/>
      <point x="170" y="779"/>
      <point x="17" y="603"/>
      <point x="17" y="383" type="curve" smooth="yes"/>
      <point x="17" y="164"/>
      <point x="171" y="-9"/>
    </contour>
    <contour>
      <point x="326.84" y="428.37" type="line"/>
      <point x="326.84" y="573.32" type="line"/>
      <point x="406.93" y="573.32" type="line"/>
      <point x="461.07" y="573.32"/>
      <point x="492.66" y="545.68"/>
      <point x="492.66" y="501.69" type="curve" smooth="yes"/>
      <point x="492.66" y="458.26"/>
      <point x="462.2" y="428.37"/>
      <point x="404.68" y="428.37" type="curve" smooth="yes"/>
    </contour>
    <contour>
      <point x="302.59" y="196" type="line"/>
      <point x="326.84" y="196" type="line"/>
      <point x="327" y="416" type="line"/>
      <point x="402.41" y="415.96" type="line" smooth="yes"/>
      <point x="406.09" y="415.96"/>
      <point x="409.73" y="416.03"/>
      <point x="413.33" y="416.17" type="curve"/>
      <point x="558.64" y="196" type="line"/>
      <point x="586.84" y="196" type="line"/>
      <point x="440.57" y="418.97" type="line"/>
      <point x="484.59" y="426.77"/>
      <point x="516.34" y="451.1"/>
      <point x="516.34" y="507.89" type="curve" smooth="yes"/>
      <point x="516.34" y="571.06"/>
      <point x="468.4" y="590.8"/>
      <point x="406.93" y="590.8" type="curve" smooth="yes"/>
      <point x="302.59" y="590.8" type="line"/>
    </contour>
    <contour>
      <point x="404" y="8.56" type="curve" smooth="yes"/>
      <point x="194.5" y="8.56"/>
      <point x="55.16" y="169.33"/>
      <point x="55.16" y="383.04" type="curve" smooth="yes"/>
      <point x="55.16" y="598.7"/>
      <point x="195.47" y="761.43"/>
      <point x="404" y="761.43" type="curve" smooth="yes"/>
      <point x="614.46" y="761.43"/>
      <point x="752.84" y="598.7"/>
      <point x="752.84" y="383.04" type="curve" smooth="yes"/>
      <point x="752.84" y="169.33"/>
      <point x="613.5" y="8.56"/>
    </contour>
  </outline>
</glyph>
<glyph name="macron" format="2">
  <advance width="600.0"/>
  <unicode hex="00AF"/>
  <note>
macron
</note>
  <outline>
    <contour>
      <point x="563.0" y="673.0" type="line"/>
      <point x="563.0" y="715.0" type="line"/>
      <point x="47.0" y="715.0" type="line"/>
      <point x="47.0" y="673.0" type="line"/>
    </contour>
  </outline>
</glyph>
<glyph name="degree" format="2">
  <advance width="600.0"/>
  <unicode hex="00B0"/>
  <note>
degree
</note>
  <outline>
    <contour>
      <point x="290.0" y="798.0" type="curve" smooth="yes"/>
      <point x="203.0" y="798.0"/>
      <point x="135.0" y="730.0"/>
      <point x="135.0" y="644.0" type="curve" smooth="yes"/>
      <point x="135.0" y="557.0"/>
      <point x="203.0" y="489.0"/>
      <point x="290.0" y="489.0" type="curve" smooth="yes"/>
      <point x="376.0" y="489.0"/>
      <point x="444.0" y="557.0"/>
      <point x="444.0" y="644.0" type="curve" smooth="yes"/>
      <point x="444.0" y="730.0"/>
      <point x="376.0" y="798.0"/>
    </contour>
    <contour>
      <point x="290.0" y="764.0" type="curve" smooth="yes"/>
      <point x="356.0" y="764.0"/>
      <point x="410.0" y="710.0"/>
      <point x="410.0" y="644.0" type="curve" smooth="yes"/>
      <point x="410.0" y="577.0"/>
      <point x="356.0" y="523.0"/>
      <point x="290.0" y="523.0" type="curve" smooth="yes"/>
      <point x="223.0" y="523.0"/>
      <point x="169.0" y="577.0"/>
      <point x="169.0" y="644.0" type="curve" smooth="yes"/>
      <point x="169.0" y="710.0"/>
      <point x="223.0" y="764.0"/>
    </contour>
  </outline>
</glyph>
<glyph name="plusminus" format="2">
  <advance width="600.0"/>
  <unicode hex="00B1"/>
  <note>
plusminus
</note>
  <outline>
    <contour>
      <point x="317.0" y="191.0" type="line"/>
      <point x="317.0" y="406.0" type="line"/>
      <point x="533.0" y="406.0" type="line"/>
      <point x="533.0" y="439.0" type="line"/>
      <point x="317.0" y="439.0" type="line"/>
      <point x="317.0" y="654.0" type="line"/>
      <point x="283.0" y="654.0" type="line"/>
      <point x="283.0" y="439.0" type="line"/>
      <point x="66.0" y="439.0" type="line"/>
      <point x="66.0" y="406.0" type="line"/>
      <point x="283.0" y="406.0" type="line"/>
      <point x="283.0" y="191.0" type="line"/>
    </contour>
    <contour>
      <point x="66.0" y="3.0" type="line"/>
      <point x="533.0" y="3.0" type="line"/>
      <point x="533.0" y="36.0" type="line"/>
      <point x="66.0" y="36.0" type="line"/>
    </contour>
  </outline>
</glyph>
<glyph name="twosuperior" format="2">
  <advance width="473.0"/>
  <unicode hex="00B2"/>
  <note>
twosuperior
</note>
  <outline>
    <contour>
      <point x="256.0" y="860.99" type="curve" smooth="yes"/>
      <point x="181.1" y="861.0"/>
      <point x="127.24" y="831.2"/>
      <point x="127.24" y="770.77" type="curve" smooth="yes"/>
      <point x="127.24" y="766.66"/>
      <point x="127.49" y="762.4"/>
      <point x="128.0" y="758.0" type="curve"/>
      <point x="169.0" y="762.0" type="line"/>
      <point x="166.61" y="770.37"/>
      <point x="165.47" y="778.18"/>
      <point x="165.47" y="785.41" type="curve" smooth="yes"/>
      <point x="165.47" y="826.57"/>
      <point x="202.41" y="848.99"/>
      <point x="256.0" y="848.99" type="curve" smooth="yes"/>
      <point x="328.41" y="848.99"/>
      <point x="351.03" y="795.37"/>
      <point x="351.03" y="740.59" type="curve" smooth="yes"/>
      <point x="351.03" y="579.28"/>
      <point x="138.21" y="492.31"/>
      <point x="110.0" y="449.99" type="curve"/>
      <point x="110.0" y="423.99" type="line"/>
      <point x="402.0" y="423.99" type="line"/>
      <point x="402.0" y="451.99" type="line"/>
      <point x="153.0" y="451.99" type="line"/>
      <point x="195.78" y="489.8"/>
      <point x="390.02" y="597.89"/>
      <point x="390.02" y="742.77" type="curve" smooth="yes"/>
      <point x="390.02" y="805.63"/>
      <point x="356.24" y="860.99"/>
    </contour>
  </outline>
</glyph>
<glyph name="threesuperior" format="2">
  <advance width="391.0"/>
  <unicode hex="00B3"/>
  <note>
threesuperior
</note>
  <outline>
    <contour>
      <point x="192.0" y="676.0" type="curve"/>
      <point x="347.0" y="824.0" type="line"/>
      <point x="347.0" y="848.0" type="line"/>
      <point x="74.0" y="848.0" type="line"/>
      <point x="74.0" y="824.0" type="line"/>
      <point x="313.0" y="824.0" type="line"/>
      <point x="156.0" y="671.0" type="line"/>
      <point x="173.0" y="653.0" type="line"/>
      <point x="184.0" y="655.0"/>
      <point x="195.0" y="657.0"/>
      <point x="208.0" y="657.0" type="curve" smooth="yes"/>
      <point x="285.0" y="657.0"/>
      <point x="324.0" y="613.0"/>
      <point x="324.0" y="544.0" type="curve" smooth="yes"/>
      <point x="324.0" y="465.0"/>
      <point x="268.0" y="432.0"/>
      <point x="211.0" y="432.0" type="curve" smooth="yes"/>
      <point x="151.0" y="432.0"/>
      <point x="116.0" y="465.0"/>
      <point x="107.0" y="513.0" type="curve"/>
      <point x="69.0" y="513.0" type="line"/>
      <point x="83.0" y="448.0"/>
      <point x="144.0" y="413.0"/>
      <point x="211.0" y="413.0" type="curve" smooth="yes"/>
      <point x="290.0" y="413.0"/>
      <point x="357.0" y="467.0"/>
      <point x="357.0" y="544.0" type="curve" smooth="yes"/>
      <point x="357.0" y="615.79"/>
      <point x="311.25" y="677.41"/>
      <point x="217.42" y="677.41" type="curve" smooth="yes"/>
      <point x="209.31" y="677.41"/>
      <point x="200.83" y="676.95"/>
    </contour>
  </outline>
</glyph>
<glyph name="acute" format="2">
  <advance width="600.0"/>
  <unicode hex="00B4"/>
  <note>
acute
</note>
  <outline>
    <contour>
      <point x="339.0" y="715.0" type="line"/>
      <point x="219.0" y="602.0" type="line"/>
      <point x="236.0" y="597.0" type="line"/>
      <point x="362.0" y="676.0" type="line"/>
    </contour>
  </outline>
</glyph>
<glyph name="paragraph" format="2">
  <advance width="691.0"/>
  <unicode hex="00B6"/>
  <note>
paragraph
</note>
  <outline>
    <contour>
      <point x="288.0" y="416.0" type="curve" smooth="yes"/>
      <point x="409.0" y="416.0" type="line"/>
      <point x="409.0" y="-201.0" type="line"/>
      <point x="430.0" y="-201.0" type="line"/>
      <point x="430.0" y="701.0" type="line"/>
      <point x="282.0" y="701.0" type="line" smooth="yes"/>
      <point x="203.0" y="701.0"/>
      <point x="121.0" y="665.0"/>
      <point x="121.0" y="559.0" type="curve" smooth="yes"/>
      <point x="121.0" y="450.0"/>
      <point x="199.0" y="416.0"/>
    </contour>
    <contour>
      <point x="622.0" y="701.0" type="line"/>
      <point x="600.0" y="701.0" type="line"/>
      <point x="600.0" y="-201.0" type="line"/>
      <point x="622.0" y="-201.0" type="line"/>
    </contour>
  </outline>
</glyph>
<glyph name="periodcentered" format="2">
  <advance width="600"/>
  <unicode hex="00B7"/>
  <outline>
    <contour>
      <point x="266" y="224" type="line"/>
      <point x="334" y="224" type="line"/>
      <point x="334" y="292" type="line"/>
      <point x="266" y="292" type="line"/>
    </contour>
  </outline>
</glyph>
<glyph name="cedilla" format="2">
  <advance width="600.0"/>
  <unicode hex="00B8"/>
  <note>
cedilla
</note>
  <outline>
    <contour>
      <point x="314.0" y="-33.0" type="curve" smooth="yes"/>
      <point x="301.18" y="-33.0"/>
      <point x="286.88" y="-37.84"/>
      <point x="274.04" y="-44.57" type="curve"/>
      <point x="293.99" y="0.0" type="line"/>
      <point x="265.99" y="0.0" type="line"/>
      <point x="235.99" y="-67.0" type="line"/>
      <point x="263.99" y="-67.0" type="line"/>
      <point x="264.54" y="-65.77" type="line"/>
      <point x="275.56" y="-57.29"/>
      <point x="291.91" y="-50.0"/>
      <point x="310.99" y="-50.0" type="curve" smooth="yes"/>
      <point x="335.49" y="-50.0"/>
      <point x="353.1" y="-68.38"/>
      <point x="353.1" y="-92.4" type="curve" smooth="yes"/>
      <point x="353.1" y="-135.94"/>
      <point x="304.23" y="-161.0"/>
      <point x="265.99" y="-161.0" type="curve" smooth="yes"/>
      <point x="249.99" y="-161.0"/>
      <point x="225.99" y="-156.0"/>
      <point x="208.99" y="-150.0" type="curve"/>
      <point x="208.99" y="-178.0" type="line"/>
      <point x="220.99" y="-181.0"/>
      <point x="241.99" y="-185.0"/>
      <point x="259.99" y="-185.0" type="curve" smooth="yes"/>
      <point x="310.99" y="-185.0"/>
      <point x="368.99" y="-162.0"/>
      <point x="380.99" y="-106.0" type="curve" smooth="yes"/>
      <point x="382.15" y="-100.81"/>
      <point x="382.74" y="-95.59"/>
      <point x="382.74" y="-90.47" type="curve" smooth="yes"/>
      <point x="382.74" y="-60.1"/>
      <point x="361.91" y="-33.0"/>
    </contour>
  </outline>
</glyph>
<glyph name="onesuperior" format="2">
  <advance width="318.0"/>
  <unicode hex="00B9"/>
  <note>
onesuperior
</note>
  <outline>
    <contour>
      <point x="181.0" y="768.0" type="line"/>
      <point x="181.0" y="420.0" type="line"/>
      <point x="220.0" y="420.0" type="line"/>
      <point x="220.0" y="847.0" type="line"/>
      <point x="177.0" y="847.0" type="line"/>
      <point x="166.0" y="808.0"/>
      <point x="131.0" y="779.0"/>
      <point x="78.0" y="777.0" type="curve"/>
      <point x="78.0" y="768.0" type="line"/>
    </contour>
  </outline>
</glyph>
<glyph name="ordmasculine" format="2">
  <advance width="380"/>
  <unicode hex="00BA"/>
  <outline>
    <contour>
      <point x="205.1" y="367.34" type="curve" smooth="yes"/>
      <point x="311.7" y="367.34"/>
      <point x="383.5" y="444.62"/>
      <point x="383.5" y="547.43" type="curve" smooth="yes"/>
      <point x="383.5" y="650.93"/>
      <point x="310.98" y="730.28"/>
      <point x="205.1" y="730.28" type="curve" smooth="yes"/>
      <point x="99.22" y="730.28"/>
      <point x="26.7" y="650.93"/>
      <point x="26.7" y="547.43" type="curve" smooth="yes"/>
      <point x="26.7" y="444.62"/>
      <point x="98.49" y="367.34"/>
    </contour>
    <contour>
      <point x="205.1" y="375.62" type="curve" smooth="yes"/>
      <point x="116.62" y="375.62"/>
      <point x="61.61" y="454.97"/>
      <point x="61.61" y="547.43" type="curve" smooth="yes"/>
      <point x="61.61" y="640.58"/>
      <point x="116.62" y="720.62"/>
      <point x="205.1" y="720.62" type="curve" smooth="yes"/>
      <point x="293.57" y="720.62"/>
      <point x="348.58" y="640.58"/>
      <point x="348.58" y="547.43" type="curve" smooth="yes"/>
      <point x="348.58" y="454.97"/>
      <point x="293.57" y="375.62"/>
    </contour>
  </outline>
</glyph>
<glyph name="guillemotright" format="2">
  <advance width="526.0"/>
  <unicode hex="00BB"/>
  <note>
guillemotright
</note>
  <outline>
    <contour>
      <point x="469.23" y="268.0" type="line"/>
      <point x="307.0" y="452.0" type="line"/>
      <point x="297.0" y="446.0" type="line"/>
      <point x="398.43" y="267.0" type="line"/>
      <point x="297.0" y="88.0" type="line"/>
      <point x="307.0" y="81.0" type="line"/>
      <point x="469.24" y="266.0" type="line"/>
      <point x="471.0" y="266.0" type="line"/>
      <point x="470.12" y="266.99" type="line"/>
      <point x="471.0" y="268.0" type="line"/>
    </contour>
    <contour>
      <point x="245.03" y="267.61" type="line"/>
      <point x="97.56" y="434.87" type="line"/>
      <point x="88.47" y="429.41" type="line"/>
      <point x="180.67" y="266.7" type="line"/>
      <point x="88.47" y="103.99" type="line"/>
      <point x="97.56" y="97.63" type="line"/>
      <point x="245.04" y="265.79" type="line"/>
      <point x="246.63" y="265.79" type="line"/>
      <point x="245.83" y="266.7" type="line"/>
      <point x="246.63" y="267.61" type="line"/>
    </contour>
  </outline>
</glyph>
<glyph name="onequarter" format="2">
  <advance width="851.0"/>
  <unicode hex="00BC"/>
  <note>
onequarter
</note>
  <outline>
    <contour>
      <point x="181.0" y="768.0" type="line"/>
      <point x="181.0" y="420.0" type="line"/>
      <point x="220.0" y="420.0" type="line"/>
      <point x="220.0" y="847.0" type="line"/>
      <point x="177.0" y="847.0" type="line"/>
      <point x="166.0" y="808.0"/>
      <point x="131.0" y="779.0"/>
      <point x="78.0" y="777.0" type="curve"/>
      <point x="78.0" y="768.0" type="line"/>
    </contour>
    <contour>
      <point x="667.0" y="754.0" type="line"/>
      <point x="85.0" y="0.0" type="line"/>
      <point x="118.0" y="0.0" type="line"/>
      <point x="699.0" y="754.0" type="line"/>
    </contour>
    <contour>
      <point x="697.0" y="0.0" type="line"/>
      <point x="736.0" y="0.0" type="line"/>
      <point x="736.0" y="99.0" type="line"/>
      <point x="814.0" y="99.0" type="line"/>
      <point x="814.0" y="124.0" type="line"/>
      <point x="736.0" y="124.0" type="line"/>
      <point x="736.0" y="428.0" type="line"/>
      <point x="702.0" y="428.0" type="line"/>
      <point x="450.0" y="125.0" type="line"/>
      <point x="449.0" y="99.0" type="line"/>
      <point x="697.0" y="99.0" type="line"/>
    </contour>
    <contour>
      <point x="697.0" y="124.0" type="line"/>
      <point x="488.0" y="124.0" type="line"/>
      <point x="697.0" y="378.66" type="line"/>
    </contour>
  </outline>
</glyph>
<glyph name="onehalf" format="2">
  <advance width="882.0"/>
  <unicode hex="00BD"/>
  <note>
onehalf
</note>
  <outline>
    <contour>
      <point x="181.0" y="768.0" type="line"/>
      <point x="181.0" y="420.0" type="line"/>
      <point x="220.0" y="420.0" type="line"/>
      <point x="220.0" y="847.0" type="line"/>
      <point x="177.0" y="847.0" type="line"/>
      <point x="166.0" y="808.0"/>
      <point x="131.0" y="779.0"/>
      <point x="78.0" y="777.0" type="curve"/>
      <point x="78.0" y="768.0" type="line"/>
    </contour>
    <contour>
      <point x="665.0" y="745.0" type="line"/>
      <point x="83.0" y="-9.0" type="line"/>
      <point x="116.0" y="-9.0" type="line"/>
      <point x="698.0" y="745.0" type="line"/>
    </contour>
    <contour>
      <point x="675.0" y="451.99" type="curve" smooth="yes"/>
      <point x="600.1" y="452.0"/>
      <point x="546.24" y="422.2"/>
      <point x="546.24" y="361.77" type="curve" smooth="yes"/>
      <point x="546.24" y="357.66"/>
      <point x="546.49" y="353.4"/>
      <point x="547.0" y="349.0" type="curve"/>
      <point x="588.0" y="353.0" type="line"/>
      <point x="585.61" y="361.37"/>
      <point x="584.47" y="369.18"/>
      <point x="584.47" y="376.41" type="curve" smooth="yes"/>
      <point x="584.47" y="417.57"/>
      <point x="621.41" y="439.99"/>
      <point x="675.0" y="439.99" type="curve" smooth="yes"/>
      <point x="747.41" y="439.99"/>
      <point x="770.03" y="386.37"/>
      <point x="770.03" y="331.59" type="curve" smooth="yes"/>
      <point x="770.03" y="170.28"/>
      <point x="557.21" y="83.31"/>
      <point x="529.0" y="40.99" type="curve"/>
      <point x="529.0" y="14.99" type="line"/>
      <point x="821.0" y="14.99" type="line"/>
      <point x="821.0" y="42.99" type="line"/>
      <point x="572.0" y="42.99" type="line"/>
      <point x="614.78" y="80.8"/>
      <point x="809.02" y="188.89"/>
      <point x="809.02" y="333.77" type="curve" smooth="yes"/>
      <point x="809.02" y="396.63"/>
      <point x="775.24" y="451.99"/>
    </contour>
  </outline>
</glyph>
<glyph name="questiondown" format="2">
  <advance width="501.0"/>
  <unicode hex="00BF"/>
  <note>
questiondown
</note>
  <outline>
    <contour>
      <point x="192.0" y="505.0" type="line"/>
      <point x="192.0" y="437.0" type="line"/>
      <point x="260.0" y="437.0" type="line"/>
      <point x="260.0" y="505.0" type="line"/>
    </contour>
    <contour>
      <point x="226.0" y="-196.01" type="curve" smooth="yes"/>
      <point x="146.39" y="-196.0"/>
      <point x="88.0" y="-147.34"/>
      <point x="88.0" y="-73.0" type="curve" smooth="yes"/>
      <point x="88.0" y="5.06"/>
      <point x="160.07" y="22.59"/>
      <point x="234.26" y="52.85" type="curve" smooth="yes"/>
      <point x="292.01" y="76.97"/>
      <point x="362.0" y="107.4"/>
      <point x="362.0" y="178.0" type="curve" smooth="yes"/>
      <point x="362.0" y="250.53"/>
      <point x="297.55" y="289.0"/>
      <point x="226.0" y="289.0" type="curve" smooth="yes"/>
      <point x="173.82" y="289.0"/>
      <point x="135.13" y="269.1"/>
      <point x="111.78" y="228.01" type="curve"/>
      <point x="115.19" y="230.91" type="line"/>
      <point x="134.19" y="224.91" type="line"/>
      <point x="141.23" y="223.98" type="line"/>
      <point x="160.84" y="258.85"/>
      <point x="192.03" y="274.0"/>
      <point x="221.0" y="274.0" type="curve" smooth="yes"/>
      <point x="272.0" y="274.0"/>
      <point x="309.0" y="234.09"/>
      <point x="309.0" y="178.0" type="curve" smooth="yes"/>
      <point x="309.0" y="112.55"/>
      <point x="260.14" y="80.64"/>
      <point x="226.49" y="65.18" type="curve" smooth="yes"/>
      <point x="158.86" y="33.38"/>
      <point x="35.0" y="9.11"/>
      <point x="35.0" y="-75.0" type="curve" smooth="yes"/>
      <point x="35.0" y="-143.96"/>
      <point x="97.94" y="-214.0"/>
      <point x="226.0" y="-214.0" type="curve" smooth="yes"/>
      <point x="311.13" y="-214.0"/>
      <point x="393.86" y="-172.12"/>
      <point x="424.38" y="-110.12" type="curve"/>
      <point x="422.28" y="-112.68" type="line"/>
      <point x="393.28" y="-93.68" type="line"/>
      <point x="384.61" y="-92.89" type="line"/>
      <point x="354.99" y="-153.18"/>
      <point x="304.55" y="-196.01"/>
    </contour>
  </outline>
</glyph>
<glyph name="Aring" format="2">
  <advance width="678.0"/>
  <unicode hex="00C5"/>
  <note>
Aring
</note>
  <outline>
    <contour>
      <point x="339.0" y="785.0" type="curve" smooth="yes"/>
      <point x="403.0" y="785.0"/>
      <point x="457.0" y="839.0"/>
      <point x="457.0" y="903.0" type="curve" smooth="yes"/>
      <point x="457.0" y="967.0"/>
      <point x="403.0" y="1021.0"/>
      <point x="339.0" y="1021.0" type="curve" smooth="yes"/>
      <point x="275.0" y="1021.0"/>
      <point x="221.0" y="967.0"/>
      <point x="221.0" y="903.0" type="curve" smooth="yes"/>
      <point x="221.0" y="839.0"/>
      <point x="275.0" y="785.0"/>
    </contour>
    <contour>
      <point x="339.0" y="813.0" type="curve" smooth="yes"/>
      <point x="289.0" y="813.0"/>
      <point x="249.0" y="853.0"/>
      <point x="249.0" y="903.0" type="curve" smooth="yes"/>
      <point x="249.0" y="953.0"/>
      <point x="289.0" y="993.0"/>
      <point x="339.0" y="993.0" type="curve" smooth="yes"/>
      <point x="389.0" y="993.0"/>
      <point x="429.0" y="953.0"/>
      <point x="429.0" y="903.0" type="curve" smooth="yes"/>
      <point x="429.0" y="853.0"/>
      <point x="389.0" y="813.0"/>
    </contour>
    <contour>
      <point x="20.0" y="0.0" type="line"/>
      <point x="67.0" y="0.0" type="line"/>
      <point x="155.27" y="219.12" type="line"/>
      <point x="522.72" y="219.12" type="line"/>
      <point x="611.0" y="0.0" type="line"/>
      <point x="658.0" y="0.0" type="line"/>
      <point x="374.0" y="700.0" type="line"/>
      <point x="304.0" y="700.0" type="line"/>
    </contour>
    <contour>
      <point x="511.85" y="246.12" type="line"/>
      <point x="166.15" y="246.12" type="line"/>
      <point x="339.0" y="675.17" type="line"/>
    </contour>
  </outline>
</glyph>
<glyph name="AE" format="2">
  <advance width="1070"/>
  <unicode hex="00C6"/>
  <anchor x="706" y="700" name="top"/>
  <outline>
    <contour>
      <point x="64" y="0" type="line"/>
      <point x="117" y="0" type="line"/>
      <point x="262.58" y="258" type="line"/>
      <point x="496" y="258" type="line"/>
      <point x="496" y="0" type="line"/>
      <point x="1023" y="0" type="line"/>
      <point x="1023" y="30" type="line"/>
      <point x="538" y="30" type="line"/>
      <point x="538" y="338" type="line"/>
      <point x="1001" y="338" type="line"/>
      <point x="1001" y="370" type="line"/>
      <point x="538" y="370" type="line"/>
      <point x="538" y="669" type="line"/>
      <point x="1012" y="669" type="line"/>
      <point x="1012" y="700" type="line"/>
      <point x="462" y="700" type="line"/>
    </contour>
    <contour>
      <point x="277.82" y="285" type="line"/>
      <point x="496" y="671.64" type="line"/>
      <point x="496" y="285" type="line"/>
    </contour>
  </outline>
</glyph>
<glyph name="Ccedilla" format="2">
  <advance width="693.0"/>
  <unicode hex="00C7"/>
  <note>
Ccedilla
</note>
  <outline>
    <contour>
      <point x="383.0" y="705.0" type="curve" smooth="yes"/>
      <point x="172.0" y="705.0"/>
      <point x="34.0" y="546.0"/>
      <point x="34.0" y="348.0" type="curve" smooth="yes"/>
      <point x="34.0" y="152.0"/>
      <point x="173.0" y="-5.0"/>
      <point x="383.0" y="-5.0" type="curve" smooth="yes"/>
      <point x="497.0" y="-5.0"/>
      <point x="587.0" y="36.0"/>
      <point x="648.0" y="107.0" type="curve"/>
      <point x="606.0" y="127.0" type="line"/>
      <point x="552.0" y="64.0"/>
      <point x="468.0" y="26.0"/>
      <point x="383.0" y="26.0" type="curve" smooth="yes"/>
      <point x="210.0" y="26.0"/>
      <point x="88.0" y="164.0"/>
      <point x="88.0" y="348.0" type="curve" smooth="yes"/>
      <point x="88.0" y="533.0"/>
      <point x="211.0" y="674.0"/>
      <point x="383.0" y="674.0" type="curve" smooth="yes"/>
      <point x="470.0" y="674.0"/>
      <point x="556.0" y="634.0"/>
      <point x="610.0" y="567.0" type="curve"/>
      <point x="651.0" y="588.0" type="line"/>
      <point x="590.0" y="662.0"/>
      <point x="498.0" y="705.0"/>
    </contour>
    <contour>
      <point x="371.0" y="-66.0" type="curve" smooth="yes"/>
      <point x="358.18" y="-66.0"/>
      <point x="343.88" y="-70.84"/>
      <point x="331.04" y="-77.57" type="curve"/>
      <point x="350.99" y="-33.0" type="line"/>
      <point x="322.99" y="-33.0" type="line"/>
      <point x="292.99" y="-100.0" type="line"/>
      <point x="320.99" y="-100.0" type="line"/>
      <point x="321.54" y="-98.77" type="line"/>
      <point x="332.56" y="-90.29"/>
      <point x="348.91" y="-83.0"/>
      <point x="367.99" y="-83.0" type="curve" smooth="yes"/>
      <point x="392.49" y="-83.0"/>
      <point x="410.1" y="-101.38"/>
      <point x="410.1" y="-125.4" type="curve" smooth="yes"/>
      <point x="410.1" y="-168.94"/>
      <point x="361.23" y="-194.0"/>
      <point x="322.99" y="-194.0" type="curve" smooth="yes"/>
      <point x="306.99" y="-194.0"/>
      <point x="282.99" y="-189.0"/>
      <point x="265.99" y="-183.0" type="curve"/>
      <point x="265.99" y="-211.0" type="line"/>
      <point x="277.99" y="-214.0"/>
      <point x="298.99" y="-218.0"/>
      <point x="316.99" y="-218.0" type="curve" smooth="yes"/>
      <point x="367.99" y="-218.0"/>
      <point x="425.99" y="-195.0"/>
      <point x="437.99" y="-139.0" type="curve" smooth="yes"/>
      <point x="439.15" y="-133.81"/>
      <point x="439.74" y="-128.59"/>
      <point x="439.74" y="-123.47" type="curve" smooth="yes"/>
      <point x="439.74" y="-93.1"/>
      <point x="418.91" y="-66.0"/>
    </contour>
  </outline>
</glyph>
<glyph name="Ecircumflex" format="2">
  <advance width="633.0"/>
  <unicode hex="00CA"/>
  <note>
Ecircumflex
</note>
  <outline>
    <contour>
      <point x="172.0" y="829.0" type="line"/>
      <point x="214.0" y="815.0" type="line"/>
      <point x="327.0" y="920.52" type="line"/>
      <point x="440.0" y="815.0" type="line"/>
      <point x="482.0" y="829.0" type="line"/>
      <point x="328.0" y="966.0" type="line"/>
      <point x="327.0" y="965.0" type="line"/>
      <point x="326.0" y="966.0" type="line"/>
    </contour>
    <contour>
      <point x="59.0" y="700.0" type="line"/>
      <point x="59.0" y="0.0" type="line"/>
      <point x="586.0" y="0.0" type="line"/>
      <point x="586.0" y="30.0" type="line"/>
      <point x="101.0" y="30.0" type="line"/>
      <point x="101.0" y="338.0" type="line"/>
      <point x="564.0" y="338.0" type="line"/>
      <point x="564.0" y="370.0" type="line"/>
      <point x="101.0" y="370.0" type="line"/>
      <point x="101.0" y="669.0" type="line"/>
      <point x="575.0" y="669.0" type="line"/>
      <point x="575.0" y="700.0" type="line"/>
    </contour>
  </outline>
</glyph>
<glyph name="Edieresis" format="2">
  <advance width="633.0"/>
  <unicode hex="00CB"/>
  <note>
Edieresis
</note>
  <outline>
    <contour>
      <point x="223.0" y="831.0" type="line"/>
      <point x="223.0" y="873.0" type="line"/>
      <point x="181.0" y="873.0" type="line"/>
      <point x="181.0" y="831.0" type="line"/>
    </contour>
    <contour>
      <point x="471.0" y="831.0" type="line"/>
      <point x="471.0" y="873.0" type="line"/>
      <point x="429.0" y="873.0" type="line"/>
      <point x="429.0" y="831.0" type="line"/>
    </contour>
    <contour>
      <point x="59.0" y="700.0" type="line"/>
      <point x="59.0" y="0.0" type="line"/>
      <point x="586.0" y="0.0" type="line"/>
      <point x="586.0" y="30.0" type="line"/>
      <point x="101.0" y="30.0" type="line"/>
      <point x="101.0" y="338.0" type="line"/>
      <point x="564.0" y="338.0" type="line"/>
      <point x="564.0" y="370.0" type="line"/>
      <point x="101.0" y="370.0" type="line"/>
      <point x="101.0" y="669.0" type="line"/>
      <point x="575.0" y="669.0" type="line"/>
      <point x="575.0" y="700.0" type="line"/>
    </contour>
  </outline>
</glyph>
<glyph name="Igrave" format="2">
  <advance width="208.0"/>
  <unicode hex="00CC"/>
  <note>
Igrave
</note>
  <outline>
    <contour>
      <point x="145.0" y="815.0" type="line"/>
      <point x="162.0" y="820.0" type="line"/>
      <point x="42.0" y="933.0" type="line"/>
      <point x="19.0" y="894.0" type="line"/>
    </contour>
    <contour>
      <point x="125.0" y="0.0" type="line"/>
      <point x="125.0" y="700.0" type="line"/>
      <point x="83.0" y="700.0" type="line"/>
      <point x="83.0" y="0.0" type="line"/>
    </contour>
  </outline>
</glyph>
<glyph name="Iacute" format="2">
  <advance width="208.0"/>
  <unicode hex="00CD"/>
  <note>
Iacute
</note>
  <outline>
    <contour>
      <point x="164.0" y="933.0" type="line"/>
      <point x="44.0" y="820.0" type="line"/>
      <point x="61.0" y="815.0" type="line"/>
      <point x="187.0" y="894.0" type="line"/>
    </contour>
    <contour>
      <point x="125.0" y="0.0" type="line"/>
      <point x="125.0" y="700.0" type="line"/>
      <point x="83.0" y="700.0" type="line"/>
      <point x="83.0" y="0.0" type="line"/>
    </contour>
  </outline>
</glyph>
<glyph name="Icircumflex" format="2">
  <advance width="208.0"/>
  <unicode hex="00CE"/>
  <note>
Icircumflex
</note>
  <outline>
    <contour>
      <point x="-49.0" y="829.0" type="line"/>
      <point x="-7.0" y="815.0" type="line"/>
      <point x="106.0" y="920.52" type="line"/>
      <point x="219.0" y="815.0" type="line"/>
      <point x="261.0" y="829.0" type="line"/>
      <point x="107.0" y="966.0" type="line"/>
      <point x="106.0" y="965.0" type="line"/>
      <point x="105.0" y="966.0" type="line"/>
    </contour>
    <contour>
      <point x="125.0" y="0.0" type="line"/>
      <point x="125.0" y="700.0" type="line"/>
      <point x="83.0" y="700.0" type="line"/>
      <point x="83.0" y="0.0" type="line"/>
    </contour>
  </outline>
</glyph>
<glyph name="Eth" format="2">
  <advance width="777"/>
  <unicode hex="00D0"/>
  <outline>
    <contour>
      <point x="166" y="0" type="line"/>
      <point x="345" y="0" type="line" smooth="yes"/>
      <point x="554" y="0"/>
      <point x="711" y="104"/>
      <point x="711" y="351" type="curve" smooth="yes"/>
      <point x="711" y="602"/>
      <point x="533" y="700"/>
      <point x="327" y="700" type="curve" smooth="yes"/>
      <point x="166" y="700" type="line"/>
      <point x="166" y="325" type="line"/>
      <point x="48" y="325" type="line"/>
      <point x="48" y="291" type="line"/>
      <point x="166" y="291" type="line"/>
    </contour>
    <contour>
      <point x="208" y="41" type="line"/>
      <point x="208" y="291" type="line"/>
      <point x="437" y="291" type="line"/>
      <point x="437" y="325" type="line"/>
      <point x="208" y="325" type="line"/>
      <point x="208" y="658.06" type="line"/>
      <point x="327" y="659" type="line" smooth="yes"/>
      <point x="511" y="659"/>
      <point x="663" y="585"/>
      <point x="663" y="351" type="curve" smooth="yes"/>
      <point x="663" y="125"/>
      <point x="535" y="41"/>
      <point x="345" y="41" type="curve" smooth="yes"/>
    </contour>
  </outline>
</glyph>
<glyph name="Ntilde" format="2">
  <advance width="599.0"/>
  <unicode hex="00D1"/>
  <note>
Ntilde
</note>
  <outline>
    <contour>
      <point x="418.0" y="949.0" type="curve"/>
      <point x="381.0" y="950.0" type="line"/>
      <point x="406.58" y="921.22"/>
      <point x="423.16" y="884.67"/>
      <point x="423.16" y="862.06" type="curve" smooth="yes"/>
      <point x="423.16" y="849.31"/>
      <point x="417.89" y="841.0"/>
      <point x="406.0" y="841.0" type="curve" smooth="yes"/>
      <point x="383.0" y="841.0"/>
      <point x="356.0" y="866.0"/>
      <point x="297.0" y="907.0" type="curve" smooth="yes"/>
      <point x="260.0" y="932.0"/>
      <point x="231.0" y="950.0"/>
      <point x="195.0" y="950.0" type="curve" smooth="yes"/>
      <point x="159.32" y="950.0"/>
      <point x="136.02" y="922.78"/>
      <point x="136.02" y="890.2" type="curve" smooth="yes"/>
      <point x="136.02" y="867.98"/>
      <point x="146.86" y="843.27"/>
      <point x="172.0" y="823.0" type="curve"/>
      <point x="209.0" y="822.0" type="line"/>
      <point x="183.42" y="850.78"/>
      <point x="166.83" y="887.33"/>
      <point x="166.83" y="909.94" type="curve" smooth="yes"/>
      <point x="166.83" y="922.68"/>
      <point x="172.1" y="931.0"/>
      <point x="184.0" y="931.0" type="curve" smooth="yes"/>
      <point x="207.0" y="931.0"/>
      <point x="234.0" y="906.0"/>
      <point x="293.0" y="865.0" type="curve" smooth="yes"/>
      <point x="330.0" y="840.0"/>
      <point x="359.0" y="822.0"/>
      <point x="395.0" y="822.0" type="curve" smooth="yes"/>
      <point x="430.67" y="822.0"/>
      <point x="453.97" y="849.22"/>
      <point x="453.97" y="881.8" type="curve" smooth="yes"/>
      <point x="453.97" y="904.02"/>
      <point x="443.14" y="928.73"/>
    </contour>
    <contour>
      <point x="99.0" y="624.4" type="line"/>
      <point x="498.0" y="0.0" type="line"/>
      <point x="543.0" y="0.0" type="line"/>
      <point x="543.0" y="700.0" type="line"/>
      <point x="500.0" y="700.0" type="line"/>
      <point x="500.0" y="69.84" type="line"/>
      <point x="100.0" y="700.0" type="line"/>
      <point x="99.0" y="699.68" type="line"/>
      <point x="99.0" y="700.0" type="line"/>
      <point x="56.0" y="700.0" type="line"/>
      <point x="56.0" y="0.0" type="line"/>
      <point x="99.0" y="0.0" type="line"/>
    </contour>
  </outline>
</glyph>
<glyph name="Ocircumflex" format="2">
  <advance width="758.0"/>
  <unicode hex="00D4"/>
  <note>
Ocircumflex
</note>
  <outline>
    <contour>
      <point x="225.0" y="829.0" type="line"/>
      <point x="267.0" y="815.0" type="line"/>
      <point x="380.0" y="920.52" type="line"/>
      <point x="493.0" y="815.0" type="line"/>
      <point x="535.0" y="829.0" type="line"/>
      <point x="381.0" y="966.0" type="line"/>
      <point x="380.0" y="965.0" type="line"/>
      <point x="379.0" y="966.0" type="line"/>
    </contour>
    <contour>
      <point x="379.0" y="-5.0" type="curve" smooth="yes"/>
      <point x="590.0" y="-5.0"/>
      <point x="728.0" y="151.0"/>
      <point x="728.0" y="348.0" type="curve" smooth="yes"/>
      <point x="728.0" y="546.0"/>
      <point x="590.0" y="705.0"/>
      <point x="379.0" y="705.0" type="curve" smooth="yes"/>
      <point x="168.0" y="705.0"/>
      <point x="30.0" y="546.0"/>
      <point x="30.0" y="348.0" type="curve" smooth="yes"/>
      <point x="30.0" y="152.0"/>
      <point x="169.0" y="-5.0"/>
    </contour>
    <contour>
      <point x="379.0" y="26.0" type="curve" smooth="yes"/>
      <point x="195.0" y="26.0"/>
      <point x="73.0" y="164.0"/>
      <point x="73.0" y="348.0" type="curve" smooth="yes"/>
      <point x="73.0" y="533.0"/>
      <point x="196.0" y="674.0"/>
      <point x="379.0" y="674.0" type="curve" smooth="yes"/>
      <point x="563.0" y="674.0"/>
      <point x="685.0" y="533.0"/>
      <point x="685.0" y="348.0" type="curve" smooth="yes"/>
      <point x="685.0" y="164.0"/>
      <point x="563.0" y="26.0"/>
    </contour>
  </outline>
</glyph>
<glyph name="Otilde" format="2">
  <advance width="758.0"/>
  <unicode hex="00D5"/>
  <note>
Otilde
</note>
  <outline>
    <contour>
      <point x="487.0" y="949.0" type="curve"/>
      <point x="450.0" y="950.0" type="line"/>
      <point x="475.58" y="921.22"/>
      <point x="492.16" y="884.67"/>
      <point x="492.16" y="862.06" type="curve" smooth="yes"/>
      <point x="492.16" y="849.31"/>
      <point x="486.89" y="841.0"/>
      <point x="475.0" y="841.0" type="curve" smooth="yes"/>
      <point x="452.0" y="841.0"/>
      <point x="425.0" y="866.0"/>
      <point x="366.0" y="907.0" type="curve" smooth="yes"/>
      <point x="329.0" y="932.0"/>
      <point x="300.0" y="950.0"/>
      <point x="264.0" y="950.0" type="curve" smooth="yes"/>
      <point x="228.32" y="950.0"/>
      <point x="205.02" y="922.78"/>
      <point x="205.02" y="890.2" type="curve" smooth="yes"/>
      <point x="205.02" y="867.98"/>
      <point x="215.86" y="843.27"/>
      <point x="241.0" y="823.0" type="curve"/>
      <point x="278.0" y="822.0" type="line"/>
      <point x="252.42" y="850.78"/>
      <point x="235.83" y="887.33"/>
      <point x="235.83" y="909.94" type="curve" smooth="yes"/>
      <point x="235.83" y="922.68"/>
      <point x="241.1" y="931.0"/>
      <point x="253.0" y="931.0" type="curve" smooth="yes"/>
      <point x="276.0" y="931.0"/>
      <point x="303.0" y="906.0"/>
      <point x="362.0" y="865.0" type="curve" smooth="yes"/>
      <point x="399.0" y="840.0"/>
      <point x="428.0" y="822.0"/>
      <point x="464.0" y="822.0" type="curve" smooth="yes"/>
      <point x="499.67" y="822.0"/>
      <point x="522.97" y="849.22"/>
      <point x="522.97" y="881.8" type="curve" smooth="yes"/>
      <point x="522.97" y="904.02"/>
      <point x="512.14" y="928.73"/>
    </contour>
    <contour>
      <point x="379.0" y="-5.0" type="curve" smooth="yes"/>
      <point x="590.0" y="-5.0"/>
      <point x="728.0" y="151.0"/>
      <point x="728.0" y="348.0" type="curve" smooth="yes"/>
      <point x="728.0" y="546.0"/>
      <point x="590.0" y="705.0"/>
      <point x="379.0" y="705.0" type="curve" smooth="yes"/>
      <point x="168.0" y="705.0"/>
      <point x="30.0" y="546.0"/>
      <point x="30.0" y="348.0" type="curve" smooth="yes"/>
      <point x="30.0" y="152.0"/>
      <point x="169.0" y="-5.0"/>
    </contour>
    <contour>
      <point x="379.0" y="26.0" type="curve" smooth="yes"/>
      <point x="195.0" y="26.0"/>
      <point x="73.0" y="164.0"/>
      <point x="73.0" y="348.0" type="curve" smooth="yes"/>
      <point x="73.0" y="533.0"/>
      <point x="196.0" y="674.0"/>
      <point x="379.0" y="674.0" type="curve" smooth="yes"/>
      <point x="563.0" y="674.0"/>
      <point x="685.0" y="533.0"/>
      <point x="685.0" y="348.0" type="curve" smooth="yes"/>
      <point x="685.0" y="164.0"/>
      <point x="563.0" y="26.0"/>
    </contour>
  </outline>
</glyph>
<glyph name="multiply" format="2">
  <advance width="600"/>
  <unicode hex="00D7"/>
  <outline>
    <contour>
      <point x="79" y="29" type="line"/>
      <point x="309.52" y="260" type="line"/>
      <point x="541" y="29" type="line"/>
      <point x="565" y="52" type="line"/>
      <point x="333" y="283.52" type="line"/>
      <point x="565" y="516" type="line"/>
      <point x="542" y="540" type="line"/>
      <point x="309.47" y="307" type="line"/>
      <point x="77" y="539" type="line"/>
      <point x="54" y="515" type="line"/>
      <point x="286" y="283.47" type="line"/>
      <point x="55" y="52" type="line"/>
    </contour>
  </outline>
</glyph>
<glyph name="Oslash" format="2">
  <advance width="758.0"/>
  <unicode hex="00D8"/>
  <note>
Oslash
</note>
  <outline>
    <contour>
      <point x="505.99" y="683.54" type="curve"/>
      <point x="536.0" y="785.0" type="line"/>
      <point x="501.0" y="785.0" type="line"/>
      <point x="473.91" y="693.4" type="line"/>
      <point x="444.3" y="700.97"/>
      <point x="412.57" y="705.0"/>
      <point x="379.0" y="705.0" type="curve" smooth="yes"/>
      <point x="168.0" y="705.0"/>
      <point x="30.0" y="546.0"/>
      <point x="30.0" y="348.0" type="curve" smooth="yes"/>
      <point x="30.0" y="187.67"/>
      <point x="123.01" y="53.44"/>
      <point x="271.8" y="9.89" type="curve"/>
      <point x="247.0" y="-74.0" type="line"/>
      <point x="282.0" y="-74.0" type="line"/>
      <point x="304.46" y="1.98" type="line"/>
      <point x="328.13" y="-2.6"/>
      <point x="353.02" y="-5.0"/>
      <point x="378.99" y="-5.0" type="curve" smooth="yes"/>
      <point x="589.99" y="-5.0"/>
      <point x="727.99" y="151.0"/>
      <point x="727.99" y="348.0" type="curve" smooth="yes"/>
      <point x="727.99" y="502.8"/>
      <point x="643.64" y="633.77"/>
    </contour>
    <contour>
      <point x="72.99" y="348.0" type="curve" smooth="yes"/>
      <point x="72.99" y="533.0"/>
      <point x="195.99" y="674.0"/>
      <point x="378.99" y="674.0" type="curve" smooth="yes"/>
      <point x="409.41" y="674.0"/>
      <point x="438.13" y="670.15"/>
      <point x="464.88" y="662.88" type="curve"/>
      <point x="280.83" y="40.44" type="line"/>
      <point x="152.87" y="80.35"/>
      <point x="72.99" y="199.12"/>
    </contour>
    <contour>
      <point x="378.99" y="26.0" type="curve" smooth="yes"/>
      <point x="356.13" y="26.0"/>
      <point x="334.23" y="28.13"/>
      <point x="313.4" y="32.22" type="curve"/>
      <point x="496.74" y="652.27" type="line"/>
      <point x="613.22" y="605.91"/>
      <point x="684.99" y="489.9"/>
      <point x="684.99" y="348.0" type="curve" smooth="yes"/>
      <point x="684.99" y="164.0"/>
      <point x="562.99" y="26.0"/>
    </contour>
  </outline>
</glyph>
<glyph name="Udieresis" format="2">
  <advance width="622.0"/>
  <unicode hex="00DC"/>
  <note>
Udieresis
</note>
  <outline>
    <contour>
      <point x="208.0" y="831.0" type="line"/>
      <point x="208.0" y="873.0" type="line"/>
      <point x="166.0" y="873.0" type="line"/>
      <point x="166.0" y="831.0" type="line"/>
    </contour>
    <contour>
      <point x="456.0" y="831.0" type="line"/>
      <point x="456.0" y="873.0" type="line"/>
      <point x="414.0" y="873.0" type="line"/>
      <point x="414.0" y="831.0" type="line"/>
    </contour>
    <contour>
      <point x="562.0" y="212.0" type="curve"/>
      <point x="561.0" y="700.0" type="line"/>
      <point x="519.0" y="700.0" type="line"/>
      <point x="519.0" y="212.0" type="line" smooth="yes"/>
      <point x="519.0" y="75.0"/>
      <point x="428.0" y="15.0"/>
      <point x="311.0" y="15.0" type="curve" smooth="yes"/>
      <point x="194.0" y="15.0"/>
      <point x="103.0" y="75.0"/>
      <point x="103.0" y="212.0" type="curve" smooth="yes"/>
      <point x="103.0" y="700.0" type="line"/>
      <point x="61.0" y="700.0" type="line"/>
      <point x="60.0" y="212.0" type="line" smooth="yes"/>
      <point x="60.0" y="58.0"/>
      <point x="162.0" y="-12.0"/>
      <point x="311.0" y="-12.0" type="curve" smooth="yes"/>
      <point x="460.0" y="-12.0"/>
      <point x="562.0" y="58.0"/>
    </contour>
  </outline>
</glyph>
<glyph name="Thorn" format="2">
  <advance width="531.0"/>
  <unicode hex="00DE"/>
  <note>
Thorn
</note>
  <outline>
    <contour>
      <point x="295.0" y="585.0" type="curve" smooth="yes"/>
      <point x="136.0" y="585.0" type="line"/>
      <point x="136.0" y="700.0" type="line"/>
      <point x="93.0" y="700.0" type="line"/>
      <point x="93.0" y="0.0" type="line"/>
      <point x="136.0" y="0.0" type="line"/>
      <point x="136.0" y="221.0" type="line"/>
      <point x="289.0" y="221.0" type="line" smooth="yes"/>
      <point x="398.0" y="221.0"/>
      <point x="498.0" y="268.0"/>
      <point x="498.0" y="405.0" type="curve" smooth="yes"/>
      <point x="498.0" y="540.0"/>
      <point x="393.0" y="585.0"/>
    </contour>
    <contour>
      <point x="289.0" y="253.0" type="curve" smooth="yes"/>
      <point x="136.0" y="253.0" type="line"/>
      <point x="136.0" y="554.0" type="line"/>
      <point x="292.0" y="554.0" type="line" smooth="yes"/>
      <point x="385.0" y="554.0"/>
      <point x="455.0" y="507.0"/>
      <point x="455.0" y="405.0" type="curve" smooth="yes"/>
      <point x="455.0" y="306.0"/>
      <point x="388.0" y="253.0"/>
    </contour>
  </outline>
</glyph>
<glyph name="germandbls" format="2">
  <advance width="596"/>
  <unicode hex="00DF"/>
  <outline>
    <contour>
      <point x="43" y="-16" type="line"/>
      <point x="87" y="-16" type="line"/>
      <point x="87" y="531" type="line" smooth="yes"/>
      <point x="87" y="631"/>
      <point x="145" y="688"/>
      <point x="241" y="688" type="curve" smooth="yes"/>
      <point x="342" y="688"/>
      <point x="401" y="631"/>
      <point x="401" y="551" type="curve" smooth="yes"/>
      <point x="401" y="477"/>
      <point x="374" y="431"/>
      <point x="280" y="431" type="curve" smooth="yes"/>
      <point x="263" y="431" type="line"/>
      <point x="263" y="405" type="line"/>
      <point x="303" y="405" type="line" smooth="yes"/>
      <point x="435" y="405"/>
      <point x="533" y="332"/>
      <point x="533" y="201" type="curve" smooth="yes"/>
      <point x="533" y="72"/>
      <point x="436" y="17"/>
      <point x="297" y="17" type="curve" smooth="yes"/>
      <point x="271" y="17"/>
      <point x="241" y="23"/>
      <point x="215" y="31" type="curve"/>
      <point x="215" y="4" type="line"/>
      <point x="239" y="-6"/>
      <point x="276" y="-16"/>
      <point x="308" y="-16" type="curve" smooth="yes"/>
      <point x="469" y="-16"/>
      <point x="578" y="53"/>
      <point x="578" y="201" type="curve" smooth="yes"/>
      <point x="578" y="304"/>
      <point x="508" y="405"/>
      <point x="364" y="425" type="curve"/>
      <point x="430" y="452"/>
      <point x="445" y="501"/>
      <point x="445" y="563" type="curve" smooth="yes"/>
      <point x="445" y="650"/>
      <point x="356" y="716"/>
      <point x="241" y="716" type="curve" smooth="yes"/>
      <point x="123" y="716"/>
      <point x="43" y="641"/>
      <point x="43" y="520" type="curve" smooth="yes"/>
    </contour>
  </outline>
</glyph>
<glyph name="acircumflex" format="2">
  <advance width="517.0"/>
  <unicode hex="00E2"/>
  <note>
acircumflex
</note>
  <outline>
    <contour>
      <point x="104.0" y="610.0" type="line"/>
      <point x="146.0" y="596.0" type="line"/>
      <point x="259.0" y="701.52" type="line"/>
      <point x="372.0" y="596.0" type="line"/>
      <point x="414.0" y="610.0" type="line"/>
      <point x="260.0" y="747.0" type="line"/>
      <point x="259.0" y="746.0" type="line"/>
      <point x="258.0" y="747.0" type="line"/>
    </contour>
    <contour>
      <point x="265.0" y="511.0" type="curve" smooth="yes"/>
      <point x="162.0" y="511.0"/>
      <point x="78.0" y="456.0"/>
      <point x="67.0" y="393.0" type="curve"/>
      <point x="131.0" y="392.0" type="line"/>
      <point x="143.0" y="437.0"/>
      <point x="180.0" y="493.0"/>
      <point x="265.0" y="493.0" type="curve" smooth="yes"/>
      <point x="363.58" y="493.0"/>
      <point x="407.58" y="445.15"/>
      <point x="415.51" y="379.51" type="curve" smooth="yes"/>
      <point x="415.98" y="375.64"/>
      <point x="416.21" y="371.89"/>
      <point x="416.21" y="368.26" type="curve" smooth="yes"/>
      <point x="416.21" y="300.86"/>
      <point x="336.99" y="276.26"/>
      <point x="245.0" y="265.0" type="curve" smooth="yes"/>
      <point x="86.0" y="246.0"/>
      <point x="30.0" y="198.0"/>
      <point x="30.0" y="123.0" type="curve" smooth="yes"/>
      <point x="30.0" y="42.0"/>
      <point x="105.0" y="-14.0"/>
      <point x="224.0" y="-14.0" type="curve" smooth="yes"/>
      <point x="322.77" y="-14.0"/>
      <point x="395.53" y="48.9"/>
      <point x="422.99" y="128.14" type="curve"/>
      <point x="422.99" y="0.0" type="line"/>
      <point x="466.99" y="0.0" type="line"/>
      <point x="466.99" y="310.0" type="line" smooth="yes"/>
      <point x="466.99" y="399.0"/>
      <point x="448.99" y="511.0"/>
    </contour>
    <contour>
      <point x="223.99" y="1.99" type="curve" smooth="yes"/>
      <point x="108.99" y="2.0"/>
      <point x="79.99" y="78.0"/>
      <point x="79.99" y="129.0" type="curve" smooth="yes"/>
      <point x="79.99" y="194.0"/>
      <point x="126.99" y="233.0"/>
      <point x="241.99" y="248.0" type="curve" smooth="yes"/>
      <point x="324.82" y="258.62"/>
      <point x="391.11" y="280.76"/>
      <point x="422.77" y="319.76" type="curve"/>
      <point x="422.99" y="198.99" type="line" smooth="yes"/>
      <point x="422.99" y="106.99"/>
      <point x="350.99" y="1.99"/>
    </contour>
  </outline>
</glyph>
<glyph name="atilde" format="2">
  <advance width="517.0"/>
  <unicode hex="00E3"/>
  <note>
atilde
</note>
  <outline>
    <contour>
      <point x="387.0" y="730.0" type="curve"/>
      <point x="350.0" y="731.0" type="line"/>
      <point x="375.58" y="702.22"/>
      <point x="392.16" y="665.67"/>
      <point x="392.16" y="643.06" type="curve" smooth="yes"/>
      <point x="392.16" y="630.31"/>
      <point x="386.89" y="622.0"/>
      <point x="375.0" y="622.0" type="curve" smooth="yes"/>
      <point x="352.0" y="622.0"/>
      <point x="325.0" y="647.0"/>
      <point x="266.0" y="688.0" type="curve" smooth="yes"/>
      <point x="229.0" y="713.0"/>
      <point x="200.0" y="731.0"/>
      <point x="164.0" y="731.0" type="curve" smooth="yes"/>
      <point x="128.32" y="731.0"/>
      <point x="105.02" y="703.78"/>
      <point x="105.02" y="671.2" type="curve" smooth="yes"/>
      <point x="105.02" y="648.98"/>
      <point x="115.86" y="624.27"/>
      <point x="141.0" y="604.0" type="curve"/>
      <point x="178.0" y="603.0" type="line"/>
      <point x="152.42" y="631.78"/>
      <point x="135.83" y="668.33"/>
      <point x="135.83" y="690.94" type="curve" smooth="yes"/>
      <point x="135.83" y="703.68"/>
      <point x="141.1" y="712.0"/>
      <point x="153.0" y="712.0" type="curve" smooth="yes"/>
      <point x="176.0" y="712.0"/>
      <point x="203.0" y="687.0"/>
      <point x="262.0" y="646.0" type="curve" smooth="yes"/>
      <point x="299.0" y="621.0"/>
      <point x="328.0" y="603.0"/>
      <point x="364.0" y="603.0" type="curve" smooth="yes"/>
      <point x="399.67" y="603.0"/>
      <point x="422.97" y="630.22"/>
      <point x="422.97" y="662.8" type="curve" smooth="yes"/>
      <point x="422.97" y="685.02"/>
      <point x="412.14" y="709.73"/>
    </contour>
    <contour>
      <point x="265.0" y="511.0" type="curve" smooth="yes"/>
      <point x="162.0" y="511.0"/>
      <point x="78.0" y="456.0"/>
      <point x="67.0" y="393.0" type="curve"/>
      <point x="131.0" y="392.0" type="line"/>
      <point x="143.0" y="437.0"/>
      <point x="180.0" y="493.0"/>
      <point x="265.0" y="493.0" type="curve" smooth="yes"/>
      <point x="363.58" y="493.0"/>
      <point x="407.58" y="445.15"/>
      <point x="415.51" y="379.51" type="curve" smooth="yes"/>
      <point x="415.98" y="375.64"/>
      <point x="416.21" y="371.89"/>
      <point x="416.21" y="368.26" type="curve" smooth="yes"/>
      <point x="416.21" y="300.86"/>
      <point x="336.99" y="276.26"/>
      <point x="245.0" y="265.0" type="curve" smooth="yes"/>
      <point x="86.0" y="246.0"/>
      <point x="30.0" y="198.0"/>
      <point x="30.0" y="123.0" type="curve" smooth="yes"/>
      <point x="30.0" y="42.0"/>
      <point x="105.0" y="-14.0"/>
      <point x="224.0" y="-14.0" type="curve" smooth="yes"/>
      <point x="322.77" y="-14.0"/>
      <point x="395.53" y="48.9"/>
      <point x="422.99" y="128.14" type="curve"/>
      <point x="422.99" y="0.0" type="line"/>
      <point x="466.99" y="0.0" type="line"/>
      <point x="466.99" y="310.0" type="line" smooth="yes"/>
      <point x="466.99" y="399.0"/>
      <point x="448.99" y="511.0"/>
    </contour>
    <contour>
      <point x="223.99" y="1.99" type="curve" smooth="yes"/>
      <point x="108.99" y="2.0"/>
      <point x="79.99" y="78.0"/>
      <point x="79.99" y="129.0" type="curve" smooth="yes"/>
      <point x="79.99" y="194.0"/>
      <point x="126.99" y="233.0"/>
      <point x="241.99" y="248.0" type="curve" smooth="yes"/>
      <point x="324.82" y="258.62"/>
      <point x="391.11" y="280.76"/>
      <point x="422.77" y="319.76" type="curve"/>
      <point x="422.99" y="198.99" type="line" smooth="yes"/>
      <point x="422.99" y="106.99"/>
      <point x="350.99" y="1.99"/>
    </contour>
  </outline>
</glyph>
<glyph name="igrave" format="2">
  <advance width="248.0"/>
  <unicode hex="00EC"/>
  <note>
igrave
</note>
  <outline>
    <contour>
      <point x="164.0" y="656.0" type="line"/>
      <point x="181.0" y="661.0" type="line"/>
      <point x="61.0" y="774.0" type="line"/>
      <point x="38.0" y="735.0" type="line"/>
    </contour>
    <contour>
      <point x="146.0" y="0.0" type="line"/>
      <point x="146.0" y="500.0" type="line"/>
      <point x="102.0" y="500.0" type="line"/>
      <point x="102.0" y="0.0" type="line"/>
    </contour>
  </outline>
</glyph>
<glyph name="iacute" format="2">
  <advance width="248.0"/>
  <unicode hex="00ED"/>
  <note>
iacute
</note>
  <outline>
    <contour>
      <point x="183.0" y="774.0" type="line"/>
      <point x="63.0" y="661.0" type="line"/>
      <point x="80.0" y="656.0" type="line"/>
      <point x="206.0" y="735.0" type="line"/>
    </contour>
    <contour>
      <point x="146.0" y="0.0" type="line"/>
      <point x="146.0" y="500.0" type="line"/>
      <point x="102.0" y="500.0" type="line"/>
      <point x="102.0" y="0.0" type="line"/>
    </contour>
  </outline>
</glyph>
<glyph name="eth" format="2">
  <advance width="573"/>
  <unicode hex="00F0"/>
  <outline>
    <contour>
      <point x="283.99" y="-34.01" type="curve" smooth="yes"/>
      <point x="466" y="-34"/>
      <point x="553" y="128"/>
      <point x="552.99" y="311.98" type="curve" smooth="yes"/>
      <point x="553" y="509.95"/>
      <point x="446.01" y="663.6"/>
      <point x="268.24" y="745.05" type="curve"/>
      <point x="326.99" y="795.99" type="line"/>
      <point x="307.99" y="814.99" type="line"/>
      <point x="240.87" y="756.79" type="line"/>
      <point x="191.3" y="776.66"/>
      <point x="136.78" y="791.24"/>
      <point x="77.99" y="799.99" type="curve"/>
      <point x="77.99" y="763.99" type="line"/>
      <point x="125.46" y="755.24"/>
      <point x="168.75" y="743.23"/>
      <point x="208.02" y="728.3" type="curve"/>
      <point x="149.99" y="677.99" type="line"/>
      <point x="168.99" y="658.99" type="line"/>
      <point x="235.84" y="716.95" type="line"/>
      <point x="407.06" y="642.09"/>
      <point x="494.37" y="507.56"/>
      <point x="511.74" y="346.79" type="curve"/>
      <point x="470.17" y="422.43"/>
      <point x="390.75" y="490.99"/>
      <point x="286.99" y="490.99" type="curve" smooth="yes"/>
      <point x="145" y="491"/>
      <point x="38" y="389"/>
      <point x="37.99" y="235.99" type="curve" smooth="yes"/>
      <point x="38" y="100"/>
      <point x="123" y="-34"/>
    </contour>
    <contour>
      <point x="288.99" y="-4.02" type="curve" smooth="yes"/>
      <point x="169.99" y="-4.02"/>
      <point x="84.99" y="103.98"/>
      <point x="84.99" y="240.98" type="curve" smooth="yes"/>
      <point x="85" y="364"/>
      <point x="165" y="462"/>
      <point x="289.99" y="461.98" type="curve" smooth="yes"/>
      <point x="407.99" y="461.98"/>
      <point x="509.99" y="371.98"/>
      <point x="509.99" y="220.98" type="curve" smooth="yes"/>
      <point x="510" y="93"/>
      <point x="419" y="-4"/>
    </contour>
  </outline>
</glyph>
<glyph name="ntilde" format="2">
  <advance width="571.0"/>
  <unicode hex="00F1"/>
  <note>
ntilde
</note>
  <outline>
    <contour>
      <point x="395.0" y="789.0" type="curve"/>
      <point x="358.0" y="790.0" type="line"/>
      <point x="383.58" y="761.22"/>
      <point x="400.16" y="724.67"/>
      <point x="400.16" y="702.06" type="curve" smooth="yes"/>
      <point x="400.16" y="689.31"/>
      <point x="394.89" y="681.0"/>
      <point x="383.0" y="681.0" type="curve" smooth="yes"/>
      <point x="360.0" y="681.0"/>
      <point x="333.0" y="706.0"/>
      <point x="274.0" y="747.0" type="curve" smooth="yes"/>
      <point x="237.0" y="772.0"/>
      <point x="208.0" y="790.0"/>
      <point x="172.0" y="790.0" type="curve" smooth="yes"/>
      <point x="136.32" y="790.0"/>
      <point x="113.02" y="762.78"/>
      <point x="113.02" y="730.2" type="curve" smooth="yes"/>
      <point x="113.02" y="707.98"/>
      <point x="123.86" y="683.27"/>
      <point x="149.0" y="663.0" type="curve"/>
      <point x="186.0" y="662.0" type="line"/>
      <point x="160.42" y="690.78"/>
      <point x="143.83" y="727.33"/>
      <point x="143.83" y="749.94" type="curve" smooth="yes"/>
      <point x="143.83" y="762.68"/>
      <point x="149.1" y="771.0"/>
      <point x="161.0" y="771.0" type="curve" smooth="yes"/>
      <point x="184.0" y="771.0"/>
      <point x="211.0" y="746.0"/>
      <point x="270.0" y="705.0" type="curve" smooth="yes"/>
      <point x="307.0" y="680.0"/>
      <point x="336.0" y="662.0"/>
      <point x="372.0" y="662.0" type="curve" smooth="yes"/>
      <point x="407.67" y="662.0"/>
      <point x="430.97" y="689.22"/>
      <point x="430.97" y="721.8" type="curve" smooth="yes"/>
      <point x="430.97" y="744.02"/>
      <point x="420.14" y="768.73"/>
    </contour>
    <contour>
      <point x="320.0" y="507.0" type="curve" smooth="yes"/>
      <point x="224.49" y="507.0"/>
      <point x="124.31" y="435.69"/>
      <point x="94.0" y="342.59" type="curve"/>
      <point x="94.0" y="500.0" type="line"/>
      <point x="50.0" y="500.0" type="line"/>
      <point x="50.0" y="1.0" type="line"/>
      <point x="94.0" y="1.0" type="line"/>
      <point x="94.0" y="277.0" type="line"/>
      <point x="111.0" y="420.0"/>
      <point x="218.0" y="482.0"/>
      <point x="307.0" y="482.0" type="curve" smooth="yes"/>
      <point x="432.0" y="482.0"/>
      <point x="477.0" y="398.0"/>
      <point x="477.0" y="304.0" type="curve" smooth="yes"/>
      <point x="477.0" y="1.0" type="line"/>
      <point x="521.0" y="1.0" type="line"/>
      <point x="521.0" y="304.0" type="line" smooth="yes"/>
      <point x="521.0" y="409.0"/>
      <point x="482.0" y="507.0"/>
    </contour>
  </outline>
</glyph>
<glyph name="oslash" format="2">
  <advance width="577.0"/>
  <unicode hex="00F8"/>
  <note>
oslash
</note>
  <outline>
    <contour>
      <point x="362.07" y="502.48" type="curve"/>
      <point x="419.0" y="695.0" type="line"/>
      <point x="384.0" y="695.0" type="line"/>
      <point x="329.06" y="509.22" type="line"/>
      <point x="315.98" y="511.05"/>
      <point x="302.46" y="511.99"/>
      <point x="288.54" y="511.99" type="curve" smooth="yes"/>
      <point x="135.1" y="511.99"/>
      <point x="30.0" y="396.99"/>
      <point x="30.0" y="246.99" type="curve" smooth="yes"/>
      <point x="30.0" y="136.21"/>
      <point x="87.51" y="45.89"/>
      <point x="180.51" y="6.84" type="curve"/>
      <point x="130.0" y="-164.01" type="line"/>
      <point x="165.0" y="-164.01" type="line"/>
      <point x="212.28" y="-4.1" type="line"/>
      <point x="235.96" y="-10.57"/>
      <point x="261.48" y="-14.01"/>
      <point x="288.54" y="-14.01" type="curve" smooth="yes"/>
      <point x="443.04" y="-14.01"/>
      <point x="547.09" y="97.99"/>
      <point x="547.09" y="246.99" type="curve" smooth="yes"/>
      <point x="547.09" y="371.59"/>
      <point x="474.58" y="472.03"/>
    </contour>
    <contour>
      <point x="80.6" y="246.99" type="curve" smooth="yes"/>
      <point x="80.6" y="381.99"/>
      <point x="160.32" y="497.99"/>
      <point x="288.55" y="497.99" type="curve" smooth="yes"/>
      <point x="301.1" y="497.99"/>
      <point x="313.19" y="496.88"/>
      <point x="324.79" y="494.74" type="curve"/>
      <point x="186.44" y="26.85" type="line"/>
      <point x="119.42" y="69.24"/>
      <point x="80.6" y="153.49"/>
    </contour>
    <contour>
      <point x="288.55" y="-2.02" type="curve" smooth="yes"/>
      <point x="262.57" y="-2.01"/>
      <point x="238.59" y="2.71"/>
      <point x="216.85" y="11.35" type="curve"/>
      <point x="357.12" y="485.73" type="line"/>
      <point x="444.57" y="452.52"/>
      <point x="496.5" y="355.94"/>
      <point x="496.5" y="246.98" type="curve" smooth="yes"/>
      <point x="496.5" y="112.98"/>
      <point x="416.77" y="-2.02"/>
    </contour>
  </outline>
</glyph>
<glyph name="ugrave" format="2">
  <advance width="570.0"/>
  <unicode hex="00F9"/>
  <note>
ugrave
</note>
  <outline>
    <contour>
      <point x="326.0" y="656.0" type="line"/>
      <point x="343.0" y="661.0" type="line"/>
      <point x="223.0" y="774.0" type="line"/>
      <point x="200.0" y="735.0" type="line"/>
    </contour>
    <contour>
      <point x="476.0" y="145.72" type="curve"/>
      <point x="476.0" y="1.0" type="line"/>
      <point x="520.0" y="1.0" type="line"/>
      <point x="520.0" y="500.0" type="line"/>
      <point x="476.0" y="500.0" type="line"/>
      <point x="476.0" y="224.0" type="line"/>
      <point x="461.0" y="55.0"/>
      <point x="350.0" y="18.0"/>
      <point x="264.0" y="18.0" type="curve" smooth="yes"/>
      <point x="139.0" y="18.0"/>
      <point x="94.0" y="103.0"/>
      <point x="94.0" y="197.0" type="curve" smooth="yes"/>
      <point x="94.0" y="500.0" type="line"/>
      <point x="50.0" y="500.0" type="line"/>
      <point x="50.0" y="197.0" type="line" smooth="yes"/>
      <point x="50.0" y="92.0"/>
      <point x="89.0" y="-7.0"/>
      <point x="251.0" y="-7.0" type="curve" smooth="yes"/>
      <point x="351.58" y="-7.0"/>
      <point x="449.52" y="44.97"/>
    </contour>
  </outline>
</glyph>
<glyph name="ucircumflex" format="2">
  <advance width="570.0"/>
  <unicode hex="00FB"/>
  <note>
ucircumflex
</note>
  <outline>
    <contour>
      <point x="132.0" y="670.0" type="line"/>
      <point x="174.0" y="656.0" type="line"/>
      <point x="287.0" y="761.52" type="line"/>
      <point x="400.0" y="656.0" type="line"/>
      <point x="442.0" y="670.0" type="line"/>
      <point x="288.0" y="807.0" type="line"/>
      <point x="287.0" y="806.0" type="line"/>
      <point x="286.0" y="807.0" type="line"/>
    </contour>
    <contour>
      <point x="476.0" y="145.72" type="curve"/>
      <point x="476.0" y="1.0" type="line"/>
      <point x="520.0" y="1.0" type="line"/>
      <point x="520.0" y="500.0" type="line"/>
      <point x="476.0" y="500.0" type="line"/>
      <point x="476.0" y="224.0" type="line"/>
      <point x="461.0" y="55.0"/>
      <point x="350.0" y="18.0"/>
      <point x="264.0" y="18.0" type="curve" smooth="yes"/>
      <point x="139.0" y="18.0"/>
      <point x="94.0" y="103.0"/>
      <point x="94.0" y="197.0" type="curve" smooth="yes"/>
      <point x="94.0" y="500.0" type="line"/>
      <point x="50.0" y="500.0" type="line"/>
      <point x="50.0" y="197.0" type="line" smooth="yes"/>
      <point x="50.0" y="92.0"/>
      <point x="89.0" y="-7.0"/>
      <point x="251.0" y="-7.0" type="curve" smooth="yes"/>
      <point x="351.58" y="-7.0"/>
      <point x="449.52" y="44.97"/>
    </contour>
  </outline>
</glyph>
<glyph name="udieresis" format="2">
  <advance width="570.0"/>
  <unicode hex="00FC"/>
  <note>
udieresis
</note>
  <outline>
    <contour>
      <point x="183.0" y="672.0" type="line"/>
      <point x="183.0" y="714.0" type="line"/>
      <point x="141.0" y="714.0" type="line"/>
      <point x="141.0" y="672.0" type="line"/>
    </contour>
    <contour>
      <point x="431.0" y="672.0" type="line"/>
      <point x="431.0" y="714.0" type="line"/>
      <point x="389.0" y="714.0" type="line"/>
      <point x="389.0" y="672.0" type="line"/>
    </contour>
    <contour>
      <point x="476.0" y="145.72" type="curve"/>
      <point x="476.0" y="1.0" type="line"/>
      <point x="520.0" y="1.0" type="line"/>
      <point x="520.0" y="500.0" type="line"/>
      <point x="476.0" y="500.0" type="line"/>
      <point x="476.0" y="224.0" type="line"/>
      <point x="461.0" y="55.0"/>
      <point x="350.0" y="18.0"/>
      <point x="264.0" y="18.0" type="curve" smooth="yes"/>
      <point x="139.0" y="18.0"/>
      <point x="94.0" y="103.0"/>
      <point x="94.0" y="197.0" type="curve" smooth="yes"/>
      <point x="94.0" y="500.0" type="line"/>
      <point x="50.0" y="500.0" type="line"/>
      <point x="50.0" y="197.0" type="line" smooth="yes"/>
      <point x="50.0" y="92.0"/>
      <point x="89.0" y="-7.0"/>
      <point x="251.0" y="-7.0" type="curve" smooth="yes"/>
      <point x="351.58" y="-7.0"/>
      <point x="449.52" y="44.97"/>
    </contour>
  </outline>
</glyph>
<glyph name="thorn" format="2">
  <advance width="563"/>
  <unicode hex="00FE"/>
  <outline>
    <contour>
      <point x="36" y="-238" type="line"/>
      <point x="81" y="-238" type="line"/>
      <point x="81" y="96" type="line"/>
      <point x="74.2" y="176.56" type="line"/>
      <point x="95.79" y="77.85"/>
      <point x="166.51" y="-18.99"/>
      <point x="294" y="-18.99" type="curve" smooth="yes"/>
      <point x="446" y="-18.99"/>
      <point x="543" y="91.01"/>
      <point x="543" y="242.01" type="curve" smooth="yes"/>
      <point x="543" y="394.01"/>
      <point x="446" y="506.01"/>
      <point x="294" y="506.01" type="curve" smooth="yes"/>
      <point x="165.85" y="506"/>
      <point x="95.06" y="407.48"/>
      <point x="73.87" y="306.89" type="curve"/>
      <point x="81" y="376" type="line"/>
      <point x="81" y="808" type="line"/>
      <point x="37" y="808" type="line"/>
    </contour>
    <contour>
      <point x="294" y="10.01" type="curve" smooth="yes"/>
      <point x="173" y="10.01"/>
      <point x="72" y="100.01"/>
      <point x="72" y="242.01" type="curve" smooth="yes"/>
      <point x="72" y="387.01"/>
      <point x="173" y="476.01"/>
      <point x="294" y="476.01" type="curve" smooth="yes"/>
      <point x="416" y="476.01"/>
      <point x="498" y="371.01"/>
      <point x="498" y="242.01" type="curve" smooth="yes"/>
      <point x="498" y="115.01"/>
      <point x="417" y="10.01"/>
    </contour>
  </outline>
</glyph>
<glyph name="ydieresis" format="2">
  <advance width="532.0"/>
  <unicode hex="00FF"/>
  <note>
ydieresis
</note>
  <outline>
    <contour>
      <point x="162.0" y="688.0" type="line"/>
      <point x="162.0" y="730.0" type="line"/>
      <point x="120.0" y="730.0" type="line"/>
      <point x="120.0" y="688.0" type="line"/>
    </contour>
    <contour>
      <point x="410.0" y="688.0" type="line"/>
      <point x="410.0" y="730.0" type="line"/>
      <point x="368.0" y="730.0" type="line"/>
      <point x="368.0" y="688.0" type="line"/>
    </contour>
    <contour>
      <point x="270.55" y="55.89" type="line"/>
      <point x="166.0" y="-200.0" type="line"/>
      <point x="210.0" y="-200.0" type="line"/>
      <point x="495.0" y="500.0" type="line"/>
      <point x="452.0" y="500.0" type="line"/>
      <point x="291.89" y="108.13" type="line"/>
      <point x="100.0" y="500.0" type="line"/>
      <point x="47.0" y="500.0" type="line"/>
    </contour>
  </outline>
</glyph>
<glyph name="dcroat" format="2">
  <advance width="586"/>
  <unicode hex="0111"/>
  <anchor x="320" y="0" name="bottom"/>
  <anchor x="670" y="500" name="top"/>
  <outline>
    <contour>
      <point x="586" y="598" type="line"/>
      <point x="586" y="640" type="line"/>
      <point x="406" y="640" type="line"/>
      <point x="406" y="598" type="line"/>
    </contour>
    <component base="d"/>
  </outline>
</glyph>
<glyph name="Hbar" format="2">
  <advance width="779"/>
  <unicode hex="0126"/>
  <anchor x="390" y="0" name="bottom"/>
  <anchor x="390" y="700" name="top"/>
  <outline>
    <contour>
      <point x="759" y="505" type="line"/>
      <point x="759" y="547" type="line"/>
      <point x="20" y="547" type="line"/>
      <point x="20" y="505" type="line"/>
    </contour>
    <component base="H" xOffset="39"/>
  </outline>
</glyph>
<glyph name="hbar" format="2">
  <advance width="572"/>
  <unicode hex="0127"/>
  <anchor x="285" y="0" name="bottom"/>
  <anchor x="285" y="700" name="top"/>
  <outline>
    <contour>
      <point x="189" y="589" type="line"/>
      <point x="189" y="631" type="line"/>
      <point x="9" y="631" type="line"/>
      <point x="9" y="589" type="line"/>
    </contour>
    <component base="h"/>
  </outline>
</glyph>
<glyph name="dotlessi" format="2">
  <advance width="204"/>
  <unicode hex="0131"/>
  <anchor x="102" y="0" name="bottom"/>
  <anchor x="80" y="0" name="ogonek"/>
  <anchor x="102" y="500" name="top"/>
  <outline>
    <contour>
      <point x="80" y="0" type="line"/>
      <point x="124" y="0" type="line"/>
      <point x="124" y="500" type="line"/>
      <point x="80" y="500" type="line"/>
    </contour>
  </outline>
</glyph>
<glyph name="kgreenlandic" format="2">
  <advance width="467"/>
  <unicode hex="0138"/>
  <outline>
    <contour>
      <point x="50" y="0" type="line"/>
      <point x="94" y="0" type="line"/>
      <point x="94" y="204" type="line"/>
      <point x="83" y="168" type="line"/>
      <point x="217" y="307" type="line"/>
      <point x="191" y="305" type="line"/>
      <point x="395" y="0" type="line"/>
      <point x="447" y="0" type="line"/>
      <point x="223" y="338" type="line"/>
      <point x="217" y="307" type="line"/>
      <point x="403" y="500" type="line"/>
      <point x="350" y="500" type="line"/>
      <point x="81" y="221" type="line"/>
      <point x="94" y="221" type="line"/>
      <point x="94" y="500" type="line"/>
      <point x="50" y="500" type="line"/>
    </contour>
  </outline>
</glyph>
<glyph name="Lslash" format="2">
  <advance width="697"/>
  <unicode hex="0141"/>
  <outline>
    <contour>
      <point x="171" y="0" type="line"/>
      <point x="650" y="0" type="line"/>
      <point x="650" y="30" type="line"/>
      <point x="213" y="30" type="line"/>
      <point x="213" y="391.5" type="line"/>
      <point x="344" y="429" type="line"/>
      <point x="344" y="465" type="line"/>
      <point x="213" y="427.5" type="line"/>
      <point x="213" y="700" type="line"/>
      <point x="171" y="700" type="line"/>
      <point x="171" y="415.48" type="line"/>
      <point x="54" y="382" type="line"/>
      <point x="54" y="346" type="line"/>
      <point x="171" y="379.48" type="line"/>
    </contour>
  </outline>
</glyph>
<glyph name="lslash" format="2">
  <advance width="472"/>
  <unicode hex="0142"/>
  <outline>
    <contour>
      <point x="163" y="0" type="line"/>
      <point x="207" y="0" type="line"/>
      <point x="207" y="381.2" type="line"/>
      <point x="388" y="433" type="line"/>
      <point x="388" y="470" type="line"/>
      <point x="207" y="418.2" type="line"/>
      <point x="207" y="700" type="line"/>
      <point x="163" y="700" type="line"/>
      <point x="163" y="405.61" type="line"/>
      <point x="84" y="383" type="line"/>
      <point x="84" y="346" type="line"/>
      <point x="163" y="368.61" type="line"/>
    </contour>
  </outline>
</glyph>
<glyph name="Eng" format="2">
  <advance width="599"/>
  <unicode hex="014A"/>
  <anchor x="300" y="0" name="bottom"/>
  <anchor x="300" y="700" name="top"/>
  <outline>
    <contour>
      <point x="543" y="0" type="line"/>
      <point x="498" y="0" type="line"/>
      <point x="498" y="-125" type="line" smooth="yes"/>
      <point x="498" y="-152"/>
      <point x="487" y="-166"/>
      <point x="452" y="-166" type="curve" smooth="yes"/>
      <point x="430" y="-166"/>
      <point x="409" y="-157"/>
      <point x="383" y="-135" type="curve"/>
      <point x="379" y="-169" type="line"/>
      <point x="398" y="-185"/>
      <point x="426" y="-203"/>
      <point x="459" y="-203" type="curve" smooth="yes"/>
      <point x="518" y="-203"/>
      <point x="543" y="-169"/>
      <point x="543" y="-125" type="curve" smooth="yes"/>
    </contour>
    <component base="N"/>
  </outline>
</glyph>
<glyph name="eng" format="2">
  <advance width="571"/>
  <unicode hex="014B"/>
  <anchor x="290" y="0" name="bottom"/>
  <anchor x="280" y="500" name="top"/>
  <outline>
    <contour>
      <point x="521" y="0" type="line"/>
      <point x="477" y="0" type="line"/>
      <point x="477" y="-125" type="line" smooth="yes"/>
      <point x="477" y="-152"/>
      <point x="466" y="-166"/>
      <point x="431" y="-166" type="curve" smooth="yes"/>
      <point x="409" y="-166"/>
      <point x="388" y="-157"/>
      <point x="362" y="-135" type="curve"/>
      <point x="358" y="-169" type="line"/>
      <point x="377" y="-185"/>
      <point x="405" y="-203"/>
      <point x="438" y="-203" type="curve" smooth="yes"/>
      <point x="497" y="-203"/>
      <point x="521" y="-169"/>
      <point x="521" y="-125" type="curve" smooth="yes"/>
    </contour>
    <component base="n"/>
  </outline>
</glyph>
<glyph name="OE" format="2">
  <advance width="1157.0"/>
  <unicode hex="0152"/>
  <note>
OE
</note>
  <outline>
    <contour>
      <point x="583.0" y="0.0" type="line"/>
      <point x="1110.0" y="0.0" type="line"/>
      <point x="1110.0" y="30.0" type="line"/>
      <point x="625.0" y="30.0" type="line"/>
      <point x="625.0" y="338.0" type="line"/>
      <point x="1088.0" y="338.0" type="line"/>
      <point x="1088.0" y="370.0" type="line"/>
      <point x="625.0" y="370.0" type="line"/>
      <point x="625.0" y="669.0" type="line"/>
      <point x="1099.0" y="669.0" type="line"/>
      <point x="1099.0" y="700.0" type="line"/>
      <point x="583.0" y="700.0" type="line"/>
      <point x="583.0" y="625.54" type="line"/>
      <point x="524.76" y="675.13"/>
      <point x="447.64" y="705.0"/>
      <point x="355.99" y="705.0" type="curve" smooth="yes"/>
      <point x="144.99" y="705.0"/>
      <point x="7.99" y="546.0"/>
      <point x="7.99" y="348.0" type="curve" smooth="yes"/>
      <point x="7.99" y="152.0"/>
      <point x="145.99" y="-5.0"/>
      <point x="355.99" y="-5.0" type="curve" smooth="yes"/>
      <point x="447.64" y="-5.0"/>
      <point x="524.76" y="24.06"/>
      <point x="583.0" y="73.49" type="curve"/>
    </contour>
    <contour>
      <point x="356.0" y="26.0" type="curve" smooth="yes"/>
      <point x="172.0" y="26.0"/>
      <point x="50.0" y="164.0"/>
      <point x="50.0" y="348.0" type="curve" smooth="yes"/>
      <point x="50.0" y="533.0"/>
      <point x="173.0" y="674.0"/>
      <point x="356.0" y="674.0" type="curve" smooth="yes"/>
      <point x="469.1" y="674.0"/>
      <point x="542.91" y="642.63"/>
      <point x="583.0" y="562.02" type="curve"/>
      <point x="583.0" y="139.67" type="line"/>
      <point x="542.91" y="59.63"/>
      <point x="469.1" y="26.0"/>
    </contour>
    <contour>
      <point x="602.0" y="189.57" type="curve"/>
      <point x="602.0" y="511.47" type="line"/>
      <point x="614.16" y="467.65"/>
      <point x="620.0" y="413.67"/>
      <point x="620.0" y="348.0" type="curve" smooth="yes"/>
      <point x="620.0" y="285.04"/>
      <point x="614.16" y="232.59"/>
    </contour>
  </outline>
</glyph>
<glyph name="Tbar" format="2">
  <advance width="667"/>
  <unicode hex="0166"/>
  <anchor x="333" y="0" name="bottom"/>
  <anchor x="334" y="700" name="top"/>
  <outline>
    <contour>
      <point x="556" y="393" type="line"/>
      <point x="556" y="435" type="line"/>
      <point x="111" y="435" type="line"/>
      <point x="111" y="393" type="line"/>
    </contour>
    <component base="T"/>
  </outline>
</glyph>
<glyph name="tbar" format="2">
  <advance width="459"/>
  <unicode hex="0167"/>
  <anchor x="264" y="0" name="bottom"/>
  <anchor x="143" y="700" name="top"/>
  <outline>
    <contour>
      <point x="325" y="320" type="line"/>
      <point x="325" y="362" type="line"/>
      <point x="26" y="362" type="line"/>
      <point x="26" y="320" type="line"/>
    </contour>
    <component base="t"/>
  </outline>
</glyph>
<glyph name="zcaron" format="2">
  <advance width="489.0"/>
  <unicode hex="017E"/>
  <note>
zcaron
</note>
  <outline>
    <contour>
      <point x="92.0" y="775.0" type="line"/>
      <point x="246.0" y="638.0" type="line"/>
      <point x="247.0" y="639.0" type="line"/>
      <point x="248.0" y="638.0" type="line"/>
      <point x="402.0" y="775.0" type="line"/>
      <point x="360.0" y="789.0" type="line"/>
      <point x="247.0" y="683.48" type="line"/>
      <point x="134.0" y="789.0" type="line"/>
    </contour>
    <contour>
      <point x="466.0" y="0.0" type="line"/>
      <point x="466.0" y="35.0" type="line"/>
      <point x="49.3" y="35.0" type="line"/>
      <point x="483.0" y="465.0" type="line"/>
      <point x="483.0" y="500.0" type="line"/>
      <point x="43.0" y="500.0" type="line"/>
      <point x="43.0" y="465.0" type="line"/>
      <point x="421.9" y="465.0" type="line"/>
      <point x="3.0" y="35.0" type="line"/>
      <point x="3.0" y="0.0" type="line"/>
    </contour>
  </outline>
</glyph>
<glyph name="florin" format="2">
  <advance width="583"/>
  <unicode hex="0192"/>
  <outline>
    <contour>
      <point x="9" y="-170" type="line"/>
      <point x="49" y="-170" type="line"/>
      <point x="188.35" y="362" type="line"/>
      <point x="368" y="362" type="line"/>
      <point x="368" y="395" type="line"/>
      <point x="196.99" y="395" type="line"/>
      <point x="241" y="563" type="line" smooth="yes"/>
      <point x="256" y="620"/>
      <point x="292" y="705"/>
      <point x="395" y="705" type="curve" smooth="yes"/>
      <point x="444" y="705"/>
      <point x="484" y="687"/>
      <point x="508" y="659" type="curve"/>
      <point x="538" y="680" type="line"/>
      <point x="510" y="708"/>
      <point x="468" y="733"/>
      <point x="395" y="733" type="curve" smooth="yes"/>
      <point x="240" y="733"/>
      <point x="213" y="608"/>
      <point x="196" y="543" type="curve" smooth="yes"/>
      <point x="157.18" y="395" type="line"/>
      <point x="35" y="395" type="line"/>
      <point x="35" y="362" type="line"/>
      <point x="148.53" y="362" type="line"/>
    </contour>
  </outline>
</glyph>
<glyph name="Nhookleft" format="2">
  <advance width="600"/>
  <unicode hex="019D"/>
  <anchor x="300" y="0" name="bottom"/>
  <anchor x="300" y="700" name="top"/>
  <outline>
    <contour>
      <point x="99" y="0" type="line"/>
      <point x="56" y="0" type="line"/>
      <point x="56" y="-125" type="line" smooth="yes"/>
      <point x="56" y="-159"/>
      <point x="41" y="-166"/>
      <point x="25" y="-166" type="curve" smooth="yes"/>
      <point x="3" y="-166"/>
      <point x="-25" y="-157"/>
      <point x="-51" y="-135" type="curve"/>
      <point x="-55" y="-169" type="line"/>
      <point x="-40" y="-185"/>
      <point x="-8" y="-203"/>
      <point x="25" y="-203" type="curve" smooth="yes"/>
      <point x="84" y="-203"/>
      <point x="99" y="-159"/>
      <point x="99" y="-125" type="curve" smooth="yes"/>
    </contour>
    <component base="N"/>
  </outline>
</glyph>
<glyph name="jdotless" format="2">
  <advance width="204"/>
  <unicode hex="0237"/>
  <anchor x="102" y="500" name="top"/>
  <outline>
    <contour>
      <point x="-59" y="-260" type="curve" smooth="yes"/>
      <point x="100" y="-260"/>
      <point x="124" y="-135"/>
      <point x="124" y="-70" type="curve" smooth="yes"/>
      <point x="124" y="500" type="line"/>
      <point x="80" y="500" type="line"/>
      <point x="80" y="-70" type="line" smooth="yes"/>
      <point x="80" y="-187"/>
      <point x="34" y="-232"/>
      <point x="-59" y="-232" type="curve" smooth="yes"/>
      <point x="-111" y="-232"/>
      <point x="-145" y="-205"/>
      <point x="-171" y="-176" type="curve"/>
      <point x="-209" y="-203" type="line"/>
      <point x="-180" y="-232"/>
      <point x="-136" y="-260"/>
    </contour>
  </outline>
</glyph>
<glyph name="nhookleft" format="2">
  <advance width="571"/>
  <unicode hex="0272"/>
  <anchor x="290" y="0" name="bottom"/>
  <anchor x="280" y="500" name="top"/>
  <outline>
    <contour>
      <point x="94" y="0" type="line"/>
      <point x="50" y="0" type="line"/>
      <point x="50" y="-125" type="line" smooth="yes"/>
      <point x="50" y="-159"/>
      <point x="36" y="-166"/>
      <point x="20" y="-166" type="curve" smooth="yes"/>
      <point x="-2" y="-166"/>
      <point x="-30" y="-157"/>
      <point x="-56" y="-135" type="curve"/>
      <point x="-60" y="-169" type="line"/>
      <point x="-45" y="-185"/>
      <point x="-13" y="-203"/>
      <point x="20" y="-203" type="curve" smooth="yes"/>
      <point x="79" y="-203"/>
      <point x="94" y="-159"/>
      <point x="94" y="-125" type="curve" smooth="yes"/>
    </contour>
    <component base="n"/>
  </outline>
</glyph>
<glyph name="circumflex" format="2">
  <advance width="600.0"/>
  <unicode hex="02C6"/>
  <note>
circumflex
</note>
  <outline>
    <contour>
      <point x="134.0" y="609.0" type="line"/>
      <point x="176.0" y="595.0" type="line"/>
      <point x="289.0" y="700.52" type="line"/>
      <point x="402.0" y="595.0" type="line"/>
      <point x="444.0" y="609.0" type="line"/>
      <point x="290.0" y="746.0" type="line"/>
      <point x="289.0" y="745.0" type="line"/>
      <point x="288.0" y="746.0" type="line"/>
    </contour>
  </outline>
</glyph>
<glyph name="caron" format="2">
  <advance width="600.0"/>
  <unicode hex="02C7"/>
  <note>
caron
</note>
  <outline>
    <contour>
      <point x="134.0" y="719.0" type="line"/>
      <point x="288.0" y="582.0" type="line"/>
      <point x="289.0" y="583.0" type="line"/>
      <point x="290.0" y="582.0" type="line"/>
      <point x="444.0" y="719.0" type="line"/>
      <point x="402.0" y="733.0" type="line"/>
      <point x="289.0" y="627.48" type="line"/>
      <point x="176.0" y="733.0" type="line"/>
    </contour>
  </outline>
</glyph>
<glyph name="breve" format="2">
  <advance width="600.0"/>
  <unicode hex="02D8"/>
  <note>
breve
</note>
  <outline>
    <contour>
      <point x="451.0" y="689.0" type="curve"/>
      <point x="409.0" y="689.0" type="line"/>
      <point x="380.0" y="596.0"/>
      <point x="337.0" y="583.0"/>
      <point x="288.0" y="581.0" type="curve"/>
      <point x="239.0" y="583.0"/>
      <point x="196.0" y="596.0"/>
      <point x="167.0" y="689.0" type="curve"/>
      <point x="125.0" y="689.0" type="line"/>
      <point x="162.0" y="584.0"/>
      <point x="234.0" y="550.0"/>
      <point x="288.0" y="549.0" type="curve"/>
      <point x="342.0" y="550.0"/>
      <point x="414.0" y="584.0"/>
    </contour>
  </outline>
</glyph>
<glyph name="dotaccent" format="2">
  <advance width="248.0"/>
  <unicode hex="02D9"/>
  <note>
dotaccent
</note>
  <outline>
    <contour>
      <point x="145.0" y="625.0" type="line"/>
      <point x="145.0" y="667.0" type="line"/>
      <point x="103.0" y="667.0" type="line"/>
      <point x="103.0" y="625.0" type="line"/>
    </contour>
  </outline>
</glyph>
<glyph name="ring" format="2">
  <advance width="554.0"/>
  <unicode hex="02DA"/>
  <note>
ring
</note>
  <outline>
    <contour>
      <point x="277.0" y="564.0" type="curve" smooth="yes"/>
      <point x="341.0" y="564.0"/>
      <point x="395.0" y="618.0"/>
      <point x="395.0" y="682.0" type="curve" smooth="yes"/>
      <point x="395.0" y="746.0"/>
      <point x="341.0" y="800.0"/>
      <point x="277.0" y="800.0" type="curve" smooth="yes"/>
      <point x="213.0" y="800.0"/>
      <point x="159.0" y="746.0"/>
      <point x="159.0" y="682.0" type="curve" smooth="yes"/>
      <point x="159.0" y="618.0"/>
      <point x="213.0" y="564.0"/>
    </contour>
    <contour>
      <point x="277.0" y="592.0" type="curve" smooth="yes"/>
      <point x="227.0" y="592.0"/>
      <point x="187.0" y="632.0"/>
      <point x="187.0" y="682.0" type="curve" smooth="yes"/>
      <point x="187.0" y="732.0"/>
      <point x="227.0" y="772.0"/>
      <point x="277.0" y="772.0" type="curve" smooth="yes"/>
      <point x="327.0" y="772.0"/>
      <point x="367.0" y="732.0"/>
      <point x="367.0" y="682.0" type="curve" smooth="yes"/>
      <point x="367.0" y="632.0"/>
      <point x="327.0" y="592.0"/>
    </contour>
  </outline>
</glyph>
